<?xml version="1.0" encoding="UTF-8" standalone="no"?>
<!-- Created with Inkscape (http://www.inkscape.org/) -->
<svg
   xmlns:dc="http://purl.org/dc/elements/1.1/"
   xmlns:cc="http://web.resource.org/cc/"
   xmlns:rdf="http://www.w3.org/1999/02/22-rdf-syntax-ns#"
   xmlns:svg="http://www.w3.org/2000/svg"
   xmlns="http://www.w3.org/2000/svg"
   xmlns:sodipodi="http://sodipodi.sourceforge.net/DTD/sodipodi-0.dtd"
   xmlns:inkscape="http://www.inkscape.org/namespaces/inkscape"
   version="1.0"
   width="300"
   height="377"
   viewBox="0 0 348.143 436.994"
   id="Layer_1"
   xml:space="preserve"
   sodipodi:version="0.32"
   inkscape:version="0.45.1"
   sodipodi:docname="Star fire.svg"
   inkscape:output_extension="org.inkscape.output.svg.inkscape"
   sodipodi:docbase="F:\SVG Uploaded to CC site\Misc\Fires and Cranes"><sodipodi:namedview
   inkscape:window-height="573"
   inkscape:window-width="744"
   inkscape:pageshadow="2"
   inkscape:pageopacity="0.0"
   guidetolerance="10.0"
   gridtolerance="10.0"
   objecttolerance="10.0"
   borderopacity="1.0"
   bordercolor="#666666"
   pagecolor="#ffffff"
   id="base"
   width="300px"
   height="377px"
   inkscape:zoom="0.8627121"
   inkscape:cx="174.0715"
   inkscape:cy="218.49699"
   inkscape:window-x="1346"
   inkscape:window-y="167"
   inkscape:current-layer="Layer_1" /><defs
   id="defs110" />
<metadata
   id="metadata4">
    <rdf:RDF>
      <cc:Work
   rdf:about="">
        <dc:title>Star Fire</dc:title>
        <dc:description>Star Fire</dc:description>
        <dc:subject>
          <rdf:Bag>
            <rdf:li>camp</rdf:li>
            <rdf:li>cooking</rdf:li>
            <rdf:li>fire</rdf:li>
          </rdf:Bag>
        </dc:subject>
        <dc:publisher>
          <cc:Agent
   rdf:about="http://www.openclipart.org/">
            <dc:title>Open Clip Art Project</dc:title>
          </cc:Agent>
        </dc:publisher>
        <dc:creator>
          <cc:Agent
   rdf:about="http://web.resource.org/cc/PublicDomain">
            <dc:title>Gerald G.</dc:title>
          </cc:Agent>
        </dc:creator>
        <dc:rights>
          <cc:Agent
   rdf:about="http://web.resource.org/cc/PublicDomain">
            <dc:title>Public Domain</dc:title>
          </cc:Agent>
        </dc:rights>
        <dc:date>2005/05/13</dc:date>
        <dc:format>image/svg+xml</dc:format>
        <dc:type
   rdf:resource="http://purl.org/dc/dcmitype/StillImage" />
        <cc:license
   rdf:resource="http://web.resource.org/cc/PublicDomain" />
        <dc:language>en</dc:language>
      </cc:Work>
      <cc:License
   rdf:about="http://web.resource.org/cc/PublicDomain">
        <cc:permits
   rdf:resource="http://web.resource.org/cc/Reproduction" />
        <cc:permits
   rdf:resource="http://web.resource.org/cc/Distribution" />
        <cc:permits
   rdf:resource="http://web.resource.org/cc/DerivativeWorks" />
      </cc:License>
    </rdf:RDF>
  </metadata>
<g
   id="g3">
	<path
   d="M 115.758,223.555 C 89.226,206.24 67.518,193.28 49.806,183.992 C 32.058,174.704 19.134,169.628 10.206,168.368 L 10.206,168.368 C 3.402,156.884 0.054,147.236 0.018,138.992 C -0.018,130.748 4.95,124.052 10.206,119.192 C 15.39,114.296 22.338,111.056 31.194,109.616 L 31.194,109.616 L 119.97,161.204 L 119.97,161.204 C 129.258,141.908 137.97,124.88 146.934,109.004 C 155.826,93.164 169.614,84.452 172.746,67.028 C 175.627,49.424 172.818,29.012 164.322,4.675 L 164.322,4.675 C 177.534,17.095 185.49,30.811 188.335,46.652 C 191.034,62.348 181.459,85.712 181.135,98.816 C 180.811,111.92 182.611,120.236 186.534,124.592 L 186.534,124.592 C 192.402,113.828 196.146,103.172 197.91,92.228 C 199.602,81.212 199.206,70.448 196.722,59.252 L 196.722,59.252 C 201.978,67.82 205.974,76.82 208.71,86.828 C 211.374,96.8 212.777,107.204 212.922,118.616 L 212.922,118.616 C 215.334,111.776 216.485,104.828 216.522,97.628 C 216.486,90.392 215.334,83.048 212.922,75.452 L 212.922,75.452 C 216.594,77.288 219.582,80.096 221.886,84.416 C 224.226,88.664 225.738,93.884 226.71,100.616 L 226.71,100.616 L 248.273,65.84 L 248.273,65.84 C 256.409,64.724 262.565,64.724 266.885,65.84 C 271.204,66.92 273.509,69.116 274.085,72.428 L 274.085,72.428 C 265.049,86.648 260.477,95 259.685,97.628 C 258.965,100.112 266.849,91.256 269.873,88.016 C 272.896,84.74 275.452,81.68 277.685,78.44 L 277.685,78.44 C 281.285,84.308 283.625,90.104 284.849,95.828 C 286.001,101.624 286.001,106.988 284.849,112.604 L 284.849,112.604 C 279.701,121.46 275.201,129.056 271.061,135.392 C 266.921,141.656 263.429,146.66 260.297,150.404 L 260.297,150.404 L 317.249,122.792 L 317.249,122.792 C 321.389,124.844 325.889,127.292 331.036,129.992 C 336.257,132.656 345.94,134.96 347.849,138.992 C 349.397,142.952 343.997,147.632 341.225,154.004 C 338.453,160.268 335.357,167.864 331.649,176.792 L 331.649,176.792 C 321.677,179.528 311.813,183.776 301.661,189.968 C 291.437,196.124 280.962,206.888 271.061,213.368 C 261.017,219.668 251.657,224.42 242.297,227.768 L 242.297,227.768 C 242.981,229.135 242.729,231.331 241.685,234.356 C 240.533,237.379 238.589,241.124 235.709,245.732 L 235.709,245.732 C 241.612,250.988 251.152,263.803 264.473,284.719 C 277.865,305.707 294.533,333.823 315.449,370.471 L 315.449,370.471 C 316.458,380.48 316.458,388.652 315.449,395.671 C 314.334,402.547 310.193,405.067 309.437,411.835 C 308.717,418.675 312.929,432.319 311.237,435.847 C 309.401,439.015 305.261,434.839 298.674,431.635 C 291.978,428.36 277.794,419.431 271.674,416.659 C 265.445,413.887 265.445,417.595 262.098,414.859 C 258.714,412.05 255.438,407.046 251.874,399.846 L 251.874,399.846 C 252.27,411.618 251.874,419.826 250.686,425.046 C 249.426,430.05 247.518,431.202 244.674,430.446 C 241.722,429.618 234.414,425.298 233.298,420.258 C 232.073,415.038 237.222,409.063 237.51,399.846 C 237.654,390.558 236.646,379.111 234.486,365.071 L 234.486,365.071 C 224.298,350.815 214.65,336.703 205.11,321.907 C 195.57,307.039 186.426,292.315 177.534,276.907 L 177.534,276.907 C 171.378,279.642 165.87,280.399 160.722,279.319 C 155.574,278.203 151.074,275.251 146.934,270.319 L 146.934,270.319 C 127.746,283.243 110.754,296.167 95.382,309.919 C 79.902,323.635 66.834,337.352 55.206,351.896 L 55.206,351.896 C 43.542,351.896 34.038,352.219 26.406,352.471 C 18.702,352.688 10.566,356.935 9.63,353.696 C 8.766,350.312 18.018,341.744 21.006,332.708 C 23.85,323.636 25.902,312.729 27.018,299.696 L 27.018,299.696 C 40.194,284.756 54.306,272.048 70.182,260.744 C 86.022,249.44 102.69,240.188 121.158,232.556 L 121.158,232.556 C 119.358,229.567 117.558,226.579 115.758,223.555 L 115.758,223.555 z "
   style="fill-rule:evenodd;stroke:#000000;stroke-width:0.036;stroke-miterlimit:10"
   id="path5" />
	<path
   d="M 227.935,103.891 C 230.491,109.219 231.931,114.979 232.399,121.603 C 232.687,128.155 231.067,136.939 230.455,142.951 C 229.88,148.819 228.619,152.707 228.764,156.703 C 228.8,160.627 229.411,163.759 230.743,166.243 L 230.743,166.243 L 257.132,152.203 L 257.132,152.203 C 263.684,141.151 268.976,132.295 273.152,124.951 C 277.293,117.607 280.388,113.431 281.864,108.679 C 283.268,103.891 282.152,100.471 281.576,96.331 C 280.929,92.011 279.669,87.655 277.94,83.119 L 277.94,83.119 C 270.344,90.679 264.908,95.791 261.344,98.851 C 257.816,101.731 256.916,103.027 256.844,101.083 C 256.699,99.139 257.924,92.155 260.516,87.331 C 263.072,82.363 266.995,77.395 272.287,71.887 L 272.287,71.887 C 267.535,69.799 263.287,68.395 259.399,67.675 C 255.475,66.847 252.055,66.883 248.995,67.387 L 248.995,67.387 C 242.084,80.059 237.115,89.275 233.552,95.467 C 230.022,101.551 228.15,104.359 227.935,103.891 L 227.935,103.891 z "
   style="fill:#a16121;fill-rule:evenodd;stroke:#000000;stroke-width:0.036;stroke-miterlimit:10"
   id="path7" />
	<path
   d="M 238.303,108.103 C 239.131,104.683 240.823,99.679 244.206,94.063 C 247.555,88.447 257.742,75.559 258.534,74.983 C 259.182,74.443 252.018,84.487 248.706,90.967 C 245.358,97.375 240.606,110.191 238.879,113.179 C 237.15,115.987 237.331,111.235 238.303,108.103 L 238.303,108.103 z "
   style="fill-rule:evenodd;stroke:#000000;stroke-width:0.036;stroke-miterlimit:10"
   id="path9" />
	<path
   d="M 237.187,133.951 C 239.311,128.515 248.023,109.903 249.283,108.679 C 250.292,107.599 246.008,121.459 243.92,126.931 C 241.724,132.223 238.088,138.847 236.899,140.143 C 235.746,141.295 235.063,139.135 237.187,133.951 L 237.187,133.951 z "
   style="fill-rule:evenodd;stroke:#000000;stroke-width:0.036;stroke-miterlimit:10"
   id="path11" />
	<path
   d="M 275.671,94.351 C 274.879,94.459 265.015,104.179 261.343,109.507 C 257.527,114.763 252.739,125.419 253.494,125.527 C 254.251,125.347 262.026,114.403 265.843,109.219 C 269.587,103.963 276.246,94.279 275.671,94.351 L 275.671,94.351 z "
   style="fill-rule:evenodd;stroke:#000000;stroke-width:0.036;stroke-miterlimit:10"
   id="path13" />
	<path
   d="M 231.282,169.339 C 239.923,164.587 249.246,159.583 259.65,154.183 C 270.127,148.603 283.266,142.051 293.094,137.047 C 302.705,132.115 310.482,128.047 316.962,124.699 L 316.962,124.699 C 315.918,131.611 315.918,136.471 316.962,139.855 C 317.97,143.167 319.985,144.571 323.153,144.355 L 323.153,144.355 C 319.985,149.107 318.294,152.851 318.077,155.587 C 317.825,158.323 319.05,159.907 321.75,160.627 L 321.75,160.627 C 319.302,163.723 318.689,166.531 319.77,169.051 C 320.814,171.499 323.622,173.659 328.194,175.531 L 328.194,175.531 C 315.018,179.779 303.786,184.603 294.211,190.399 C 284.526,196.159 279.667,204.115 270.883,209.803 C 262.099,215.419 252.559,219.955 241.975,223.843 L 241.975,223.843 C 242.047,212.179 241.255,202.063 239.454,192.919 C 237.69,183.811 234.919,175.999 231.282,169.339 L 231.282,169.339 z "
   style="fill:#a16121;fill-rule:evenodd;stroke:#000000;stroke-width:0.036;stroke-miterlimit:10"
   id="path15" />
	<path
   d="M 271.746,153.319 C 278.406,149.755 292.122,142.771 298.711,140.143 C 305.118,137.407 313.219,135.499 310.231,137.335 C 307.027,139.135 288.955,147.091 280.46,151.087 C 271.892,155.047 260.84,160.411 259.399,160.915 C 257.923,161.131 265.087,156.847 271.746,153.319 L 271.746,153.319 z "
   style="fill-rule:evenodd;stroke:#000000;stroke-width:0.036;stroke-miterlimit:10"
   id="path17" />
	<path
   d="M 256.303,180.859 C 262.927,177.583 281.935,168.727 291.115,165.127 C 300.115,161.455 312.031,156.811 309.943,159.511 C 307.567,162.247 279.307,180.751 277.939,181.435 C 276.643,181.903 302.455,164.515 302.347,163.147 C 302.023,161.851 285.175,169.951 276.786,173.551 C 268.255,177.043 255.906,182.587 252.379,183.955 C 248.959,185.071 249.751,183.991 256.303,180.859 L 256.303,180.859 z "
   style="fill-rule:evenodd;stroke:#000000;stroke-width:0.036;stroke-miterlimit:10"
   id="path19" />
	<path
   d="M 253.494,198.571 C 259.362,195.475 279.415,186.439 281.862,185.899 C 284.058,185.467 273.078,192.631 267.246,195.727 C 261.343,198.643 249.318,203.071 247.015,203.611 C 244.711,204.007 247.519,201.487 253.494,198.571 L 253.494,198.571 z "
   style="fill-rule:evenodd;stroke:#000000;stroke-width:0.036;stroke-miterlimit:10"
   id="path21" />
	<path
   d="M 318.942,127.219 C 318.15,130.351 317.862,133.015 318.078,135.355 C 318.295,137.587 318.583,139.603 320.058,140.971 C 321.498,142.231 323.514,142.987 326.502,143.239 L 326.502,143.239 C 324.054,146.263 322.47,148.639 321.462,150.799 C 320.453,152.815 320.166,154.183 320.598,155.587 C 320.922,156.991 322.002,157.963 323.694,158.935 L 323.694,158.935 C 321.534,161.923 320.923,164.731 322.003,167.359 C 323.083,169.951 325.566,172.255 329.887,174.415 L 329.887,174.415 C 332.551,166.747 335.215,160.375 337.735,155.011 C 340.256,149.539 344.035,145.327 345.044,142.375 C 345.943,139.459 345.115,139.063 343.1,137.587 C 340.868,136.039 336.476,134.743 332.408,133.123 C 328.375,131.395 323.839,129.379 318.942,127.219 L 318.942,127.219 z "
   style="fill:#a16121;fill-rule:evenodd;stroke:#000000;stroke-width:0.036;stroke-miterlimit:10"
   id="path23" />
	<path
   d="M 331.291,142.663 C 329.347,145.255 328.122,147.559 327.618,149.971 C 327.043,152.311 327.331,154.507 328.194,156.703 L 328.194,156.703 C 328.842,153.751 329.31,151.231 329.886,148.855 C 330.391,146.443 330.858,144.427 331.291,142.663 L 331.291,142.663 z "
   style="fill-rule:evenodd;stroke:#000000;stroke-width:0.036;stroke-miterlimit:10"
   id="path25" />
	<path
   d="M 323.982,132.547 C 323.658,134.707 324.27,136.435 325.674,137.587 C 327.077,138.775 329.274,139.387 332.405,139.567 L 332.405,139.567 C 329.993,139.099 328.445,138.487 327.365,137.587 C 326.25,136.651 325.998,135.535 326.214,134.239 L 326.214,134.239 L 332.693,135.067 L 332.693,135.067 C 329.814,134.239 326.898,133.411 323.982,132.547 L 323.982,132.547 z "
   style="fill-rule:evenodd;stroke:#000000;stroke-width:0.036;stroke-miterlimit:10"
   id="path27" />
	<path
   d="M 334.927,137.587 C 334.099,138.415 333.631,139.459 333.523,141.259 C 333.307,142.915 333.631,145.111 334.099,147.703 L 334.099,147.703 C 334.351,144.355 334.639,140.971 334.927,137.587 L 334.927,137.587 z "
   style="fill-rule:evenodd;stroke:#000000;stroke-width:0.036;stroke-miterlimit:10"
   id="path29" />
	<path
   d="M 231.03,245.803 C 227.358,243.356 223.182,241.951 218.646,241.591 C 213.894,241.087 207.594,241.555 203.49,243.571 C 199.278,245.587 196.003,250.339 194.49,253.939 C 193.014,257.43 193.158,260.995 194.778,264.63 L 194.778,264.63 C 191.322,267.582 188.37,269.778 185.778,271.651 C 183.114,273.379 181.098,274.638 179.335,275.287 L 179.335,275.287 C 200.431,309.919 215.37,333.607 224.839,347.467 C 234.198,361.183 235.206,359.78 235.494,357.295 C 235.746,354.487 230.49,341.852 226.242,331.735 C 221.742,321.547 209.467,298.327 209.394,297.211 C 209.394,296.239 221.49,316.759 225.954,325.291 C 230.274,333.679 233.047,339.871 235.242,346.927 C 237.186,353.659 237.978,356.503 238.591,366.583 C 239.238,376.735 239.383,390.271 239.167,407.587 L 239.167,407.587 C 242.335,409.316 244.675,411.331 246.475,413.779 C 248.239,416.191 249.211,418.999 249.535,422.203 L 249.535,422.203 C 249.859,414.319 250.004,405.319 250.111,394.375 C 250.219,383.359 250.867,367.303 249.823,357.295 C 248.599,347.287 242.515,336.379 242.803,335.119 C 242.947,333.823 249.175,343.651 250.939,349.735 C 252.523,355.855 252.811,364.459 253.207,371.371 C 253.567,378.103 253.531,385.807 253.495,390.163 C 253.388,394.339 253.243,396.499 252.92,396.643 L 252.92,396.643 C 253.027,398.046 253.819,399.918 255.44,402.546 C 257.024,405.103 259.184,408.234 262.208,412.086 L 262.208,412.086 C 261.272,401.395 261.956,393.294 263.864,387.355 C 265.881,381.451 269.12,377.851 273.98,376.699 L 273.98,376.699 C 266.888,357.943 264.368,348.474 266.42,347.755 C 268.399,347.108 274.951,355.352 286.075,372.776 L 286.075,372.776 C 287.911,372.956 289.172,372.02 290,369.967 C 290.756,367.843 291.079,364.747 290.827,360.391 L 290.827,360.391 C 293.96,362.192 297.056,363.379 300.115,364.352 C 303.139,365.215 306.128,365.683 309.079,365.755 L 309.079,365.755 C 303.283,354.451 295.903,341.347 286.363,325.867 C 276.787,310.279 261.055,286.339 252.38,273.343 C 243.632,260.347 237.907,252.104 234.668,248.323 L 234.668,248.323 L 231.03,245.803 L 231.03,245.803 z "
   style="fill:#a16121;fill-rule:evenodd;stroke:#000000;stroke-width:0.036;stroke-miterlimit:10"
   id="path31" />
	<path
   d="M 238.051,273.343 C 251.803,291.379 262.746,306.031 271.459,318.272 C 280.099,330.404 286.038,339.404 289.711,345.812 L 289.711,345.812 C 278.154,332.095 268.362,319.496 259.65,307.328 C 250.902,295.159 243.883,283.963 238.051,273.343 L 238.051,273.343 z "
   style="fill-rule:evenodd;stroke:#000000;stroke-width:0.036;stroke-miterlimit:10"
   id="path33" />
	<path
   d="M 225.379,270.535 C 237.187,285.943 246.511,298.543 254.034,309.019 C 261.45,319.458 266.526,327.09 269.658,332.598 L 269.658,332.598 C 259.759,320.827 251.406,310.063 243.919,299.622 C 236.467,289.147 230.419,279.679 225.379,270.535 L 225.379,270.535 z "
   style="fill-rule:evenodd;stroke:#000000;stroke-width:0.036;stroke-miterlimit:10"
   id="path35" />
	<path
   d="M 208.278,258.151 C 216.486,268.915 223.003,277.627 228.222,284.97 C 233.406,292.279 236.898,297.534 239.094,301.422 L 239.094,301.422 C 232.182,293.25 226.35,285.727 221.166,278.454 C 215.982,271.111 211.734,264.523 208.278,258.151 L 208.278,258.151 z "
   style="fill-rule:evenodd;stroke:#000000;stroke-width:0.036;stroke-miterlimit:10"
   id="path37" />
	<path
   d="M 265.267,411.511 C 264.619,404.564 264.439,398.911 265.015,394.123 C 265.447,389.299 266.419,385.915 268.363,383.144 C 270.307,380.335 272.971,378.32 276.5,377.24 L 276.5,377.24 C 272.396,366.763 270.02,359.744 269.228,355.891 C 268.364,351.931 269.156,351.104 271.748,354.236 C 274.269,357.368 280.893,372.02 284.385,375.007 C 287.805,377.887 290.613,373.747 292.233,371.911 C 293.673,370.003 294.105,367.339 293.385,363.775 L 293.385,363.775 C 296.229,365.214 299.073,366.295 302.349,367.159 C 305.481,368.023 308.901,368.527 312.465,368.815 L 312.465,368.815 C 313.293,373.855 313.58,379.003 313.04,384.835 C 312.501,390.559 310.629,398.263 309.368,403.087 C 308.036,407.767 305.337,407.947 305.156,412.663 C 304.904,417.343 308.253,427.639 307.713,430.627 C 307.101,433.363 306.057,431.743 301.233,429.511 C 296.157,427.064 283.953,419.935 277.941,416.875 C 271.927,413.887 267.751,412.051 265.267,411.511 L 265.267,411.511 z "
   style="fill:#a16121;fill-rule:evenodd;stroke:#000000;stroke-width:0.036;stroke-miterlimit:10"
   id="path39" />
	<path
   d="M 276.499,399.163 C 278.839,392.503 282.547,387.355 287.767,383.431 C 292.987,379.471 299.538,376.988 307.711,375.835 L 307.711,375.835 L 307.423,384.007 L 304.038,378.643 L 304.038,378.644 C 296.767,381.236 291.007,384.188 286.362,387.644 C 281.719,391.099 278.479,394.807 276.499,399.163 L 276.499,399.163 z "
   style="fill-rule:evenodd;stroke:#000000;stroke-width:0.036;stroke-miterlimit:10"
   id="path41" />
	<path
   d="M 301.807,387.104 C 296.37,388.616 292.339,390.776 289.423,394.124 C 286.543,397.364 284.815,401.432 284.383,406.472 L 284.383,406.472 L 292.519,413.781 L 286.363,405.357 L 286.363,405.357 C 289.351,399.525 292.159,395.169 294.787,392.145 C 297.307,389.047 299.646,387.463 301.807,387.104 L 301.807,387.104 z "
   style="fill-rule:evenodd;stroke:#000000;stroke-width:0.036;stroke-miterlimit:10"
   id="path43" />
	<path
   d="M 302.635,397.759 C 299.935,398.659 297.739,400.028 296.191,402.259 C 294.607,404.383 293.527,407.192 293.095,410.683 L 293.095,410.683 C 294.355,407.371 295.615,404.707 297.307,402.547 C 298.891,400.352 300.618,398.803 302.635,397.759 L 302.635,397.759 z "
   style="fill-rule:evenodd;stroke:#000000;stroke-width:0.036;stroke-miterlimit:10"
   id="path45" />
	<path
   d="M 299.538,413.779 C 298.35,413.779 297.559,414.751 297.018,416.299 C 296.442,417.847 296.118,420.188 296.19,423.32 L 296.19,423.32 C 296.946,420.727 297.919,418.712 298.711,417.416 C 299.467,416.048 300.439,415.256 301.231,415.184 L 301.231,415.184 C 300.69,414.715 300.114,414.247 299.538,413.779 L 299.538,413.779 z "
   style="fill-rule:evenodd;stroke:#000000;stroke-width:0.036;stroke-miterlimit:10"
   id="path47" />
	<path
   d="M 238.303,409.567 C 237.078,410.107 235.639,414.247 235.494,416.298 C 235.171,418.206 234.99,419.611 236.898,421.626 C 238.734,423.678 245.106,428.647 246.726,428.358 C 248.238,427.889 246.762,421.698 246.186,419.106 C 245.466,416.513 244.062,414.137 242.802,412.662 C 241.398,411.079 239.526,408.847 238.303,409.567 L 238.303,409.567 z "
   style="fill:#a16121;fill-rule:evenodd;stroke:#000000;stroke-width:0.036;stroke-miterlimit:10"
   id="path49" />
	<path
   d="M 122.31,234.283 C 123.93,238.531 126.594,243.499 130.446,249.187 C 134.262,254.875 139.23,261.138 145.35,268.267 L 145.35,268.267 L 102.654,300.306 L 54.054,349.159 L 54.054,349.159 C 54.054,349.159 61.578,338.647 61.074,332.023 C 60.57,325.434 52.11,322.771 52.11,322.771 L 52.11,322.771 C 52.722,317.407 51.822,313.554 49.014,310.674 C 46.17,307.83 38.754,307.687 35.514,305.922 C 32.274,304.014 30.258,301.855 29.61,299.443 L 29.61,299.443 C 43.29,284.682 57.618,272.227 73.17,261.247 C 88.758,250.303 104.814,241.411 122.31,234.283 L 122.31,234.283 z "
   style="fill:#a16121;fill-rule:evenodd;stroke:#000000;stroke-width:0.036;stroke-miterlimit:10"
   id="path51" />
	<path
   d="M 129.906,259.843 C 128.25,260.239 106.794,273.883 97.614,280.364 C 88.398,286.916 73.998,298.544 75.402,298.328 C 76.986,297.824 97.002,284.18 106.29,277.807 C 115.506,271.147 131.202,259.555 129.906,259.843 L 129.906,259.843 z "
   style="fill-rule:evenodd;stroke:#000000;stroke-width:0.036;stroke-miterlimit:10"
   id="path53" />
	<path
   d="M 123.174,274.747 C 120.474,275.935 94.59,292.279 84.402,298.903 C 74.214,305.346 59.922,314.203 62.478,313.231 C 65.034,312.115 89.334,298.794 99.558,292.422 C 109.746,285.907 125.586,273.667 123.174,274.747 L 123.174,274.747 z "
   style="fill-rule:evenodd;stroke:#000000;stroke-width:0.036;stroke-miterlimit:10"
   id="path55" />
	<path
   d="M 86.094,305.059 C 83.106,306.356 63.162,318.163 61.938,319.387 C 60.822,320.396 74.862,314.203 79.074,311.791 C 82.998,309.271 88.902,303.835 86.094,305.059 L 86.094,305.059 z "
   style="fill-rule:evenodd;stroke:#000000;stroke-width:0.036;stroke-miterlimit:10"
   id="path57" />
	<path
   d="M 73.71,317.443 C 70.254,319.567 63.918,323.743 63.594,324.714 C 63.45,325.506 68.85,324.859 72.306,322.771 C 75.582,320.575 82.998,312.979 83.286,312.079 C 83.466,311.143 76.986,315.247 73.71,317.443 L 73.71,317.443 z "
   style="fill-rule:evenodd;stroke:#000000;stroke-width:0.036;stroke-miterlimit:10"
   id="path59" />
	<path
   d="M 28.782,301.423 C 30.402,304.736 32.886,307.255 36.09,308.984 C 39.33,310.639 45.846,309.164 48.15,311.792 C 50.31,314.384 50.742,318.56 49.302,324.464 L 49.302,324.464 C 55.314,324.392 58.446,326.444 58.842,330.62 C 59.094,334.868 56.61,340.952 51.246,349.448 L 51.246,349.448 C 43.506,349.7 36.63,350.024 30.186,350.564 C 23.598,351.104 15.102,353.156 12.762,352.543 C 10.458,351.751 14.274,350.059 16.434,346.352 C 18.522,342.608 23.454,335.551 25.398,330.331 C 27.27,325.003 27.054,319.675 27.666,314.887 C 28.242,309.991 28.566,305.635 28.782,301.423 L 28.782,301.423 z "
   style="fill:#a16121;fill-rule:evenodd;stroke:#000000;stroke-width:0.036;stroke-miterlimit:10"
   id="path61" />
	<path
   d="M 35.226,315.175 C 38.142,316.291 40.302,318.307 42.246,321.367 C 44.082,324.39 45.63,329.287 46.206,333.138 C 46.674,336.954 46.242,340.338 45.054,343.83 L 45.054,343.83 C 45.198,337.134 44.406,331.518 42.822,326.694 C 41.13,321.871 38.646,318.127 35.226,315.175 L 35.226,315.175 z "
   style="fill-rule:evenodd;stroke:#000000;stroke-width:0.036;stroke-miterlimit:10"
   id="path63" />
	<path
   d="M 36.63,327.271 C 38.43,329.791 39.33,332.598 39.186,335.695 C 39.006,338.827 37.926,342.103 35.802,345.811 L 35.802,345.811 C 36.846,342.247 37.278,339.115 37.494,335.983 C 37.602,332.887 37.314,329.935 36.63,327.271 L 36.63,327.271 z "
   style="fill-rule:evenodd;stroke:#000000;stroke-width:0.036;stroke-miterlimit:10"
   id="path65" />
	<path
   d="M 32.706,329.791 C 33.714,330.583 33.57,332.167 32.418,334.543 C 31.194,336.847 28.854,339.943 25.398,343.831 L 25.398,343.831 C 27.558,341.059 29.25,338.575 30.474,336.235 C 31.626,333.896 32.418,331.699 32.706,329.791 L 32.706,329.791 z "
   style="fill-rule:evenodd;stroke:#000000;stroke-width:0.036;stroke-miterlimit:10"
   id="path67" />
	<path
   d="M 119.214,162.931 C 110.214,158.467 98.514,152.059 83.826,143.563 C 69.066,134.959 51.75,124.663 31.302,112.099 L 31.302,112.099 C 24.318,113.827 18.738,116.455 14.166,120.271 C 9.486,123.943 4.59,126.823 4.05,134.599 C 3.51,142.375 5.85,152.851 11.07,166.603 L 11.07,166.603 C 22.41,169.555 32.994,173.155 43.398,177.835 C 53.694,182.371 60.282,186.835 72.882,194.143 C 85.554,201.451 100.35,210.379 118.386,221.359 L 118.386,221.359 C 114.498,210.234 112.626,199.975 112.77,190.183 C 112.95,180.319 115.002,171.463 119.214,162.931 L 119.214,162.931 z "
   style="fill:#a16121;fill-rule:evenodd;stroke:#000000;stroke-width:0.036;stroke-miterlimit:10"
   id="path69" />
	<path
   d="M 15.282,163.219 C 13.482,160.987 12.222,158.179 11.358,154.795 C 10.494,151.303 10.17,147.379 10.242,142.735 L 10.242,142.735 C 10.89,146.443 11.79,150.187 13.338,153.967 C 14.742,157.675 16.614,161.419 18.954,165.199 L 18.954,165.199 C 17.73,164.551 16.506,163.903 15.282,163.219 L 15.282,163.219 z "
   style="fill-rule:evenodd;stroke:#000000;stroke-width:0.036;stroke-miterlimit:10"
   id="path71" />
	<path
   d="M 24.246,165.811 C 22.77,163.975 21.69,161.707 21.006,158.863 C 20.25,156.019 20.034,152.743 20.07,148.891 L 20.07,148.891 C 20.538,151.951 21.438,155.047 22.626,158.179 C 23.778,161.311 25.362,164.263 27.234,167.431 L 27.234,167.431 C 26.262,166.891 25.254,166.351 24.246,165.811 L 24.246,165.811 z "
   style="fill-rule:evenodd;stroke:#000000;stroke-width:0.036;stroke-miterlimit:10"
   id="path73" />
	<path
   d="M 29.574,168.799 C 28.494,167.467 27.702,165.775 27.198,163.723 C 26.622,161.671 26.442,159.259 26.514,156.487 L 26.514,156.487 C 26.91,158.719 27.486,160.915 28.386,163.219 C 29.322,165.523 30.258,167.647 31.734,169.987 L 31.734,169.987 C 31.014,169.591 30.294,169.195 29.574,168.799 L 29.574,168.799 z "
   style="fill-rule:evenodd;stroke:#000000;stroke-width:0.036;stroke-miterlimit:10"
   id="path75" />
	<path
   d="M 40.302,123.619 C 48.978,128.191 75.474,142.735 86.346,149.179 C 97.074,155.479 108.018,163.111 104.058,161.527 C 99.702,159.691 73.026,145.723 61.362,139.063 C 49.698,132.295 38.502,124.591 34.974,121.927 C 31.338,119.299 31.77,119.083 40.302,123.619 L 40.302,123.619 z "
   style="fill-rule:evenodd;stroke:#000000;stroke-width:0.036;stroke-miterlimit:10"
   id="path77" />
	<path
   d="M 50.958,138.811 C 58.374,142.159 70.578,148.747 80.19,154.255 C 89.838,159.763 110.394,172.507 107.694,171.643 C 104.526,170.491 74.502,154.759 62.478,148.351 C 50.382,141.943 38.07,135.355 36.09,133.735 C 34.182,132.043 43.542,135.355 50.958,138.811 L 50.958,138.811 z "
   style="fill-rule:evenodd;stroke:#000000;stroke-width:0.036;stroke-miterlimit:10"
   id="path79" />
	<path
   d="M 185.311,269.131 C 182.107,273.199 178.111,275.791 173.323,276.907 C 168.427,277.951 161.731,278.346 156.547,275.719 C 151.291,272.948 147.691,268.627 142.255,260.959 C 136.747,253.111 128.395,241.051 124.003,230.071 C 119.503,219.054 116.731,206.563 116.119,195.799 C 115.507,184.927 117.847,174.811 120.619,166.027 C 123.283,157.279 127.027,153.355 132.427,143.563 C 137.791,133.555 145.783,118.255 152.659,106.987 C 159.355,95.611 168.859,85.387 172.855,76.315 C 176.672,67.207 176.132,62.419 175.951,53.059 C 175.699,43.591 171.235,24.439 171.739,20.191 C 172.207,15.943 176.347,23.287 178.76,27.787 C 181.172,32.323 184.448,39.955 185.528,46.795 C 186.32,53.347 185.204,59.035 184.124,67.603 C 182.864,76.315 179.553,90.211 178.761,98.203 C 178.005,105.943 178.149,109.291 179.337,114.223 C 180.417,119.011 182.145,123.367 184.952,127.147 L 184.952,127.147 C 170.552,147.235 160.076,163.363 152.948,176.647 C 145.856,189.715 143.228,195.655 142.544,205.591 C 141.752,215.527 143.768,225.356 148.448,235.759 L 148.448,235.759 C 144.668,225.175 143.3,215.203 144.488,205.699 C 145.604,196.087 149.168,189.643 155.18,178.735 C 161.084,167.647 173.684,150.331 179.912,140.539 C 185.961,130.783 188.444,127.183 191.684,120.595 C 194.924,113.827 197.228,107.671 198.992,101.011 C 200.576,94.243 201.188,86.251 201.513,81.067 C 201.801,75.883 201.477,72.427 200.685,70.411 L 200.685,70.411 C 202.341,75.919 203.889,81.247 205.185,86.683 C 206.481,92.011 207.597,96.331 208.533,102.703 C 209.289,109.075 209.758,116.203 209.937,124.627 L 209.937,124.627 C 198.309,141.511 189.417,155.839 182.433,168.727 C 175.485,181.471 170.516,190.147 168.644,200.731 C 166.736,211.207 168.608,223.087 170.912,231.079 C 173.108,238.891 176.528,244.363 181.568,247.639 L 181.568,247.639 C 176.384,241.879 173.144,235.039 171.452,226.579 C 169.76,218.047 168.608,208.435 171.74,197.347 C 174.98,186.151 183.332,172.219 190.28,160.267 C 197.12,148.207 207.669,134.527 212.492,125.743 C 217.173,116.851 217.316,113.575 218.36,107.743 C 219.224,101.731 218.396,95.467 218.108,90.895 C 217.784,86.395 217.172,83.119 216.417,81.067 L 216.417,81.067 C 219.656,88.771 222.177,96.079 224.265,102.991 C 226.173,109.903 228.225,114.547 228.477,122.359 C 228.693,130.135 225.813,141.619 225.669,149.323 C 225.345,156.847 225.488,161.275 227.072,167.863 C 228.656,174.379 232.724,180.931 234.956,188.635 C 236.973,196.195 239.673,204.439 239.456,213.655 C 239.169,222.979 237.116,232.843 233.301,243.93 L 233.301,243.93 C 228.693,240.33 223.545,238.674 217.713,238.531 C 211.845,238.459 202.809,240.762 198.525,243.355 C 194.205,245.911 192.981,250.086 191.937,253.543 C 190.821,256.891 190.821,259.951 191.937,263.119 L 191.937,263.119 C 189.738,265.099 187.543,267.115 185.311,269.131 L 185.311,269.131 z "
   style="fill:#ffff00;fill-rule:evenodd;stroke:#000000;stroke-width:0.036;stroke-miterlimit:10"
   id="path81" />
	<path
   d="M 210.511,157.747 C 200.935,167.143 194.851,175.675 191.683,183.883 C 188.587,191.947 189.199,199.111 191.971,206.347 C 194.706,213.475 199.999,220.315 207.991,226.867 L 207.991,226.867 C 215.336,213.799 219.26,203.683 219.763,195.943 C 220.159,188.239 212.311,187.123 210.799,180.787 C 209.286,174.379 209.143,166.747 210.511,157.747 L 210.511,157.747 z "
   style="fill:#ff8000;fill-rule:evenodd"
   id="path83" />
	<path
   d="M 166.698,182.479 C 160.254,187.483 157.122,194.359 157.158,203.251 C 157.158,212.107 163.53,226.759 166.986,235.543 C 170.406,244.291 173.718,250.807 177.355,255.487 L 177.355,255.487 C 165.834,240.979 158.203,228.955 154.063,218.983 C 149.851,209.083 150.499,201.919 152.659,195.942 C 154.818,189.859 159.354,185.323 166.698,182.479 L 166.698,182.479 z "
   style="fill:#ff8000;fill-rule:evenodd"
   id="path85" />
	<path
   d="M 152.946,147.091 C 146.43,154.183 141.75,162.463 138.618,172.363 C 135.45,182.227 132.93,192.991 134.406,205.771 C 135.882,218.443 140.13,232.303 147.294,247.927 L 147.294,247.927 C 136.638,232.736 129.906,219.055 126.522,205.771 C 123.174,192.451 123.606,180.103 127.386,169.267 C 131.13,158.431 142.218,151.303 148.698,141.475 C 155.07,131.503 160.506,121.387 165.294,110.299 L 165.294,110.299 C 165.222,117.535 164.286,124.051 162.198,130.243 C 160.074,136.435 157.086,141.871 152.946,147.091 L 152.946,147.091 z "
   style="fill:#ff8000;fill-rule:evenodd"
   id="path87" />
	<path
   d="M 133.254,12.127 C 137.034,20.731 138.582,29.155 138.042,37.687 C 137.358,46.183 130.194,50.719 129.618,62.959 C 129.042,75.163 130.59,90.571 134.406,110.155 L 134.406,110.155 C 145.998,87.619 152.982,69.871 155.754,55.939 C 158.454,42.007 154.35,34.591 150.678,27.283 C 146.79,19.939 141.21,14.935 133.254,12.127 L 133.254,12.127 z "
   style="fill-rule:evenodd;stroke:#000000;stroke-width:0.036;stroke-miterlimit:10"
   id="path89" />
	<path
   d="M 137.754,15.763 C 140.994,22.891 142.218,29.731 141.426,36.571 C 140.382,43.303 134.37,49.351 132.714,56.515 C 131.166,63.607 131.67,71.383 132.138,79.267 C 132.498,87.151 133.578,95.071 135.234,103.423 L 135.234,103.423 C 141.174,93.775 145.53,83.947 148.698,73.363 C 151.83,62.707 155.466,50.179 153.774,40.495 C 151.938,30.775 146.646,22.675 137.754,15.763 L 137.754,15.763 z "
   style="fill:#ffff00;fill-rule:evenodd;stroke:#000000;stroke-width:0.036;stroke-miterlimit:10"
   id="path91" />
	<path
   d="M 215.587,0.031 C 213.282,5.035 212.49,9.967 212.815,14.971 C 213.247,19.939 217.207,22.603 217.747,29.767 C 218.071,36.823 217.136,45.967 214.939,57.343 L 214.939,57.343 C 208.171,44.167 204.067,33.835 202.483,25.663 C 200.899,17.563 203.131,13.135 205.435,8.923 C 207.595,4.603 210.979,1.687 215.587,0.031 L 215.587,0.031 z "
   style="fill-rule:evenodd;stroke:#000000;stroke-width:0.036;stroke-miterlimit:10"
   id="path93" />
	<path
   d="M 212.994,2.191 C 210.942,6.331 210.402,10.327 210.835,14.323 C 211.339,18.247 214.939,21.811 215.946,25.987 C 216.846,30.163 216.45,34.591 216.27,39.271 C 216.018,43.915 215.37,48.451 214.47,53.419 L 214.47,53.419 C 211.014,47.767 208.386,42.007 206.586,35.851 C 204.714,29.623 202.482,22.243 203.634,16.627 C 204.751,10.939 207.738,6.223 212.994,2.191 L 212.994,2.191 z "
   style="fill:#ffff00;fill-rule:evenodd;stroke:#000000;stroke-width:0.036;stroke-miterlimit:10"
   id="path95" />
	<path
   d="M 138.078,286.123 C 135.234,288.427 133.362,292.639 134.262,297.643 C 135.234,302.396 140.742,314.852 143.838,314.887 C 146.898,314.852 151.254,302.719 152.478,297.643 C 153.486,292.387 152.982,286.196 150.534,284.215 C 148.086,282.307 140.742,283.783 138.078,286.123 L 138.078,286.123 z "
   style="fill-rule:evenodd;stroke:#000000;stroke-width:0.036;stroke-miterlimit:10"
   id="path97" />
	<path
   d="M 167.814,286.123 C 164.898,285.907 157.662,302.395 159.174,306.283 C 160.578,309.991 174.943,311.467 176.454,308.191 C 177.858,304.663 170.622,286.483 167.814,286.123 L 167.814,286.123 z "
   style="fill-rule:evenodd;stroke:#000000;stroke-width:0.036;stroke-miterlimit:10"
   id="path99" />
	<path
   d="M 255.078,236.263 C 250.434,238.82 249.102,248.143 252.198,251.599 C 255.438,254.912 269.694,258.871 274.266,256.387 C 278.694,253.652 282.186,239.719 279.054,236.263 C 275.671,232.951 259.578,233.599 255.078,236.263 L 255.078,236.263 z "
   style="fill-rule:evenodd;stroke:#000000;stroke-width:0.036;stroke-miterlimit:10"
   id="path101" />
	<path
   d="M 95.886,219.955 C 96.39,216.571 77.382,210.127 72.882,212.287 C 68.238,214.447 65.286,230.971 69.03,232.411 C 72.954,233.599 95.058,223.339 95.886,219.955 L 95.886,219.955 z "
   style="fill-rule:evenodd;stroke:#000000;stroke-width:0.036;stroke-miterlimit:10"
   id="path103" />
	<path
   d="M 99.738,228.595 C 96.426,227.911 85.374,231.079 86.31,232.411 C 87.318,233.671 103.05,236.803 105.462,236.263 C 107.694,235.507 102.87,229.243 99.738,228.595 L 99.738,228.595 z "
   style="fill-rule:evenodd;stroke:#000000;stroke-width:0.036;stroke-miterlimit:10"
   id="path105" />
	<path
   d="M 248.383,259.268 C 256.483,258.763 261.271,260.095 262.746,263.12 C 264.15,266.216 262.278,270.824 256.986,277.484 L 256.986,277.484 C 254.143,271.436 251.263,265.352 248.383,259.268 L 248.383,259.268 z "
   style="fill-rule:evenodd;stroke:#000000;stroke-width:0.036;stroke-miterlimit:10"
   id="path107" />
</g>
</svg>