<?xml version="1.0" encoding="UTF-8" standalone="no"?>
<!-- Created with Inkscape (http://www.inkscape.org/) -->
<svg
   xmlns:svg="http://www.w3.org/2000/svg"
   xmlns="http://www.w3.org/2000/svg"
   version="1.0"
   width="300"
   height="274"
   viewBox="0 0 469.093 429.446"
   id="Layer_1"
   xml:space="preserve"><defs
   id="defs244" />


<g
   id="g3">
	<path
   d="M 35.64,255.271 C 30.924,248.611 28.044,242.635 26.46,236.66 C 24.876,230.683 25.848,223.952 26.46,219.956 C 27.036,215.96 28.188,213.548 30.06,212.72 L 30.06,212.72 C 39.024,213.116 44.136,213.116 45.792,212.72 C 47.268,212.144 41.724,210.812 39.564,210.128 C 37.368,209.516 35.28,208.94 33.012,208.796 L 33.012,208.796 C 35.064,206.06 37.368,203.864 40.212,201.92 C 42.984,199.94 46.152,198.5 49.716,197.312 L 49.716,197.312 C 60.984,196.628 73.224,196.52 87.12,196.988 C 101.052,197.42 115.812,198.356 132.372,199.94 L 132.372,199.94 L 183.168,174.38 L 183.168,174.38 C 179.1,174.308 174.78,173.732 170.064,173.048 C 165.276,172.328 160.38,171.104 154.98,169.772 L 154.98,169.772 C 153.54,161.852 153.432,154.904 154.656,148.784 C 155.916,142.664 159.264,137.696 162.18,133.052 C 164.952,128.3 168.012,124.196 171.36,120.596 L 171.36,120.596 L 212.364,118.94 L 212.364,118.94 C 207.432,116.492 204.552,112.964 203.184,107.816 C 201.816,102.596 206.784,95.036 204.48,88.448 C 202.14,81.86 197.208,75.2 189.396,68.468 L 189.396,68.468 C 206.532,73.22 217.296,78.548 222.516,84.848 C 227.448,91.076 219.96,100.292 219.924,105.836 C 219.888,111.308 220.752,115.196 222.516,117.644 L 222.516,117.644 L 237.276,117.968 L 237.276,117.968 C 241.055,105.008 242.532,93.812 241.559,83.696 C 240.515,73.544 236.843,66.488 231.372,57.812 C 225.828,49.1 218.232,40.604 208.44,31.892 L 208.44,31.892 C 223.812,36.248 236.664,42.116 248.112,49.928 C 259.488,57.668 270.216,70.628 275.975,78.116 C 281.555,85.496 283.175,90.608 281.232,93.884 L 281.232,93.884 C 285.839,90.932 288.503,85.388 289.08,76.82 C 289.548,68.036 287.856,52.556 284.832,42.728 C 281.736,33.044 273.276,25.844 271.404,18.788 C 269.639,11.552 270.36,5.504 273.996,0.104 L 273.996,0.104 C 272.519,5.324 273.456,10.472 276.948,15.836 C 280.44,21.164 288.612,27.212 294.66,31.892 C 300.599,36.464 306.972,36.572 312.372,43.052 C 317.592,49.388 323.532,57.992 326.16,70.268 C 328.716,82.616 329.256,97.7 327.78,116.492 L 327.78,116.492 L 341.244,116.816 L 341.244,116.816 C 342.864,114.404 346.428,112.1 352.368,109.616 C 358.344,107.132 366.048,104.612 376.307,102.056 L 376.307,102.056 C 373.679,103.964 371.484,105.908 369.431,108.284 C 367.343,110.552 365.687,113.072 364.175,115.844 L 364.175,115.844 L 449.099,113.216 L 449.099,113.216 C 456.912,112.424 462.024,114.116 464.868,118.148 C 467.532,122.18 466.632,130.568 465.515,137.48 C 464.327,144.356 462.276,154.148 457.955,158.792 C 453.491,163.22 447.407,165.128 439.271,164.372 L 439.271,164.372 C 441.934,168.332 443.518,172.184 443.878,176.504 C 444.238,180.788 443.518,184.964 441.574,189.608 L 441.574,189.608 L 433.366,197.816 L 458.278,196.844 L 458.278,196.844 C 462.166,199.832 465.009,203.432 466.809,207.644 C 468.538,211.892 469.618,216.428 468.789,222.081 C 467.925,227.589 465.476,233.816 461.589,240.765 L 461.589,240.765 C 464.325,245.085 465.477,250.485 465.19,257.505 C 464.866,264.453 462.958,272.517 459.61,282.093 L 459.61,282.093 C 450.933,288.429 436.534,299.625 415.977,316.257 C 395.133,332.925 361.185,362.121 336.633,381.201 C 312.154,400.1 290.445,415.869 270.393,429.081 L 270.393,429.081 C 263.122,430.017 257.793,429.081 254.013,426.129 C 250.305,423.141 249.261,416.877 248.11,411.369 C 246.849,405.825 245.626,398.877 246.778,393.009 C 247.929,387.032 250.378,381.237 254.662,375.621 L 254.662,375.621 C 251.386,379.005 249.082,379.005 247.462,375.621 C 245.806,372.129 245.086,365.541 245.158,355.28 L 245.158,355.28 L 221.542,355.604 L 221.542,355.604 C 221.29,359.205 221.182,363.38 221.218,368.42 C 221.182,373.424 221.29,379.004 221.542,385.448 L 221.542,385.448 C 215.062,389.084 208.942,391.208 203.182,391.676 C 197.314,392.144 191.986,391.1 186.802,388.4 L 186.802,388.4 L 190.078,353.661 L 162.538,353.301 L 162.538,353.301 C 158.254,360.933 154.906,367.593 152.35,373.965 C 149.722,380.157 148.066,385.736 147.094,390.705 L 147.094,390.705 C 140.722,389.265 136.078,387.177 133.018,384.152 C 129.958,381.129 128.482,377.348 128.734,372.669 L 128.734,372.669 L 140.218,351.681 L 122.83,351.034 L 122.83,351.033 C 110.158,360.861 95.794,371.517 78.91,383.83 C 61.918,396.069 43.378,409.174 22.174,423.826 L 22.174,423.826 C 13.066,424.834 6.874,423.573 3.166,419.901 C -0.578,416.122 -0.074,409.137 0.214,401.865 C 0.358,394.45 0.718,384.765 4.786,376.269 C 8.89,367.737 15.514,359.421 24.802,351.033 L 24.802,351.033 L 15.946,350.349 L 15.946,350.349 C 13.534,347.001 11.878,343.293 10.69,339.225 C 9.54,334.939 9,330.08 9.071,325.76 C 8.999,321.44 8.495,316.724 11.015,313.952 C 13.499,311.107 17.927,309.523 24.155,309.056 L 24.155,309.056 C 22.031,305.816 21.311,301.928 21.851,297.248 C 22.391,292.424 24.623,286.195 27.431,281.191 C 30.095,276.151 34.667,271.111 38.231,267.727 C 41.759,264.379 45.215,262.147 48.743,261.175 L 48.743,261.175 L 55.943,255.595 L 55.943,255.595 C 49.175,255.488 42.407,255.38 35.64,255.271 L 35.64,255.271 z M 95.292,292.315 C 108.216,284.431 119.736,277.483 130.392,271.328 C 141.012,265.099 150.228,259.844 158.58,255.271 L 158.58,255.271 L 178.596,255.271 L 178.596,255.271 C 165.78,260.059 154.08,265.639 142.524,272.011 C 131.04,278.455 120.312,285.331 110.052,293.324 L 110.052,293.324 C 105.155,293 100.224,292.676 95.292,292.315 L 95.292,292.315 z M 340.235,166.424 C 339.947,172.904 340.415,178.448 341.243,183.452 C 342.035,188.42 343.583,192.452 345.491,195.944 L 345.491,195.944 L 363.527,195.584 L 363.527,195.584 C 373.211,187.7 381.094,181.328 387.466,175.928 C 393.766,170.528 398.266,166.424 401.254,163.472 L 401.254,163.472 C 386.782,165.2 374.722,166.244 364.498,166.748 C 354.167,167.216 346.355,167.108 340.235,166.424 L 340.235,166.424 z "
   style="fill-rule:evenodd;stroke:#000000;stroke-width:0.036;stroke-miterlimit:10"
   id="path5" />
	<path
   d="M 348.443,213.872 C 361.474,203.36 372.671,194.036 382.859,185.36 C 392.974,176.648 401.47,169.016 408.779,162.068 L 408.779,162.068 L 422.567,160.772 L 422.567,160.772 C 423.575,162.536 425.159,163.796 427.463,164.696 C 429.695,165.524 432.539,165.956 435.995,165.992 L 435.995,165.992 C 438.803,168.512 439.955,171.968 439.595,176.504 C 439.236,181.04 437.219,186.368 433.692,192.884 L 433.692,192.884 C 425.7,199.76 417.708,206.42 409.427,213.548 C 401.112,220.64 392.795,227.516 384.192,234.86 L 384.192,234.86 C 385.091,229.604 384.984,225.501 383.868,222.404 C 382.643,219.236 380.555,217.257 377.316,216.176 L 377.316,216.176 C 367.703,215.42 358.091,214.664 348.443,213.872 L 348.443,213.872 z "
   style="fill:#a16121;fill-rule:evenodd;stroke:#000000;stroke-width:0.036;stroke-miterlimit:10"
   id="path7" />
	<path
   d="M 383.543,242.42 C 388.403,237.668 394.451,232.16 402.227,225.356 C 409.931,218.552 418.824,210.884 429.444,202.064 L 429.444,202.064 L 451.404,201.092 L 451.404,201.092 C 445.356,208.4 441.143,216.068 438.624,224.384 C 436.068,232.664 435.348,241.304 436.32,250.592 L 436.32,250.592 C 424.116,251.456 413.675,252.32 404.172,252.896 C 394.704,253.436 386.748,253.976 379.908,254.228 L 379.908,254.228 C 380.988,251.348 381.96,248.936 382.536,246.993 C 383.075,244.976 383.507,243.5 383.543,242.42 L 383.543,242.42 z "
   style="fill:#a16121;fill-rule:evenodd;stroke:#000000;stroke-width:0.036;stroke-miterlimit:10"
   id="path9" />
	<path
   d="M 408.131,257 L 438.623,254.552 L 438.623,254.552 C 441.071,256.712 443.23,257.54 445.499,257.18 C 447.623,256.712 449.423,254.372 451.727,252.248 C 453.996,250.124 456.515,247.603 459.288,244.687 L 459.288,244.687 C 460.116,249.475 460.224,254.731 459.612,260.456 C 458.856,266.107 457.559,272.227 455.328,278.815 L 455.328,278.815 C 452.124,281.047 442.656,288.572 426.492,301.927 C 410.147,315.355 380.988,339.979 358.596,358.303 C 336.168,376.483 314.64,393.439 293.04,410.143 L 293.04,410.143 C 297.108,403.519 299.592,397.039 300.888,390.127 C 302.04,383.179 302.148,374.935 300.241,369.139 C 298.188,363.271 294.409,358.807 288.757,355.351 L 288.757,355.351 C 298.873,355.496 309.241,355.171 320.257,354.379 C 331.237,353.551 342.469,352.291 354.349,350.455 L 354.349,350.455 C 360.326,348.835 365.149,345.919 369.11,341.274 C 372.962,336.594 376.13,329.97 377.641,322.915 C 378.973,315.679 379.297,304.411 377.641,298.975 C 375.913,293.503 372.565,290.948 367.453,290.767 L 367.453,290.767 C 377.677,282.631 385.777,276.007 392.041,270.751 C 398.233,265.387 402.301,261.751 404.533,259.303 L 404.533,259.303 L 408.131,257 L 408.131,257 z "
   style="fill:#a16121;fill-rule:evenodd;stroke:#000000;stroke-width:0.036;stroke-miterlimit:10"
   id="path11" />
	<path
   d="M 351.719,268.808 C 343.475,276.621 334.799,285.224 325.152,295.016 C 315.467,304.844 305.387,315.285 294.336,327.164 L 294.336,327.164 C 296.316,314.924 295.884,305.6 293.04,298.651 C 290.16,291.775 285.012,287.456 277.308,285.836 L 277.308,285.836 L 308.449,261.248 L 308.449,261.248 C 318.096,262.147 326.377,263.191 333.684,264.523 C 340.955,265.819 346.823,267.151 351.719,268.808 L 351.719,268.808 z "
   style="fill:#a16121;fill-rule:evenodd;stroke:#000000;stroke-width:0.036;stroke-miterlimit:10"
   id="path13" />
	<path
   d="M 374.687,267.476 L 379.583,276.332 L 370.727,282.884 L 362.879,269.78 L 362.879,269.78 C 365.543,270.14 367.703,270.14 369.755,269.78 C 371.771,269.42 373.283,268.556 374.687,267.476 L 374.687,267.476 z "
   style="fill:#a16121;fill-rule:evenodd;stroke:#000000;stroke-width:0.036;stroke-miterlimit:10"
   id="path15" />
	<path
   d="M 380.267,241.268 C 380.952,236.768 382.247,229.568 381.24,226.184 C 379.944,222.8 376.668,220.172 373.356,220.928 C 370.043,221.648 364.536,226.148 361.547,230.108 C 358.379,233.924 356.291,238.568 354.995,243.896 C 353.627,249.188 352.151,257.864 354.023,261.573 C 355.93,265.136 362.483,266.577 366.478,265.209 C 370.403,263.625 374.939,256.785 377.315,252.753 C 379.511,248.684 379.655,245.731 380.267,241.268 L 380.267,241.268 z "
   style="fill:#a16121;fill-rule:evenodd;stroke:#000000;stroke-width:0.036;stroke-miterlimit:10"
   id="path17" />
	<path
   d="M 454.679,202.568 C 451.871,203.828 449.099,208.688 446.507,214.376 C 443.915,220.064 440.459,230.072 439.595,236.336 C 438.659,242.492 439.163,249.403 441.251,251.096 C 443.267,252.608 447.73,250.016 451.727,245.84 C 455.759,241.52 462.959,232.447 464.868,225.86 C 466.452,219.129 464.004,210.452 462.24,206.492 C 460.439,202.532 457.271,201.272 454.679,202.568 L 454.679,202.568 z "
   style="fill:#a16121;fill-rule:evenodd;stroke:#000000;stroke-width:0.036;stroke-miterlimit:10"
   id="path19" />
	<path
   d="M 364.175,294.691 C 360.575,296.456 353.015,301.315 349.415,306.5 C 345.851,311.504 343.295,318.92 342.863,324.859 C 342.215,330.727 343.259,338.431 346.138,341.599 C 349.054,344.66 355.894,345.667 360.25,343.219 C 364.606,340.555 369.178,332.671 371.734,326.515 C 374.038,320.431 374.973,311.791 374.685,306.824 C 374.362,301.676 371.805,298.363 370.078,296.347 C 368.315,294.26 367.595,292.964 364.175,294.691 L 364.175,294.691 z "
   style="fill:#a16121;fill-rule:evenodd;stroke:#000000;stroke-width:0.036;stroke-miterlimit:10"
   id="path21" />
	<path
   d="M 333.359,295.376 L 355.642,294.691 L 355.642,294.691 C 350.243,298.687 346.031,303.151 342.863,308.479 C 339.623,313.7 336.383,319.784 336.634,326.191 C 336.922,332.635 339.262,339.187 344.195,346.531 L 344.195,346.531 C 323.207,348.691 300.382,349.844 274.355,350.132 C 248.291,350.384 215.207,348.8 189.395,348.152 C 163.583,347.432 149.255,346.173 120.563,346.173 C 91.619,346.101 58.103,346.605 17.927,347.829 L 17.927,347.829 C 14.039,341.961 11.987,336.633 11.339,331.449 C 10.727,326.121 11.663,320.469 14.291,317.012 C 16.811,313.664 20.807,311.756 26.423,311.432 L 26.423,311.432 C 28.331,315.285 30.743,318.453 33.659,320.936 C 36.575,323.384 39.959,325.976 43.811,326.192 C 47.519,326.3 47.627,326.768 55.943,321.909 C 64.259,316.94 76.283,308.625 92.987,296.673 L 92.987,296.673 C 116.387,297.177 141.767,297.177 170.387,296.673 C 198.971,296.097 229.391,295.053 263.195,293.397 L 263.195,293.397 C 257.075,298.582 253.295,304.414 251.711,311.433 C 250.199,318.381 251.135,328.929 253.691,334.725 C 256.138,340.341 261.539,343.473 266.146,345.525 C 270.646,347.505 275.47,348.118 280.222,346.533 C 284.867,344.697 288.43,340.378 293.686,335.374 C 298.691,330.298 304.487,323.71 311.075,317.014 C 317.771,310.208 325.007,303.224 333.359,295.376 L 333.359,295.376 z "
   style="fill:#a16121;fill-rule:evenodd;stroke:#000000;stroke-width:0.036;stroke-miterlimit:10"
   id="path23" />
	<path
   d="M 193.68,353.731 L 216.612,355.711 L 216.612,355.711 C 215.82,361.471 215.496,366.511 215.64,371.119 C 215.676,375.69 216.36,379.579 217.296,382.927 L 217.296,382.927 C 206.388,385.339 198.828,386.491 194.328,386.527 C 189.864,386.456 190.404,386.275 190.404,382.927 C 190.332,379.363 192.996,371.479 193.68,366.511 C 194.184,361.58 194.184,357.368 193.68,353.731 L 193.68,353.731 z "
   style="fill:#a16121;fill-rule:evenodd;stroke:#000000;stroke-width:0.036;stroke-miterlimit:10"
   id="path25" />
	<path
   d="M 249.731,354.704 C 249.335,360.859 249.695,365.395 250.415,368.168 C 251.099,370.976 252.539,372.02 254.339,371.443 L 254.339,371.443 C 256.463,368.311 258.732,365.359 261.539,362.588 C 264.239,359.779 267.299,357.151 270.719,354.704 L 270.719,354.704 C 263.735,354.704 256.751,354.704 249.731,354.704 L 249.731,354.704 z "
   style="fill:#a16121;fill-rule:evenodd;stroke:#000000;stroke-width:0.036;stroke-miterlimit:10"
   id="path27" />
	<path
   d="M 144.144,351.752 L 157.608,352.76 L 157.608,352.76 C 154.26,358.412 151.416,363.668 149.076,368.816 C 146.664,373.928 144.9,378.644 143.496,383.253 L 143.496,383.253 C 140.472,381.488 138.312,379.725 136.62,377.673 C 134.928,375.585 133.992,373.497 133.668,371.121 L 133.668,371.121 C 137.16,364.676 140.651,358.231 144.144,351.752 L 144.144,351.752 z "
   style="fill:#a16121;fill-rule:evenodd;stroke:#000000;stroke-width:0.036;stroke-miterlimit:10"
   id="path29" />
	<path
   d="M 268.451,363.56 C 263.951,367.232 260.279,373.316 257.291,379.292 C 254.231,385.195 250.415,391.604 250.415,398.66 C 250.379,405.571 253.403,416.408 256.967,420.62 C 260.351,424.724 265.139,426.019 271.043,423.248 C 276.947,420.224 287.783,411.943 292.031,403.556 C 296.098,395.096 297.035,381.056 295.667,373.388 C 294.083,365.576 288.143,359.312 283.535,357.657 C 278.819,356.036 272.915,359.852 268.451,363.56 L 268.451,363.56 z "
   style="fill:#a16121;fill-rule:evenodd;stroke:#000000;stroke-width:0.036;stroke-miterlimit:10"
   id="path31" />
	<path
   d="M 120.563,291.74 C 133.415,284.143 145.223,277.376 156.275,271.435 C 167.327,265.423 177.191,260.383 186.443,256.027 L 186.443,256.027 C 180.971,265.172 176.435,272.66 172.691,278.635 C 168.911,284.611 165.959,288.931 163.835,291.739 L 163.835,291.739 C 149.436,291.74 135,291.74 120.563,291.74 L 120.563,291.74 z "
   style="fill:#a16121;fill-rule:evenodd;stroke:#000000;stroke-width:0.036;stroke-miterlimit:10"
   id="path33" />
	<path
   d="M 193.68,254.372 C 189.396,260.851 185.58,267.187 181.548,273.38 C 177.48,279.536 173.88,285.548 170.064,291.416 L 170.064,291.416 L 188.1,291.416 L 188.1,291.416 C 191.988,283.532 195.48,276.476 198.576,270.103 C 201.6,263.66 204.228,258.08 206.46,253.076 L 206.46,253.076 C 202.211,253.508 197.963,253.939 193.68,254.372 L 193.68,254.372 z "
   style="fill:#a16121;fill-rule:evenodd;stroke:#000000;stroke-width:0.036;stroke-miterlimit:10"
   id="path35" />
	<path
   d="M 203.507,290.768 C 205.847,286.088 208.367,280.869 211.067,274.712 C 213.767,268.556 216.503,261.716 219.563,254.048 L 219.563,254.048 L 237.598,253.724 L 237.598,253.724 C 233.315,263.732 229.823,271.436 227.123,277.664 C 224.315,283.748 222.479,287.852 221.219,290.12 L 221.219,290.12 C 215.315,290.336 209.412,290.552 203.507,290.768 L 203.507,290.768 z "
   style="fill:#a16121;fill-rule:evenodd;stroke:#000000;stroke-width:0.036;stroke-miterlimit:10"
   id="path37" />
	<path
   d="M 276.947,257.324 L 256.319,256.027 L 256.319,256.027 C 256.355,262.219 256.463,267.908 256.642,273.38 C 256.787,278.816 257.002,283.748 257.29,288.464 L 257.29,288.464 L 265.498,289.148 L 265.498,289.148 C 266.182,287.96 267.55,286.88 269.746,285.512 C 271.87,284.144 274.714,282.776 278.278,281.264 L 278.278,281.264 C 277.847,273.308 277.415,265.315 276.947,257.324 L 276.947,257.324 z "
   style="fill:#a16121;fill-rule:evenodd;stroke:#000000;stroke-width:0.036;stroke-miterlimit:10"
   id="path39" />
	<path
   d="M 262.187,207.644 C 263.771,204.404 265.391,200.516 267.444,195.836 C 269.46,191.12 271.511,185.864 273.996,179.78 L 273.996,179.78 C 275.904,182.48 277.74,183.848 279.9,184.028 C 282.024,184.172 284.076,183.128 286.452,180.752 L 286.452,180.752 C 284.652,187.988 283.391,193.928 282.528,199.112 C 281.628,204.224 281.196,208.22 281.232,211.244 L 281.232,211.244 C 274.895,210.056 268.559,208.868 262.187,207.644 L 262.187,207.644 z "
   style="fill:#a16121;fill-rule:evenodd;stroke:#000000;stroke-width:0.036;stroke-miterlimit:10"
   id="path41" />
	<path
   d="M 214.667,204.692 C 215.171,204.584 218.951,200.696 226.151,192.884 C 233.387,185 243.646,173.444 257.615,157.82 L 257.615,157.82 C 258.514,161.492 259.739,164.444 260.89,166.676 C 262.006,168.872 263.447,170.24 264.815,170.924 L 264.815,170.924 L 239.579,206.024 L 239.579,206.024 C 231.299,205.592 222.983,205.16 214.667,204.692 L 214.667,204.692 z "
   style="fill:#a16121;fill-rule:evenodd;stroke:#000000;stroke-width:0.036;stroke-miterlimit:10"
   id="path43" />
	<path
   d="M 244.835,205.34 L 262.187,182.732 L 262.187,182.732 C 264.887,181.472 266.471,181.688 266.795,183.38 C 267.083,185.072 266.111,188.708 264.167,192.884 C 262.151,197.024 259.091,201.956 254.987,207.968 L 254.987,207.968 C 251.603,207.104 248.219,206.24 244.835,205.34 L 244.835,205.34 z "
   style="fill:#a16121;fill-rule:evenodd;stroke:#000000;stroke-width:0.036;stroke-miterlimit:10"
   id="path45" />
	<path
   d="M 51.372,203.396 C 78.408,204.044 105.12,205.016 133.02,206.024 C 160.92,206.924 192.096,208.076 216.972,209.624 C 241.667,211.136 260.423,213.692 279.9,215.204 C 299.267,216.536 317.628,217.328 332.063,218.156 C 346.32,218.983 357.011,219.74 364.824,220.424 L 364.824,220.424 C 359.028,224.672 354.816,229.172 352.044,234.212 C 349.164,239.18 348.552,245.228 348.12,250.268 C 347.652,255.272 348.084,259.772 349.416,264.056 L 349.416,264.056 C 313.992,257.216 280.979,252.752 248.436,250.268 C 215.929,247.712 191.449,249.152 155.953,249.296 C 120.313,249.332 81.181,250.016 36.613,250.952 L 36.613,250.952 C 32.617,244.687 30.241,238.784 29.053,233.24 C 27.901,227.624 28.081,222.368 29.737,217.471 L 29.737,217.471 C 37.405,216.355 43.057,215.599 47.089,215.203 C 50.977,214.734 53.101,214.627 53.317,214.879 L 53.317,214.879 L 40.537,206.995 L 40.537,206.995 C 41.113,205.339 42.265,204.295 44.137,203.719 C 45.936,203.108 48.348,203 51.372,203.396 L 51.372,203.396 z "
   style="fill:#a16121;fill-rule:evenodd;stroke:#000000;stroke-width:0.036;stroke-miterlimit:10"
   id="path47" />
	<path
   d="M 45.792,266.359 C 41.076,267.403 38.268,271.363 35.28,275.863 C 32.148,280.219 28.188,286.34 27.432,292.567 C 26.604,298.723 27.54,308.227 30.384,312.908 C 33.228,317.408 39.708,319.676 44.136,320.107 C 48.492,320.576 52.164,320.54 56.268,315.536 C 60.3,310.208 66.78,297.355 68.076,289.616 C 69.12,281.731 66.888,273.632 63.18,269.636 C 59.255,265.784 50.543,265.208 45.792,266.359 L 45.792,266.359 z "
   style="fill:#a16121;fill-rule:evenodd;stroke:#000000;stroke-width:0.036;stroke-miterlimit:10"
   id="path49" />
	<path
   d="M 56.268,260.132 C 60.516,260.24 63.756,261.716 66.132,264.704 C 68.4,267.656 69.264,273.416 70.38,277.808 C 71.46,282.056 73.476,284.829 72.684,290.3 C 71.712,295.7 69.336,302.36 65.124,310.279 L 65.124,310.279 C 73.548,301.603 84.528,292.639 98.892,283.387 C 113.22,273.919 130.104,264.631 150.372,254.551 L 150.372,254.551 C 135.18,254.839 120.6,255.055 105.804,255.199 C 90.972,255.27 76.86,255.27 62.496,255.199 L 62.496,255.199 C 60.443,256.819 58.355,258.476 56.268,260.132 L 56.268,260.132 z "
   style="fill:#a16121;fill-rule:evenodd;stroke:#000000;stroke-width:0.036;stroke-miterlimit:10"
   id="path51" />
	<path
   d="M 44.459,352.436 C 47.339,353.3 49.643,355.208 51.371,358.304 C 53.099,361.328 54.611,366.332 54.647,370.796 C 54.503,375.151 53.675,378.536 51.047,384.548 C 48.383,390.487 44.387,397.76 38.915,406.508 L 38.915,406.508 C 53.423,394.916 66.851,384.764 79.883,375.368 C 92.915,366.008 104.723,357.943 116.279,350.779 L 116.279,350.779 C 99.467,351.139 85.427,351.464 73.331,351.752 C 61.308,351.968 51.731,352.292 44.459,352.436 L 44.459,352.436 z "
   style="fill:#a16121;fill-rule:evenodd;stroke:#000000;stroke-width:0.036;stroke-miterlimit:10"
   id="path53" />
	<path
   d="M 27.107,358.304 C 22.607,360.608 17.783,365.325 14.291,370.796 C 10.691,376.195 7.919,383.972 6.119,390.775 C 4.247,397.544 2.735,406.363 3.815,411.116 C 4.895,415.723 8.171,418.748 12.671,418.639 C 17.027,418.423 24.299,415.723 30.059,410.143 C 35.711,404.383 43.595,392.576 46.763,384.872 C 49.715,376.987 49.427,368.6 48.419,363.884 C 47.267,359.24 44.423,357.872 40.859,357.008 C 37.224,356 31.571,355.964 27.107,358.304 L 27.107,358.304 z "
   style="fill:#a16121;fill-rule:evenodd;stroke:#000000;stroke-width:0.036;stroke-miterlimit:10"
   id="path55" />
	<path
   d="M 144.144,199.22 L 188.424,174.956 L 197.928,173.948 L 197.928,173.948 C 195.3,176.864 193.824,180.032 193.356,183.452 C 192.888,186.836 193.608,191.048 194.976,194.288 C 196.272,197.42 198.144,200.156 200.88,202.496 L 200.88,202.496 C 181.979,201.416 163.08,200.336 144.144,199.22 L 144.144,199.22 z "
   style="fill:#a16121;fill-rule:evenodd;stroke:#000000;stroke-width:0.036;stroke-miterlimit:10"
   id="path57" />
	<path
   d="M 260.567,158.072 C 260.279,160.952 260.602,163.22 261.539,165.272 C 262.511,167.288 263.951,168.692 266.146,169.88 L 266.146,169.88 C 268.63,166.748 269.783,164.012 269.747,161.672 C 269.602,159.188 267.371,156.38 265.823,155.768 C 264.203,155.156 262.583,155.876 260.567,158.072 L 260.567,158.072 z "
   style="fill:#a16121;fill-rule:evenodd;stroke:#000000;stroke-width:0.036;stroke-miterlimit:10"
   id="path59" />
	<path
   d="M 276.623,175.1 C 278.243,173.192 279.791,172.256 281.555,172.148 C 283.284,172.04 284.94,172.76 286.811,174.452 L 286.811,174.452 C 286.236,178.016 285.299,180.212 283.86,181.328 C 282.347,182.336 279.467,181.616 278.28,180.68 C 277.127,179.564 276.443,177.8 276.623,175.1 L 276.623,175.1 z "
   style="fill:#a16121;fill-rule:evenodd;stroke:#000000;stroke-width:0.036;stroke-miterlimit:10"
   id="path61" />
	<path
   d="M 289.763,162.32 C 294.839,170.384 299.843,178.484 305.171,186.908 C 310.463,195.296 315.683,203.684 321.227,212.504 L 321.227,212.504 L 337.967,212.504 L 337.967,212.504 C 329.759,198.356 322.919,186.476 317.303,176.432 C 311.615,166.28 307.331,158.576 304.163,152.492 L 304.163,152.492 C 302.543,154.832 300.707,156.668 298.259,158.396 C 295.775,160.052 293.075,161.312 289.763,162.32 L 289.763,162.32 z "
   style="fill:#a16121;fill-rule:evenodd;stroke:#000000;stroke-width:0.036;stroke-miterlimit:10"
   id="path63" />
	<path
   d="M 290.087,158.72 C 288.647,158.864 287.495,159.26 287.459,157.388 C 287.315,155.264 287.639,149.18 289.403,146.912 C 291.131,144.572 295.667,143.456 297.611,143.96 C 299.375,144.464 300.527,147.596 300.239,149.864 C 299.843,152.096 297.394,155.084 295.667,156.74 C 293.795,158.144 291.563,158.576 290.087,158.72 L 290.087,158.72 z "
   style="fill:#a16121;fill-rule:evenodd;stroke:#000000;stroke-width:0.036;stroke-miterlimit:10"
   id="path65" />
	<path
   d="M 335.015,174.776 C 335.375,179.996 336.528,185.684 338.616,191.84 C 340.632,197.924 343.475,204.476 347.147,211.496 L 347.147,211.496 L 339.587,210.848 L 339.587,210.848 C 335.483,201.344 331.631,193.028 327.455,185.612 C 323.243,178.052 318.815,173.372 314.999,166.568 C 311.146,159.728 307.655,152.816 304.523,145.256 L 304.523,145.256 C 302.363,142.376 299.842,141.008 296.962,141.008 C 294.046,140.936 289.294,142.952 287.134,145.256 C 284.903,147.416 283.75,151.628 283.534,154.436 C 283.174,157.208 283.714,159.728 285.154,161.996 L 285.154,161.996 C 286.09,163.076 288.862,167.648 294.009,176.108 C 299.049,184.532 306.106,196.412 315.322,212.18 L 315.322,212.18 L 285.801,209.876 L 285.801,209.876 C 286.341,201.416 287.097,194.36 287.781,188.564 C 288.428,182.696 289.293,178.34 290.085,175.1 L 290.085,175.1 C 287.097,172.256 284.469,170.348 282.201,169.52 C 279.897,168.656 278.205,167.9 276.297,169.88 C 274.245,171.716 272.409,175.316 270.393,180.68 L 270.393,180.68 C 270.213,179.528 269.566,178.628 268.45,178.376 C 267.118,178.088 264.454,178.52 263.517,178.7 C 262.69,178.736 262.69,178.736 263.517,178.7 L 263.517,178.7 L 272.698,164.948 L 272.698,164.948 C 271.618,160.232 270.106,156.848 267.765,154.796 C 265.425,152.672 262.473,151.952 258.91,152.492 L 258.91,152.492 C 256.786,153.788 251.746,158.576 243.502,167.252 C 235.15,175.964 224.17,187.88 209.734,203.972 L 209.734,203.972 L 203.506,202.964 L 203.506,202.964 C 200.23,196.304 198.322,190.832 197.926,186.26 C 197.53,181.724 199.114,179.24 200.878,175.748 C 202.462,172.184 206.314,168.62 207.43,164.624 C 208.438,160.34 208.15,155.048 207.106,150.836 C 205.882,146.66 203.794,142.952 200.554,139.712 L 200.554,139.712 C 204.622,143.564 208.834,145.904 213.334,146.588 C 217.798,147.2 222.442,147.524 227.122,143.96 C 231.622,140.252 237.526,133.052 240.549,125.276 C 243.465,117.356 244.905,107.384 245.157,97.736 C 245.409,87.98 245.445,77.216 242.205,68.216 C 238.713,59.18 229.569,49.64 225.465,44.6 C 221.469,39.632 219.021,37.508 218.265,38.372 L 218.265,38.372 C 227.301,42.512 235.724,47.228 243.825,52.808 C 251.961,58.244 260.673,64.976 266.469,71.492 C 272.049,78.044 275.289,85.1 277.305,91.832 C 279.106,98.42 278.854,104.36 277.953,111.164 C 276.945,117.968 274.965,124.772 271.724,132.152 L 271.724,132.152 C 274.317,132.296 276.405,129.848 278.277,124.268 C 280.113,118.58 281.481,110.444 282.525,99.032 L 282.525,99.032 C 286.844,95.936 290.012,91.94 292.029,86.9 C 294.008,81.788 294.729,75.92 294.333,68.864 C 293.757,61.628 292.173,52.52 289.437,44.6 C 286.737,36.68 283.065,29.336 278.277,21.992 L 278.277,21.992 C 283.713,28.724 289.184,34.304 294.981,39.02 C 300.741,43.628 307.941,44.276 312.693,49.856 C 317.337,55.436 320.468,62.96 322.521,72.14 C 324.464,81.284 324.321,94.676 324.176,103.964 C 323.817,113.036 322.88,120.056 321.224,126.572 C 319.496,132.944 314.996,137.48 314.672,142.664 C 314.348,147.812 315.824,152.672 319.244,157.388 L 319.244,157.388 C 317.696,150.98 317.264,145.868 317.948,141.656 C 318.668,137.552 320.288,135.464 323.204,132.476 C 325.975,129.344 329.792,126.176 334.652,122.972 L 334.652,122.972 C 338.143,121.028 342.427,118.976 347.792,116.42 C 353.084,113.864 359.313,111.02 366.476,107.888 L 366.476,107.888 C 361.149,109.724 356.037,114.188 350.745,121.676 C 345.381,129.128 337.641,143.132 335.013,152.168 C 332.351,161.024 332.351,168.512 335.015,174.776 L 335.015,174.776 z "
   style="fill:#ffff00;fill-rule:evenodd;stroke:#000000;stroke-width:0.036;stroke-miterlimit:10"
   id="path67" />
	<path
   d="M 328.427,118.364 L 336.311,118.724 L 336.311,118.724 C 333.828,119.948 331.667,121.316 329.435,122.972 C 327.167,124.592 325.223,126.248 323.207,128.228 L 323.207,128.228 C 324.935,124.952 326.663,121.676 328.427,118.364 L 328.427,118.364 z "
   style="fill:#a16121;fill-rule:evenodd;stroke:#000000;stroke-width:0.036;stroke-miterlimit:10"
   id="path69" />
	<path
   d="M 361.907,118.364 C 359.459,119.3 356.831,121.604 354.023,125.276 C 351.035,129.056 347.182,133.952 344.842,140.36 C 342.466,146.588 341.062,153.968 340.235,162.644 L 340.235,162.644 C 347.903,162.464 358.235,161.924 372.058,161.024 C 385.882,160.016 402.226,158.792 422.206,157.064 L 422.206,157.064 C 421.45,147.704 422.278,139.856 424.834,133.124 C 427.354,126.392 431.458,121.172 437.29,117.068 L 437.29,117.068 C 425.914,118.4 414.286,119.12 401.578,119.372 C 388.871,119.552 375.875,119.264 361.907,118.364 L 361.907,118.364 z "
   style="fill:#a16121;fill-rule:evenodd;stroke:#000000;stroke-width:0.036;stroke-miterlimit:10"
   id="path71" />
	<path
   d="M 236.303,120.344 L 223.524,120.668 L 226.152,128.552 L 226.152,128.552 C 222.156,127.292 219.096,125.96 216.972,124.952 C 214.776,123.908 213.66,122.792 213.336,122 L 213.336,122 C 205.74,122.9 198.828,123.548 192.024,123.944 C 185.292,124.304 178.956,124.412 173.016,124.268 L 173.016,124.268 C 168.408,129.704 164.916,135.392 162.54,141.332 C 160.128,147.2 158.904,155.444 158.58,159.692 C 158.184,163.796 158.688,166.028 160.236,166.244 L 160.236,166.244 C 162.972,168.692 167.616,170.168 174.312,170.528 C 181.044,170.888 189.504,170.276 200.232,168.548 L 200.232,168.548 C 201.42,164.66 202.032,160.88 202.212,157.064 C 202.392,153.176 202.284,149.18 201.204,145.616 C 199.908,141.98 197.964,138.632 194.976,135.428 L 194.976,135.428 C 197.748,137.12 201.204,138.416 205.488,139.712 C 209.808,140.936 215.424,143.816 220.248,142.664 C 224.856,141.296 230.652,135.896 233.352,132.152 C 236.051,128.3 236.987,124.592 236.303,120.344 L 236.303,120.344 z "
   style="fill:#a16121;fill-rule:evenodd;stroke:#000000;stroke-width:0.036;stroke-miterlimit:10"
   id="path73" />
	<path
   d="M 221.219,120.992 C 219.023,119.12 217.655,116.348 216.971,112.82 C 216.179,109.184 216.359,103.604 216.971,99.68 C 217.547,95.792 221.291,92.444 220.571,89.204 C 219.635,85.748 215.495,81.824 212.039,79.376 C 208.511,76.856 204.407,75.308 199.583,74.444 L 199.583,74.444 C 204.083,78.8 206.747,82.832 208.115,87.224 C 209.231,91.616 207.143,96.008 207.107,100.004 C 207.035,103.748 205.703,106.34 208.115,109.868 C 210.456,113.324 214.775,117.032 221.219,120.992 L 221.219,120.992 z "
   style="fill:#ffff00;fill-rule:evenodd;stroke:#000000;stroke-width:0.036;stroke-miterlimit:10"
   id="path75" />
	<path
   d="M 336.959,108.212 C 333.215,105.512 331.955,101.408 333.035,95.756 C 334.186,90.032 342.215,81.212 343.511,74.444 C 344.555,67.748 342.935,61.916 339.911,55.436 C 336.923,48.704 332.062,42.008 325.474,34.772 L 325.474,34.772 C 341.206,42.224 351.43,49.136 356.974,56.085 C 362.338,62.817 359.926,69.693 357.947,75.741 C 355.787,81.609 348.371,86.757 344.843,92.157 C 341.315,97.592 338.687,102.848 336.959,108.212 L 336.959,108.212 z "
   style="fill-rule:evenodd;stroke:#000000;stroke-width:0.036;stroke-miterlimit:10"
   id="path77" />
	<path
   d="M 335.663,101.012 C 334.763,98.852 335.303,95.792 337.283,91.832 C 339.191,87.692 346.102,82.58 347.471,77.072 C 348.623,71.456 347.255,64.796 345.167,59.036 C 343.115,53.276 339.839,47.804 335.339,42.62 L 335.339,42.62 C 341.927,46.976 346.823,50.684 350.423,54.428 C 353.879,58.064 356.075,60.188 356.327,64.292 C 356.507,68.432 353.951,73.724 351.719,78.368 C 349.343,82.832 345.563,86.936 342.864,90.824 C 340.127,94.676 337.823,97.88 335.663,101.012 L 335.663,101.012 z "
   style="fill:#ffff00;fill-rule:evenodd;stroke:#000000;stroke-width:0.036;stroke-miterlimit:10"
   id="path79" />
	<path
   d="M 249.083,135.428 C 251.999,130.676 254.087,124.736 255.635,117.068 C 257.075,109.256 258.623,97.916 257.94,89.852 C 257.255,81.824 255.024,74.984 251.387,69.188 L 251.387,69.188 C 260.495,84.884 266.291,97.736 268.776,108.86 C 271.187,119.912 269.387,130.172 266.147,134.78 C 262.763,139.172 257.219,139.388 249.083,135.428 L 249.083,135.428 z "
   style="fill:#ff8000;fill-rule:evenodd"
   id="path81" />
	<path
   d="M 305.495,65.588 C 312.226,71.528 316.115,78.368 317.303,86.252 C 318.347,94.1 316.656,105.116 312.371,112.496 C 308.051,119.732 301.211,125.276 291.707,129.524 L 291.707,129.524 C 297.899,121.064 302.219,111.74 304.523,101.012 C 306.827,90.248 307.151,78.62 305.495,65.588 L 305.495,65.588 z "
   style="fill:#ff8000;fill-rule:evenodd"
   id="path83" />
	<path
   d="M 338.615,129.848 C 337.283,130.676 335.951,132.296 334.331,135.104 C 332.639,137.84 329.975,140.216 329.111,146.264 C 328.211,152.348 328.211,160.268 329.111,170.852 L 329.111,170.852 C 323.098,161.456 320.903,153.464 322.523,146.588 C 324.071,139.64 329.435,134.204 338.615,129.848 L 338.615,129.848 z "
   style="fill:#ff8000;fill-rule:evenodd"
   id="path85" />
	<path
   d="M 239.903,146.588 C 237.959,153.176 235.583,159.296 232.379,164.948 C 229.067,170.672 224.819,177.476 220.895,180.356 C 216.935,183.092 213.335,183.416 209.411,181.328 L 209.411,181.328 C 216.431,175.28 222.263,169.376 227.447,163.616 C 232.56,157.748 236.663,152.204 239.903,146.588 L 239.903,146.588 z "
   style="fill:#ff8000;fill-rule:evenodd"
   id="path87" />
	<path
   d="M 117.936,364.64 C 115.92,363.776 112.392,368.024 109.728,370.869 C 107.028,373.532 101.16,378.537 101.844,381.02 C 102.528,383.468 110.988,383.108 113.328,385.628 C 115.488,388.076 111.6,394.7 114.984,395.779 C 118.332,396.679 132.228,394.807 133.344,391.531 C 134.352,388.219 123.732,380.588 121.212,376.124 C 118.583,371.479 119.808,365.576 117.936,364.64 L 117.936,364.64 z "
   style="fill-rule:evenodd;stroke:#000000;stroke-width:0.036;stroke-miterlimit:10"
   id="path89" />
	<path
   d="M 166.788,376.448 C 163.224,376.987 160.74,380.3 161.856,384.296 C 162.972,388.292 170.244,398.408 173.664,400.064 C 177.084,401.577 180.576,396.608 182.196,393.476 C 183.636,390.164 185.04,383.54 182.52,380.696 C 179.892,377.815 170.244,375.8 166.788,376.448 L 166.788,376.448 z "
   style="fill-rule:evenodd;stroke:#000000;stroke-width:0.036;stroke-miterlimit:10"
   id="path91" />
	<path
   d="M 210.06,399.38 C 208.08,402.188 211.536,411.728 214.992,414.788 C 218.448,417.848 227.016,418.855 230.4,417.416 C 233.748,415.687 235.116,408.596 234.648,405.284 C 234,401.935 230.868,398.731 226.8,397.76 C 222.587,396.644 212.003,396.536 210.06,399.38 L 210.06,399.38 z "
   style="fill-rule:evenodd;stroke:#000000;stroke-width:0.036;stroke-miterlimit:10"
   id="path93" />
	<path
   d="M 231.047,383.647 C 231.227,386.204 233.351,385.412 235.331,384.62 C 237.239,383.828 242.602,381.704 242.531,379.076 C 242.243,376.376 236.266,367.735 234.323,368.563 C 232.343,369.428 230.832,380.804 231.047,383.647 L 231.047,383.647 z "
   style="fill-rule:evenodd;stroke:#000000;stroke-width:0.036;stroke-miterlimit:10"
   id="path95" />
	<path
   d="M 441.863,118.4 C 438.443,120.344 434.591,123.476 431.711,128.372 C 428.723,133.304 425.339,141.98 424.871,147.452 C 424.295,152.672 425.051,157.748 429.083,159.908 C 433.223,161.996 443.627,162.284 449.062,160.088 C 454.247,157.784 458.134,152.384 460.439,146.228 C 462.634,139.892 464.039,127.76 462.562,122.756 C 460.907,117.824 454.607,117.068 451.151,116.456 C 447.659,115.772 445.031,116.276 441.863,118.4 L 441.863,118.4 z "
   style="fill:#a16121;fill-rule:evenodd;stroke:#000000;stroke-width:0.036;stroke-miterlimit:10"
   id="path97" />
	<path
   d="M 271.475,291.128 C 267.371,292.964 262.727,298.58 259.919,303.548 C 257.111,308.48 254.627,314.456 254.987,320.36 C 255.31,326.085 257.867,334.005 261.827,337.713 C 265.679,341.241 273.203,343.041 278.135,341.745 C 283.031,340.341 288.683,336.597 290.915,329.829 C 292.931,322.808 291.743,307.4 290.555,301.1 C 289.223,294.909 286.703,294.224 283.535,292.676 C 280.367,290.912 275.327,289.292 271.475,291.128 L 271.475,291.128 z "
   style="fill:#a16121;fill-rule:evenodd;stroke:#000000;stroke-width:0.036;stroke-miterlimit:10"
   id="path99" />
	<path
   d="M 267.623,301.1 C 267.695,302.36 263.411,307.4 262.691,311.936 C 261.827,316.4 261.97,323.457 263.411,327.705 C 264.887,331.809 268.379,335.661 271.799,336.488 C 275.147,337.209 280.583,335.552 283.391,332.096 C 286.055,328.352 287.891,319.784 287.927,315.284 C 287.856,310.819 285.767,306.5 283.031,305.636 C 280.186,304.7 273.455,306.788 271.295,309.668 C 269.063,312.62 269.099,319.1 269.891,322.448 C 270.539,325.544 273.059,328.964 275.507,328.424 C 277.847,327.776 283.608,321.656 283.895,318.956 C 283.967,316.111 277.631,311.792 276.551,312.116 C 275.4,312.475 277.524,319.567 277.236,321.044 C 276.876,322.268 274.788,321.908 274.427,320.359 C 273.851,318.847 273.528,313.7 274.427,312.116 C 275.364,310.424 277.811,309.847 279.539,310.387 C 281.087,310.891 282.959,312.908 283.894,314.923 C 284.831,316.759 285.874,318.991 284.939,321.763 C 283.823,324.463 280.403,330.727 277.594,331.411 C 274.75,331.986 269.746,329.358 268.126,325.615 C 266.434,321.762 265.714,312.547 267.622,308.802 C 269.53,304.95 275.902,303.33 279.358,302.826 C 282.706,302.214 285.765,301.601 287.566,305.309 C 289.221,309.053 290.662,319.097 289.509,324.749 C 288.07,330.148 284.362,336.017 280.041,337.889 C 275.721,339.545 267.441,338.826 264.093,335.585 C 260.673,332.237 260.097,324.245 259.738,318.953 C 259.342,313.697 260.458,307.36 261.826,304.409 C 263.159,301.352 267.407,299.876 267.623,301.1 L 267.623,301.1 z "
   style="fill-rule:evenodd;stroke:#000000;stroke-width:0.036;stroke-miterlimit:10"
   id="path101" />
	<path
   d="M 351.323,315.824 C 351.43,317.912 350.171,323.996 350.459,327.704 C 350.603,331.412 350.855,336.668 352.727,338.036 C 354.563,339.296 358.452,338.647 361.331,335.408 C 364.102,332.059 368.279,323.815 369.539,318.452 C 370.691,312.908 369.503,306.212 368.315,303.368 C 367.018,300.487 363.815,299.443 362.014,301.784 C 359.998,304.16 357.91,312.872 357.118,317.372 C 356.254,321.764 356.29,327.128 357.622,328.063 C 359.026,328.819 364.246,325.147 365.506,322.448 C 366.658,319.639 364.822,312.151 364.282,311.792 C 363.49,311.504 362.05,319.819 361.473,320.359 C 360.789,320.719 360.285,316.219 360.789,314.24 C 361.293,312.116 363.309,308.191 364.461,308.443 C 365.469,308.731 366.369,313.051 366.73,315.967 C 366.946,318.847 367.053,322.843 365.685,325.435 C 364.066,327.992 360.213,331.555 358.162,330.691 C 356.145,329.503 353.914,323.563 353.95,319.135 C 353.914,314.635 356.29,307.831 358.162,304.411 C 359.854,300.847 362.338,298.039 364.641,298.471 C 366.91,299.047 370.977,302.431 371.841,307.219 C 372.669,311.755 371.949,320.071 369.537,325.795 C 366.873,331.447 360.285,339.799 356.577,340.843 C 352.761,341.671 348.513,335.983 347.289,331.555 C 346.101,327.127 348.621,317.119 349.413,314.563 C 349.991,311.936 351.143,313.556 351.323,315.824 L 351.323,315.824 z "
   style="fill-rule:evenodd;stroke:#000000;stroke-width:0.036;stroke-miterlimit:10"
   id="path103" />
	<path
   d="M 328.931,317.731 C 327.599,320.683 327.419,324.319 328.391,328.784 C 329.291,333.139 331.379,338.324 334.511,344.191 L 334.511,344.191 L 328.211,344.191 L 328.211,344.191 C 325.907,339.116 324.755,334.435 324.899,330.007 C 325.043,325.508 326.339,321.548 328.931,317.731 L 328.931,317.731 z "
   style="fill-rule:evenodd;stroke:#000000;stroke-width:0.036;stroke-miterlimit:10"
   id="path105" />
	<path
   d="M 319.103,329.288 C 318.419,332.636 318.419,335.624 319.103,338.395 C 319.788,341.167 321.083,343.435 323.135,345.595 L 323.135,345.595 L 317.519,345.235 L 317.519,345.235 C 315.719,342.139 314.963,339.332 315.251,336.668 C 315.539,333.968 316.727,331.556 319.103,329.288 L 319.103,329.288 z "
   style="fill-rule:evenodd;stroke:#000000;stroke-width:0.036;stroke-miterlimit:10"
   id="path107" />
	<path
   d="M 296.495,290.228 C 298.186,292.568 299.375,295.592 300.203,299.696 C 300.959,303.728 301.247,308.444 301.067,314.241 L 301.067,314.241 L 305.098,310.568 L 305.098,310.568 C 304.739,305.997 303.91,302.073 302.47,298.652 C 300.995,295.231 299.051,292.424 296.495,290.228 L 296.495,290.228 z "
   style="fill-rule:evenodd;stroke:#000000;stroke-width:0.036;stroke-miterlimit:10"
   id="path109" />
	<path
   d="M 306.863,290.588 C 308.087,292.208 308.806,294.296 309.419,297.14 C 309.851,299.949 310.175,303.26 309.995,307.22 L 309.995,307.22 L 312.803,304.664 L 312.803,304.664 C 312.551,301.46 311.94,298.76 310.967,296.42 C 309.959,293.972 308.591,292.172 306.863,290.588 L 306.863,290.588 z "
   style="fill-rule:evenodd;stroke:#000000;stroke-width:0.036;stroke-miterlimit:10"
   id="path111" />
	<path
   d="M 292.643,280.256 C 295.559,277.268 298.547,274.46 301.751,271.832 C 304.955,269.204 308.195,266.756 311.759,264.488 L 311.759,264.488 C 306.971,269.744 303.047,273.523 299.843,276.223 C 296.675,278.852 294.227,280.147 292.643,280.256 L 292.643,280.256 z "
   style="fill-rule:evenodd;stroke:#000000;stroke-width:0.036;stroke-miterlimit:10"
   id="path113" />
	<path
   d="M 265.499,378.031 C 263.447,380.983 261.646,384.727 260.243,389.408 C 258.695,394.052 256.102,400.315 256.751,405.859 C 257.363,411.368 260.279,420.872 263.951,422.168 C 267.514,423.212 274.102,416.912 278.459,412.7 C 282.743,408.344 287.711,402.403 289.871,397.111 C 291.995,391.784 292.355,386.815 291.095,381.523 L 291.095,381.523 C 291.024,388.255 288.971,394.339 284.94,400.46 C 280.799,406.472 271.223,416.012 266.904,417.416 C 262.475,418.676 259.847,412.304 259.019,408.308 C 258.227,404.132 260.999,398.372 262.187,393.26 C 263.231,388.111 264.383,383.18 265.499,378.031 L 265.499,378.031 z "
   style="fill-rule:evenodd;stroke:#000000;stroke-width:0.036;stroke-miterlimit:10"
   id="path115" />
	<path
   d="M 268.127,380.983 C 266.291,386.563 265.175,391.315 264.635,395.527 C 264.024,399.704 263.484,404.023 264.816,405.859 C 266.004,407.588 269.423,407.695 272.16,406.04 C 274.895,404.275 278.568,400.676 281.088,396.067 C 283.536,391.387 286.596,383.935 286.525,378.715 C 286.237,373.495 284.004,368.995 279.684,365.07 L 279.684,365.07 C 280.872,366.978 281.701,369.57 282.312,373.134 C 282.852,376.626 284.077,381.738 283.212,386.094 C 282.276,390.414 279.576,395.202 276.912,398.514 C 274.032,401.61 268.416,405.318 266.724,404.634 C 265.033,403.698 266.617,397.578 266.905,393.618 C 267.119,389.66 267.479,385.448 268.127,380.983 L 268.127,380.983 z "
   style="fill-rule:evenodd;stroke:#000000;stroke-width:0.036;stroke-miterlimit:10"
   id="path117" />
	<path
   d="M 273.383,375.224 C 271.655,381.704 270.827,386.348 271.295,389.588 C 271.691,392.648 274.247,395.924 275.651,394.124 C 276.875,392.216 278.89,383.144 279.178,378.716 C 279.43,374.288 278.89,370.724 277.414,367.88 L 277.414,367.88 C 277.702,372.704 277.486,376.916 276.91,380.66 C 276.154,384.332 274.498,389.84 273.742,390.092 C 273.057,390.2 272.662,384.368 272.698,381.884 C 272.627,379.328 272.807,377.204 273.383,375.224 L 273.383,375.224 z "
   style="fill-rule:evenodd;stroke:#000000;stroke-width:0.036;stroke-miterlimit:10"
   id="path119" />
	<path
   d="M 306.863,368.023 C 308.699,370.58 309.671,374.036 309.634,378.536 C 309.562,382.964 308.626,388.292 306.682,394.664 L 306.682,394.664 L 310.714,391.496 L 310.714,391.496 C 312.226,387.968 312.731,384.439 312.082,380.479 C 311.399,376.52 309.707,372.416 306.863,368.023 L 306.863,368.023 z "
   style="fill-rule:evenodd;stroke:#000000;stroke-width:0.036;stroke-miterlimit:10"
   id="path121" />
	<path
   d="M 380.735,285.188 C 385.523,280.976 390.886,276.764 397.222,272.409 C 403.523,268.016 410.399,263.732 418.246,259.268 L 418.246,259.268 C 410.902,265.533 404.17,270.896 397.906,275.216 C 391.571,279.536 385.991,282.812 380.735,285.188 L 380.735,285.188 z "
   style="fill-rule:evenodd;stroke:#000000;stroke-width:0.036;stroke-miterlimit:10"
   id="path123" />
	<path
   d="M 384.947,290.624 C 390.131,286.628 396.827,282.2 405.611,276.8 C 414.359,271.4 424.619,265.46 436.966,258.584 L 436.966,258.584 C 432.394,263.156 426.13,267.836 417.346,273.308 C 408.563,278.744 397.943,284.288 384.947,290.624 L 384.947,290.624 z "
   style="fill-rule:evenodd;stroke:#000000;stroke-width:0.036;stroke-miterlimit:10"
   id="path125" />
	<path
   d="M 455.903,256.496 C 456.083,258.187 455.795,260.851 455.182,264.344 C 454.426,267.908 453.562,272.157 452.05,277.484 L 452.05,277.484 L 443.122,285.728 L 443.122,285.728 C 446.038,280.617 448.45,275.648 450.645,270.825 C 452.807,265.855 454.463,261.212 455.903,256.496 L 455.903,256.496 z "
   style="fill-rule:evenodd;stroke:#000000;stroke-width:0.036;stroke-miterlimit:10"
   id="path127" />
	<path
   d="M 443.627,272.947 C 443.699,275.431 442.583,278.492 440.135,282.416 C 437.687,286.304 434.051,290.804 429.083,296.06 L 429.083,296.06 C 432.251,291.02 435.059,286.628 437.507,282.741 C 439.955,278.815 441.899,275.647 443.627,272.947 L 443.627,272.947 z "
   style="fill-rule:evenodd;stroke:#000000;stroke-width:0.036;stroke-miterlimit:10"
   id="path129" />
	<path
   d="M 451.871,212.792 C 449.207,217.076 447.263,221.252 445.894,225.752 C 444.455,230.18 443.699,235.508 443.626,239.216 C 443.482,242.779 443.23,247.532 445.39,247.1 C 447.514,246.489 453.454,239.612 456.407,235.904 C 459.251,232.089 461.554,228.921 462.203,224.888 C 462.779,220.856 461.771,216.428 459.575,211.748 L 459.575,211.748 C 460.799,214.916 460.978,218.373 460.259,222.26 C 459.395,226.076 457.451,231.296 455.003,234.86 C 452.447,238.352 447.335,244.4 445.895,243.428 C 444.492,242.24 445.715,234.104 446.795,228.884 C 447.767,223.664 449.459,218.443 451.871,212.792 L 451.871,212.792 z "
   style="fill-rule:evenodd;stroke:#000000;stroke-width:0.036;stroke-miterlimit:10"
   id="path131" />
	<path
   d="M 452.555,218.552 C 450.395,223.124 449.207,226.724 448.703,229.784 C 448.235,232.664 448.307,237.74 449.747,236.263 C 451.115,234.679 456.119,224.779 457.127,220.855 C 458.099,216.967 457.631,214.339 455.723,212.971 L 455.723,212.971 C 456.047,215.311 455.759,217.939 454.86,220.999 C 453.78,224.095 450.756,230.575 450.108,231.007 C 449.46,231.187 450.683,224.671 451.152,222.583 C 451.547,220.46 452.015,219.164 452.555,218.552 L 452.555,218.552 z "
   style="fill-rule:evenodd;stroke:#000000;stroke-width:0.036;stroke-miterlimit:10"
   id="path133" />
	<path
   d="M 391.607,248.684 C 398.123,248.72 404.422,248.36 411.046,248 C 417.562,247.532 424.006,246.884 430.666,246.056 L 430.666,246.056 C 420.262,245.768 412.054,246.02 405.466,246.416 C 398.843,246.812 394.415,247.567 391.607,248.684 L 391.607,248.684 z "
   style="fill-rule:evenodd;stroke:#000000;stroke-width:0.036;stroke-miterlimit:10"
   id="path135" />
	<path
   d="M 392.146,242.384 C 403.594,241.592 412.451,240.728 419.291,239.936 C 426.023,239.037 430.415,238.208 432.611,237.308 L 432.611,237.308 C 421.594,237.92 412.955,238.676 406.151,239.577 C 399.419,240.368 394.703,241.304 392.146,242.384 L 392.146,242.384 z "
   style="fill-rule:evenodd;stroke:#000000;stroke-width:0.036;stroke-miterlimit:10"
   id="path137" />
	<path
   d="M 401.255,237.488 C 408.923,236.191 414.9,235.111 419.471,233.815 C 423.935,232.555 426.851,231.223 428.219,229.963 L 428.219,229.963 C 418.535,232.446 411.515,234.211 407.015,235.543 C 402.479,236.768 400.607,237.416 401.255,237.488 L 401.255,237.488 z "
   style="fill-rule:evenodd;stroke:#000000;stroke-width:0.036;stroke-miterlimit:10"
   id="path139" />
	<path
   d="M 368.675,205.988 C 371.915,202.46 377.316,197.636 385.307,191.12 C 393.227,184.604 403.343,176.792 415.944,167.288 L 415.944,167.288 C 402.66,178.844 392.435,187.736 384.444,194.252 C 376.451,200.732 371.375,204.548 368.675,205.988 L 368.675,205.988 z "
   style="fill-rule:evenodd;stroke:#000000;stroke-width:0.036;stroke-miterlimit:10"
   id="path141" />
	<path
   d="M 391.967,192.164 C 398.951,186.692 405.071,181.976 410.867,177.62 C 416.591,173.264 421.631,169.52 426.131,166.244 L 426.131,166.244 C 420.155,172.04 414.503,177.116 408.779,181.472 C 402.983,185.756 397.511,189.32 391.967,192.164 L 391.967,192.164 z "
   style="fill-rule:evenodd;stroke:#000000;stroke-width:0.036;stroke-miterlimit:10"
   id="path143" />
	<path
   d="M 365.867,233.492 C 365.759,232.988 361.835,234.248 360.071,238.388 C 358.127,242.528 354.058,253.976 354.815,258.008 C 355.642,261.86 361.294,263.084 364.823,261.536 C 368.315,259.771 373.211,252.968 375.335,248.216 C 377.351,243.392 378.143,235.148 376.739,233.492 C 375.155,231.908 368.638,235.22 366.226,238.567 C 363.67,241.7 361.294,250.628 362.014,252.572 C 362.735,254.372 368.783,251.96 370.582,249.8 C 372.238,247.532 372.598,239.792 372.346,239.612 C 371.987,239.432 370.474,246.812 369.178,248.577 C 367.81,250.125 365.111,250.736 364.823,249.44 C 364.499,247.964 366.119,242.816 367.451,240.512 C 368.819,238.1 371.266,235.724 372.707,235.616 C 374.111,235.58 375.371,237.488 375.515,239.971 C 375.444,242.311 374.94,246.559 372.887,249.799 C 370.799,253.039 365.975,257.971 363.419,258.907 C 360.755,259.591 357.695,257.682 357.299,254.694 C 356.867,251.526 359.279,244.65 360.791,241.014 C 362.231,237.416 365.867,233.888 365.867,233.492 L 365.867,233.492 z "
   style="fill-rule:evenodd;stroke:#000000;stroke-width:0.036;stroke-miterlimit:10"
   id="path145" />
	<path
   d="M 436.283,128.552 C 432.251,133.556 430.018,138.272 429.443,143.096 C 428.758,147.776 430.235,154.508 432.755,156.92 C 435.311,159.296 441.179,158.252 444.671,157.1 C 448.055,155.804 450.971,152.672 453.275,149.216 C 455.47,145.508 457.379,139.82 458.171,135.896 C 458.963,131.972 458.891,128.048 457.811,125.924 C 456.66,123.764 454.248,122.612 450.971,122.756 L 450.971,122.756 C 453.492,122.972 454.86,124.844 455.364,128.372 C 455.796,131.864 455.723,139.172 453.599,143.78 C 451.368,148.28 445.679,154.004 442.223,155.516 C 438.551,156.812 434.555,154.868 432.755,152.204 C 431.171,149.468 431.315,143.492 432.071,139.568 C 432.646,135.608 434.051,131.936 436.283,128.552 L 436.283,128.552 z "
   style="fill-rule:evenodd;stroke:#000000;stroke-width:0.036;stroke-miterlimit:10"
   id="path147" />
	<path
   d="M 436.643,135.032 C 436.175,135.248 436.463,146.264 438.192,148.496 C 439.956,150.584 444.311,150.224 446.975,147.812 C 449.496,145.22 453.276,136.976 453.455,133.628 C 453.455,130.1 449.387,127.976 447.478,127.688 C 445.535,127.508 442.834,129.488 441.863,132.224 C 440.747,134.852 439.955,142.844 440.999,143.42 C 442.007,143.78 447.371,136.04 447.659,135.212 C 447.803,134.42 442.222,139.424 442.043,138.704 C 441.863,137.768 444.707,131.504 446.255,130.46 C 447.659,129.488 450.287,130.244 450.647,132.584 C 450.828,134.888 449.568,141.116 447.839,143.78 C 446.003,146.264 442.151,148.784 440.315,147.452 C 438.371,145.832 436.967,134.888 436.643,135.032 L 436.643,135.032 z "
   style="fill-rule:evenodd;stroke:#000000;stroke-width:0.036;stroke-miterlimit:10"
   id="path149" />
	<path
   d="M 362.195,122.252 C 364.966,121.316 371.014,121.352 380.735,122.072 C 390.455,122.864 403.306,124.34 419.974,126.788 L 419.974,126.788 C 407.699,125.672 396.934,124.736 387.25,123.98 C 377.531,123.224 369.323,122.648 362.195,122.252 L 362.195,122.252 z "
   style="fill-rule:evenodd;stroke:#000000;stroke-width:0.036;stroke-miterlimit:10"
   id="path151" />
	<path
   d="M 367.271,125.384 C 377.962,124.808 387.287,125.852 395.638,128.372 C 403.991,130.928 410.83,134.924 416.842,140.648 L 416.842,140.648 C 406.33,135.212 397.114,131.288 388.798,128.732 C 380.411,126.068 373.463,125.132 367.271,125.384 L 367.271,125.384 z "
   style="fill-rule:evenodd;stroke:#000000;stroke-width:0.036;stroke-miterlimit:10"
   id="path153" />
	<path
   d="M 375.155,131.18 C 384.587,132.224 392.543,134.276 399.31,137.48 C 406.006,140.576 411.226,144.824 415.258,150.08 L 415.258,150.08 C 408.023,144.824 401.074,140.864 394.414,137.66 C 387.611,134.492 381.383,132.332 375.155,131.18 L 375.155,131.18 z "
   style="fill-rule:evenodd;stroke:#000000;stroke-width:0.036;stroke-miterlimit:10"
   id="path155" />
	<path
   d="M 298.259,165.38 C 298.799,168.872 300.599,173.12 303.515,178.664 C 306.467,184.1 310.427,190.472 315.791,197.924 L 315.791,197.924 C 311.075,189.788 307.331,183.02 304.415,177.62 C 301.463,172.184 299.411,168.152 298.259,165.38 L 298.259,165.38 z "
   style="fill-rule:evenodd;stroke:#000000;stroke-width:0.036;stroke-miterlimit:10"
   id="path157" />
	<path
   d="M 304.415,166.064 C 309.023,177.008 313.811,186.188 318.779,193.748 C 323.783,201.344 328.823,206.996 334.186,211.244 L 334.186,211.244 C 328.355,204.476 323.027,197.492 318.058,189.896 C 313.055,182.3 308.555,174.488 304.415,166.064 L 304.415,166.064 z "
   style="fill-rule:evenodd;stroke:#000000;stroke-width:0.036;stroke-miterlimit:10"
   id="path159" />
	<path
   d="M 293.183,149.108 C 292.86,149.18 291.059,151.412 291.095,152.456 C 290.951,153.356 292.283,154.688 293.003,154.364 C 293.651,153.86 295.343,150.368 295.307,150.008 C 295.163,149.648 293.039,152.348 292.679,152.276 C 292.355,152.024 293.363,149.072 293.183,149.108 L 293.183,149.108 z "
   style="fill-rule:evenodd;stroke:#000000;stroke-width:0.036;stroke-miterlimit:10"
   id="path161" />
	<path
   d="M 280.583,174.704 C 280.079,174.776 279.971,176.036 280.403,176.972 C 280.583,177.836 281.735,179.744 282.346,179.78 C 282.886,179.564 284.182,177.296 283.894,176.432 C 283.463,175.496 281.195,174.596 280.583,174.704 L 280.583,174.704 z "
   style="fill-rule:evenodd;stroke:#000000;stroke-width:0.036;stroke-miterlimit:10"
   id="path163" />
	<path
   d="M 264.131,158.216 C 263.843,158.072 263.015,160.052 263.051,161.384 C 263.051,162.644 263.519,165.776 264.455,165.92 C 265.283,165.848 267.803,161.852 267.983,161.564 C 267.983,161.24 265.642,163.868 264.995,164.012 C 264.31,164.012 264.058,162.86 263.951,161.924 C 263.771,160.88 264.203,158.252 264.131,158.216 L 264.131,158.216 z "
   style="fill-rule:evenodd;stroke:#000000;stroke-width:0.036;stroke-miterlimit:10"
   id="path165" />
	<path
   d="M 251.495,172.76 C 251.062,172.868 243.142,182.192 239.255,187.124 C 235.259,191.948 227.628,201.416 228.024,201.488 C 228.384,201.38 237.311,191.48 241.343,186.764 C 245.195,181.904 251.819,172.652 251.495,172.76 L 251.495,172.76 z "
   style="fill-rule:evenodd;stroke:#000000;stroke-width:0.036;stroke-miterlimit:10"
   id="path167" />
	<path
   d="M 248.687,180.14 C 247.499,181.904 240.696,194.252 240.479,195.368 C 240.299,196.16 245.807,188.024 247.284,185.54 C 248.651,182.948 249.767,178.412 248.687,180.14 L 248.687,180.14 z "
   style="fill-rule:evenodd;stroke:#000000;stroke-width:0.036;stroke-miterlimit:10"
   id="path169" />
	<path
   d="M 275.687,188.528 C 274.572,190.184 269.171,196.448 269.208,199.4 C 269.136,202.172 275.616,205.412 275.868,205.52 C 275.975,205.52 270.935,202.388 270.756,199.724 C 270.648,196.952 274.248,191.48 275.148,189.572 C 275.939,187.628 276.623,186.908 275.687,188.528 L 275.687,188.528 z "
   style="fill-rule:evenodd;stroke:#000000;stroke-width:0.036;stroke-miterlimit:10"
   id="path171" />
	<path
   d="M 279.359,188.528 C 279.142,188.816 275.722,194.216 275.327,196.952 C 274.787,199.544 276.299,204.296 276.551,204.116 C 276.696,203.756 276.047,197.924 276.551,195.368 C 277.019,192.632 279.431,188.312 279.359,188.528 L 279.359,188.528 z "
   style="fill-rule:evenodd;stroke:#000000;stroke-width:0.036;stroke-miterlimit:10"
   id="path173" />
	<path
   d="M 250.631,200.948 C 251.856,199.292 258.803,190.976 259.379,190.976 C 259.667,190.868 254.159,198.896 252.719,200.624 C 251.243,202.316 249.479,202.424 250.631,200.948 L 250.631,200.948 z "
   style="fill-rule:evenodd;stroke:#000000;stroke-width:0.036;stroke-miterlimit:10"
   id="path175" />
	<path
   d="M 259.559,260.24 C 259.091,258.332 259.091,269.492 259.559,273.74 C 259.919,277.952 261.935,287.204 262.007,285.116 C 261.935,282.74 259.919,262.184 259.559,260.24 L 259.559,260.24 z "
   style="fill-rule:evenodd;stroke:#000000;stroke-width:0.036;stroke-miterlimit:10"
   id="path177" />
	<path
   d="M 262.727,260.24 C 262.187,259.124 264.311,271.651 265.356,275.468 C 266.4,279.14 268.992,284.756 268.668,282.308 C 268.055,279.644 263.339,261.464 262.727,260.24 L 262.727,260.24 z "
   style="fill-rule:evenodd;stroke:#000000;stroke-width:0.036;stroke-miterlimit:10"
   id="path179" />
	<path
   d="M 222.443,254.983 C 222.047,255.235 218.735,264.74 216.827,269.887 C 214.847,274.927 210.851,285.187 211.067,285.116 C 211.319,284.683 216.251,273.632 218.231,268.483 C 220.14,263.3 222.516,254.768 222.443,254.983 L 222.443,254.983 z "
   style="fill-rule:evenodd;stroke:#000000;stroke-width:0.036;stroke-miterlimit:10"
   id="path181" />
	<path
   d="M 224.711,255.884 C 224.063,256.928 221.075,270.14 219.635,274.964 C 218.159,279.644 215.747,284.792 216.287,283.892 C 216.863,282.741 221.255,273.56 222.803,268.844 C 224.171,264.056 225.18,254.876 224.711,255.884 L 224.711,255.884 z "
   style="fill-rule:evenodd;stroke:#000000;stroke-width:0.036;stroke-miterlimit:10"
   id="path183" />
	<path
   d="M 190.908,263.912 C 189.648,265.496 182.232,279.284 181.98,280.58 C 181.656,281.66 187.812,273.92 189.324,271.111 C 190.799,268.195 192.023,262.363 190.908,263.912 L 190.908,263.912 z "
   style="fill-rule:evenodd;stroke:#000000;stroke-width:0.036;stroke-miterlimit:10"
   id="path185" />
	<path
   d="M 189.684,275.144 C 188.892,275.577 183.672,284.972 183.204,286.52 C 182.844,287.888 185.796,285.764 187.056,283.892 C 188.135,281.876 190.259,274.748 189.684,275.144 L 189.684,275.144 z "
   style="fill-rule:evenodd;stroke:#000000;stroke-width:0.036;stroke-miterlimit:10"
   id="path187" />
	<path
   d="M 136.62,286.34 C 136.476,286.016 144.9,281.912 151.344,278.456 C 157.86,275 174.672,265.424 174.96,265.676 C 174.888,265.892 158.292,276.116 151.848,279.68 C 145.332,283.063 136.691,286.483 136.62,286.34 L 136.62,286.34 z "
   style="fill-rule:evenodd;stroke:#000000;stroke-width:0.036;stroke-miterlimit:10"
   id="path189" />
	<path
   d="M 163.224,194.036 C 165.24,192.56 184.356,182.156 186.552,181.436 C 188.388,180.644 179.028,187.556 175.14,189.68 C 171.215,191.696 161.279,195.368 163.224,194.036 L 163.224,194.036 z "
   style="fill-rule:evenodd;stroke:#000000;stroke-width:0.036;stroke-miterlimit:10"
   id="path191" />
	<path
   d="M 166.751,142.196 C 165.311,144.176 164.303,146.948 163.583,150.8 C 162.899,154.58 162.503,159.26 162.539,164.984 L 162.539,164.984 L 169.739,167.792 L 169.739,167.792 C 167.615,165.02 166.319,161.564 165.851,157.28 C 165.383,152.924 165.635,148.028 166.751,142.196 L 166.751,142.196 z "
   style="fill-rule:evenodd;stroke:#000000;stroke-width:0.036;stroke-miterlimit:10"
   id="path193" />
	<path
   d="M 169.379,146.408 C 168.479,150.98 168.371,155.084 169.199,158.864 C 169.991,162.608 171.575,165.884 174.095,168.836 L 174.095,168.836 L 179.531,168.836 L 179.531,168.836 C 176.147,165.524 173.735,162.068 172.007,158.324 C 170.244,154.544 169.416,150.62 169.379,146.408 L 169.379,146.408 z "
   style="fill-rule:evenodd;stroke:#000000;stroke-width:0.036;stroke-miterlimit:10"
   id="path195" />
	<path
   d="M 178.992,129.416 L 210.888,129.416 L 210.888,129.416 C 206.352,128.444 201.492,127.976 196.164,128.012 C 190.728,127.976 185.184,128.444 178.992,129.416 L 178.992,129.416 z "
   style="fill-rule:evenodd;stroke:#000000;stroke-width:0.036;stroke-miterlimit:10"
   id="path197" />
	<path
   d="M 36.792,219.884 C 38.484,219.416 43.2,219.02 51.516,218.84 C 59.796,218.66 71.1,218.552 86.004,218.66 L 86.004,218.66 C 71.172,219.559 59.904,219.956 51.66,220.244 C 43.379,220.496 38.556,220.244 36.792,219.884 L 36.792,219.884 z "
   style="fill-rule:evenodd;stroke:#000000;stroke-width:0.036;stroke-miterlimit:10"
   id="path199" />
	<path
   d="M 49.571,206.924 C 52.163,208.904 55.907,210.488 60.947,211.82 C 65.987,213.152 71.999,213.944 79.523,214.628 L 79.523,214.628 C 70.955,212.432 64.187,210.632 59.219,209.372 C 54.215,208.112 51.047,207.248 49.571,206.924 L 49.571,206.924 z "
   style="fill-rule:evenodd;stroke:#000000;stroke-width:0.036;stroke-miterlimit:10"
   id="path201" />
	<path
   d="M 83.195,286.195 C 85.463,284.179 90.035,281.084 97.055,276.763 C 104.111,272.371 113.219,267.116 125.063,260.455 L 125.063,260.455 C 115.019,264.703 106.703,268.915 99.683,273.234 C 92.7,277.592 87.155,281.731 83.195,286.195 L 83.195,286.195 z "
   style="fill-rule:evenodd;stroke:#000000;stroke-width:0.036;stroke-miterlimit:10"
   id="path203" />
	<path
   d="M 82.151,283.567 C 87.623,279.139 92.411,275 96.515,271.147 C 100.583,267.187 103.967,263.66 106.667,260.275 L 106.667,260.275 C 101.843,264.631 97.451,268.591 93.347,272.551 C 89.279,276.403 85.5,280.076 82.151,283.567 L 82.151,283.567 z "
   style="fill-rule:evenodd;stroke:#000000;stroke-width:0.036;stroke-miterlimit:10"
   id="path205" />
	<path
   d="M 80.927,281.3 C 82.979,278.276 90.755,268.376 91.079,267.296 C 91.187,266.324 84.923,272.192 82.691,275.18 C 80.495,277.989 78.371,283.244 78.119,284.288 C 77.795,285.224 78.731,284.18 80.927,281.3 L 80.927,281.3 z "
   style="fill-rule:evenodd;stroke:#000000;stroke-width:0.036;stroke-miterlimit:10"
   id="path207" />
	<path
   d="M 40.284,280.436 C 40.068,278.78 35.496,287.888 34.344,292.352 C 33.156,296.745 31.104,302.864 33.624,306.537 C 36.144,310.137 44.316,316.005 49.392,313.881 C 54.36,311.541 60.732,299.265 63.252,293.037 C 65.628,286.665 65.664,278.852 63.756,276.404 C 61.632,273.884 55.08,275.72 51.336,278.312 C 47.556,280.904 43.416,286.916 41.688,291.632 C 39.996,296.24 39.96,302.72 41.004,305.636 C 41.94,308.444 43.992,311.792 47.304,308.444 C 50.652,304.881 59.58,289.005 60.624,284.972 C 61.38,280.94 55.332,282.236 52.74,284.288 C 50.04,286.34 45.396,295.987 45.18,296.708 C 44.964,297.104 49.392,289.147 51.516,287.275 C 53.496,285.332 57.204,284.288 57.636,285.511 C 58.032,286.735 56.088,291.199 54.144,294.619 C 52.02,297.931 47.736,304.087 45.72,305.455 C 43.668,306.643 42.408,304.843 42.228,302.142 C 41.976,299.371 42.3,292.926 44.316,289.182 C 46.224,285.367 50.544,280.578 53.784,279.535 C 57.024,278.419 62.208,278.959 63.072,282.522 C 63.612,286.014 59.904,295.482 57.636,300.378 C 55.188,305.166 52.452,309.198 49.572,311.069 C 46.692,312.725 43.272,312.006 40.824,310.565 C 38.232,309.053 34.848,307.326 34.704,302.322 C 34.596,297.212 40.248,282.092 40.284,280.436 L 40.284,280.436 z "
   style="fill-rule:evenodd;stroke:#000000;stroke-width:0.036;stroke-miterlimit:10"
   id="path209" />
	<path
   d="M 136.979,369.248 C 138.203,366.8 146.987,354.668 147.491,354.38 C 147.815,354.164 141.587,365.288 139.787,367.88 C 138.023,370.363 135.611,371.372 136.979,369.248 L 136.979,369.248 z "
   style="fill-rule:evenodd;stroke:#000000;stroke-width:0.036;stroke-miterlimit:10"
   id="path211" />
	<path
   d="M 147.492,360.859 C 146.196,362.839 140.472,373.712 140.472,374.179 C 140.472,374.395 146.196,365.035 147.492,362.767 C 148.644,360.428 148.644,358.952 147.492,360.859 L 147.492,360.859 z "
   style="fill-rule:evenodd;stroke:#000000;stroke-width:0.036;stroke-miterlimit:10"
   id="path213" />
	<path
   d="M 197.388,358.916 C 197.64,363.775 197.532,368.096 197.064,372.416 C 196.596,376.592 195.768,380.552 194.58,384.151 L 194.58,384.151 C 199.26,385.231 202.032,384.763 203.184,382.748 C 204.192,380.624 201.96,376.088 201.06,372.056 C 200.087,368.096 198.863,363.668 197.388,358.916 L 197.388,358.916 z "
   style="fill-rule:evenodd;stroke:#000000;stroke-width:0.036;stroke-miterlimit:10"
   id="path215" />
	<path
   d="M 201.6,363.848 C 203.328,368.204 204.444,371.84 205.092,375.044 C 205.668,378.14 205.776,380.695 205.272,382.567 L 205.272,382.567 L 211.248,381.883 L 211.248,381.883 C 210.6,376.987 209.484,373.171 207.9,370.147 C 206.279,367.124 204.228,365.071 201.6,363.848 L 201.6,363.848 z "
   style="fill-rule:evenodd;stroke:#000000;stroke-width:0.036;stroke-miterlimit:10"
   id="path217" />
	<path
   d="M 57.635,367.7 C 57.707,373.027 57.311,377.492 56.591,381.523 C 55.799,385.519 54.683,388.651 53.099,391.351 L 53.099,391.351 L 59.903,386.599 L 59.903,386.599 C 60.587,382.315 60.767,378.787 60.443,375.583 C 60.011,372.38 59.076,369.752 57.635,367.7 L 57.635,367.7 z "
   style="fill-rule:evenodd;stroke:#000000;stroke-width:0.036;stroke-miterlimit:10"
   id="path219" />
	<path
   d="M 62.531,366.62 C 63.647,367.519 64.187,369.464 64.295,372.596 C 64.367,375.657 64.007,379.904 63.071,385.196 L 63.071,385.196 L 68.651,379.077 L 68.651,379.077 C 68.327,375.621 67.787,372.921 66.743,370.833 C 65.7,368.636 64.295,367.412 62.531,366.62 L 62.531,366.62 z "
   style="fill-rule:evenodd;stroke:#000000;stroke-width:0.036;stroke-miterlimit:10"
   id="path221" />
	<path
   d="M 16.812,373.64 C 13.428,377.78 11.232,382.82 9.828,389.048 C 8.424,395.312 6.624,406.436 8.604,410.611 C 10.476,414.643 15.804,416.66 21.384,413.059 C 26.892,409.171 38.016,396.536 41.688,388.363 C 45.216,380.12 44.28,369.319 42.912,364.712 C 41.472,360.104 38.376,358.88 33.48,361.04 L 33.48,361.04 C 35.964,360.103 37.836,360.752 39.24,363.128 C 40.536,365.504 42.372,369.752 41.688,375.044 C 40.896,380.156 38.736,387.752 35.208,393.8 C 31.536,399.812 24.408,408.2 20.34,410.792 C 16.2,413.24 12.168,412.52 10.872,408.487 C 9.54,404.168 11.412,391.784 12.456,385.916 C 13.463,380.012 14.868,376.052 16.812,373.64 L 16.812,373.64 z "
   style="fill-rule:evenodd;stroke:#000000;stroke-width:0.036;stroke-miterlimit:10"
   id="path223" />
	<path
   d="M 16.308,380.983 C 15.336,386.815 14.976,391.855 15.084,396.248 C 15.156,400.531 14.076,407.84 16.992,407.084 C 19.944,406.184 28.692,397.616 32.4,391.676 C 35.856,385.664 37.584,376.34 38.016,371.876 C 38.448,367.412 37.476,363.848 34.704,365.071 C 31.752,366.187 27.072,370.687 20.52,378.716 L 20.52,378.716 C 27.108,372.164 31.464,368.744 33.984,368.024 C 36.36,367.377 35.784,370.436 35.028,374.684 C 34.092,378.788 31.68,388.004 28.908,392.9 C 26.028,397.76 20.196,403.844 18.216,403.772 C 16.092,403.556 17.1,395.6 16.812,391.856 C 16.523,388.004 16.308,384.476 16.308,380.983 L 16.308,380.983 z "
   style="fill-rule:evenodd;stroke:#000000;stroke-width:0.036;stroke-miterlimit:10"
   id="path225" />
	<path
   d="M 20.339,387.464 C 22.751,381.596 24.875,377.888 26.999,375.908 C 29.015,373.928 32.651,373.603 32.759,375.908 C 32.759,378.103 31.139,382.496 27.503,389.227 L 27.503,389.227 C 29.483,383.215 30.419,379.471 30.311,377.851 C 30.131,376.195 27.935,377.707 26.639,379.616 C 25.163,381.452 23.039,386.168 21.923,389.048 C 20.591,391.964 19.367,395.672 19.799,396.571 C 20.339,397.292 21.995,396.248 25.055,393.439 L 25.055,393.439 C 23.183,396.427 21.851,398.299 20.663,399.055 C 19.439,399.775 18.251,399.74 18.215,397.831 C 18.215,395.852 18.792,392.396 20.339,387.464 L 20.339,387.464 z "
   style="fill-rule:evenodd;stroke:#000000;stroke-width:0.036;stroke-miterlimit:10"
   id="path227" />
	<path
   d="M 78.66,368.563 L 100.368,355.423 L 100.368,355.423 C 94.824,357.439 90.324,359.491 86.724,361.723 C 83.051,363.92 80.459,366.151 78.66,368.563 L 78.66,368.563 z "
   style="fill-rule:evenodd;stroke:#000000;stroke-width:0.036;stroke-miterlimit:10"
   id="path229" />
	<path
   d="M 56.556,237.56 C 90.144,234.752 127.116,234.14 169.704,235.869 C 212.256,237.597 258.156,241.377 309.78,247.64 L 309.78,247.64 C 284.687,242.528 256.248,238.928 222.948,236.444 C 189.54,233.997 139.464,232.881 111.456,233.096 C 83.591,233.275 65.483,234.716 56.556,237.56 L 56.556,237.56 z "
   style="fill-rule:evenodd;stroke:#000000;stroke-width:0.036;stroke-miterlimit:10"
   id="path231" />
	<path
   d="M 129.383,220.208 C 168.875,220.712 204.875,222.439 239.182,225.788 C 273.491,229.1 304.162,233.636 333.286,239.792 L 333.286,239.792 C 306.466,235.184 276.765,231.26 242.53,228.02 C 208.151,224.708 171.18,222.151 129.383,220.208 L 129.383,220.208 z "
   style="fill-rule:evenodd;stroke:#000000;stroke-width:0.036;stroke-miterlimit:10"
   id="path233" />
	<path
   d="M 66.06,338.396 C 65.592,339.476 79.596,340.088 108.648,340.088 C 137.952,340.088 180.9,339.476 239.723,338.396 L 239.723,338.396 C 184.176,337.964 142.992,337.82 113.688,337.82 C 84.563,337.819 69.011,337.964 66.06,338.396 L 66.06,338.396 z "
   style="fill-rule:evenodd;stroke:#000000;stroke-width:0.036;stroke-miterlimit:10"
   id="path235" />
	<path
   d="M 89.604,330.548 C 115.344,333.176 139.68,334.616 164.124,334.472 C 188.496,334.436 211.644,332.816 234.684,330.008 L 234.684,330.008 C 198.396,331.736 168.984,332.708 144.504,332.779 C 120.204,332.888 102.096,332.096 89.604,330.548 L 89.604,330.548 z "
   style="fill-rule:evenodd;stroke:#000000;stroke-width:0.036;stroke-miterlimit:10"
   id="path237" />
	<path
   d="M 110.339,324.968 C 144.143,326.228 171.683,326.228 194.363,324.968 C 216.863,323.564 233.387,321.08 244.762,317.12 L 244.762,317.12 C 225.143,319.567 204.659,321.296 182.051,322.7 C 159.479,323.96 135.899,324.716 110.339,324.968 L 110.339,324.968 z "
   style="fill-rule:evenodd;stroke:#000000;stroke-width:0.036;stroke-miterlimit:10"
   id="path239" />
	<path
   d="M 427.391,281.264 C 427.032,284.577 422.891,290.732 414.539,299.732 C 406.079,308.84 394.018,320.289 377.531,335.048 L 377.531,335.048 C 391.751,321.152 402.731,309.848 411.155,300.848 C 419.471,291.775 424.835,285.439 427.391,281.264 L 427.391,281.264 z "
   style="fill-rule:evenodd;stroke:#000000;stroke-width:0.036;stroke-miterlimit:10"
   id="path241" />
</g>
</svg>