<?xml version="1.0" encoding="UTF-8"?>
<!DOCTYPE svg PUBLIC "-//W3C//DTD SVG 1.1//EN" "http://www.w3.org/Graphics/SVG/1.1/DTD/svg11.dtd">
<!-- Creator: CorelDRAW -->
<svg xmlns="http://www.w3.org/2000/svg" xml:space="preserve" width="102.465mm" height="65.0075mm" style="shape-rendering:geometricPrecision; text-rendering:geometricPrecision; image-rendering:optimizeQuality; fill-rule:evenodd; clip-rule:evenodd"
viewBox="0 0 89.0522 56.4979"
 xmlns:xlink="http://www.w3.org/1999/xlink">
 <defs>
  <style type="text/css">
   <![CDATA[
    .str0 {stroke:black;stroke-width:0.0662253}
    .fil5 {fill:#6B532F}
    .fil4 {fill:#7A6649}
    .fil7 {fill:#805E2C}
    .fil10 {fill:#8C795C}
    .fil1 {fill:#996633}
    .fil0 {fill:#BAAD98}
    .fil6 {fill:#DBC8AD}
    .fil9 {fill:#DEBD8C}
    .fil2 {fill:#EDCD9C}
    .fil13 {fill:#FF6633}
    .fil12 {fill:#FFCC00}
    .fil8 {fill:#BA9B6C;fill-rule:nonzero}
    .fil3 {fill:url(#id0)}
    .fil11 {fill:url(#id1)}
   ]]>
  </style>
  <linearGradient id="id0" gradientUnits="userSpaceOnUse" x1="46.0391" y1="36.9184" x2="38.9127" y2="20.0767">
   <stop offset="0" style="stop-color:#785837"/>
   <stop offset="1" style="stop-color:#E8C391"/>
  </linearGradient>
  <linearGradient id="id1" gradientUnits="userSpaceOnUse" xlink:href="#id0" x1="45.7751" y1="25.3114" x2="39.2092" y2="10.4854">
  </linearGradient>
 </defs>
 <g id="Layer_x0020_1">
  <metadata id="CorelCorpID_0Corel-Layer"/>
  <path class="fil0" d="M0 35.4339c0,0 5.55337,-3.29823 6.74334,-3.73799 1.19006,-0.439764 9.32178,-1.31929 9.32178,-1.31929l41.2536 -5.71693 15.6684 -2.85847c0,0 5.55337,1.97894 6.74342,3.29823 1.18997,1.31929 9.32169,7.25611 9.32169,7.25611 0,0 -2.38003,3.51811 -4.95838,5.05729 -2.57836,1.53917 -7.33832,5.71693 -7.53665,7.03622 -0.198415,1.31929 -21.0235,2.4187 -21.2218,3.51811 -0.198328,1.09941 0.396657,4.8374 -1.98337,5.05729 -2.38003,0.219882 -10.115,-0.219882 -12.2967,0.659646 -2.1817,0.879528 -4.76005,4.39764 -12.4951,1.97894 -7.73498,-2.4187 -12.8917,-2.85847 -16.2634,-3.73799 -3.37167,-0.879528 -5.35495,-0.659646 -4.16498,-3.29823 1.18997,-2.63858 2.77668,-4.39764 -1.18997,-5.27717 -3.96674,-0.879528 -4.76005,-0.879528 -6.14844,-1.31929 -1.3883,-0.439764 0.198328,-6.81634 -0.793313,-6.59646z"/>
  <polygon class="fil1 str0" points="10.6842,47.5645 9.45492,17.1869 12.953,16.8941 14.1823,47.8573 "/>
  <ellipse class="fil2 str0" cx="11.1641" cy="17.1664" rx="1.74906" ry="0.91698"/>
  <polygon class="fil1 str0" points="54.3308,25.7506 52.9916,0.769761 56.4897,0.541448 57.829,25.979 "/>
  <ellipse class="fil2 str0" cx="54.8106" cy="0.748355" rx="1.74906" ry="0.715244"/>
  <path class="fil3 str0" d="M12.5333 35.7353l55.5202 -21.674c0,0 5.05729,-0.0124281 5.49705,2.93573 0.439764,2.94824 1.42923,6.31096 -1.31929,7.64659 -2.74852,1.33554 -51.2325,23.5721 -51.2325,23.5721l-5.49705 -1.83641 -1.75906 -4.5367c0,0 -1.20935,-5.99739 -1.20935,-6.10733z"/>
  <path class="fil4" d="M73.9374 19.3932c0.314614,2.19865 0.310964,4.27014 -1.70613,5.2504 -2.74852,1.33554 -51.2325,23.5721 -51.2325,23.5721l-2.04873 -0.684415 3.36802 -4.21356 4.94734 -2.42618 2.30876 0.00391094 2.85847 -1.67049 4.72746 -0.656952c0,0 0.109941,-0.444805 0.879528,-1.02988 0.769587,-0.58499 3.95788,-2.49058 3.95788,-2.49058 0,0 -4.8374,0.552052 -3.07835,0.0315483 1.75906,-0.52059 1.53917,-2.04968 4.2877,-1.18649 2.74852,0.863189 4.17776,0.57769 4.17776,0.57769 0,0 -2.30876,-0.883439 -0.109941,-1.75402 2.19882,-0.870576 3.40817,-1.58576 3.40817,-1.58576l1.31929 -0.390486c0,0 -0.219882,0.889609 0.989469,0.174428 1.20935,-0.715181 2.63858,-0.450975 2.4187,-1.10054 -0.219882,-0.649564 -0.219882,-0.979387 -0.219882,-0.979387 0,0 3.73799,-1.93079 6.59646,-2.50187 2.85847,-0.571085 3.07835,-0.801048 3.07835,-0.801048l3.29823 -2.13042c0,0 3.62805,1.48242 3.95788,-0.401697 0.319481,-1.82528 1.25793,-3.57573 1.81607,-3.60633z"/>
  <path class="fil5" d="M74.0728 21.6897c-0.0889088,1.26132 0.175297,1.97381 -1.84162,2.95389 -2.01692,0.980083 -51.2325,23.5721 -51.2325,23.5721l-3.90173 1.40977c1.42993,-0.87892 4.56138,-3.63892 4.56138,-3.63892 2.85847,-0.900908 5.05729,-1.44166 5.82687,-1.9168 0.769587,-0.475136 1.42923,-1.93461 3.51811,-2.36039 2.08888,-0.425771 1.42923,-1.60488 3.84793,-2.04577 2.4187,-0.440981 2.63858,-0.341121 4.39764,-0.861711 1.75906,-0.52059 0,0.439764 2.96841,-1.34571 2.96841,-1.78548 10.7742,-5.4423 10.7742,-5.4423l4.2877 -3.16534c0,0 6.04675,-0.93741 7.03622,-1.53257 0.989469,-0.595159 2.96841,-1.56559 4.50758,-2.0761 1.05057,-0.348422 1.58906,-0.878311 2.1047,-1.2973 0.508597,-0.0474528 0.937236,-0.238481 1.12114,-0.688326 0.595333,-0.395614 1.33841,-1.12557 2.02396,-1.56455z"/>
  <path class="fil6 str0" d="M15.9965 49.1739c5.49253,0.178339 6.76133,-4.50888 6.76133,-7.86048 0,-3.35151 -1.10862,-4.81681 -2.81093,-6.27176l-7.90089 -0.377363c-1.7023,1.29235 -2.81093,2.65171 -2.81093,6.0033 0,3.35159 1.2688,8.32788 6.76141,8.5063z"/>
  <path class="fil7" d="M49.4734 27.8879l1.64911 -0.845372 0.659646 0.629314c0,0 -2.08888,1.0855 -2.63858,1.11071 -0.549705,0.0252908 -0.329823,-0.534496 -0.329823,-0.534496l0.659646 -0.360155z"/>
  <path class="fil7" d="M55.5202 23.7622l1.869 -0.525631c0,0 0.439764,0.749337 -0.439764,1.00963 -0.879528,0.260295 -3.62805,1.48598 -3.62805,1.48598l1.09941 -0.930023 1.09941 -1.03996z"/>
  <path class="fil7" d="M61.8968 22.9195c0,0 0.769587,0.734215 0,0.769587 -0.769587,0.0353723 -2.96841,0.796008 -2.96841,0.796008 0,0 -0.109941,-0.654605 0.769587,-0.804959 0.879528,-0.150267 2.19882,-0.760635 2.19882,-0.760635z"/>
  <path class="fil7" d="M69.2628 20.4923c1.31929,-0.170604 2.85847,-0.790967 2.19882,-0.430899 -0.659646,0.360155 -1.31929,1.27001 -2.08888,1.52527 -0.769587,0.255167 -1.97894,0.420731 -1.97894,0.420731l1.869 -1.5151z"/>
  <path class="fil7" d="M25.5386 39.1683l1.74489 -0.597158 0.0565783 -0.93376c0,0 -2.21985,0.745861 -2.63146,1.12913 -0.411605,0.383359 0.117415,0.624795 0.117415,0.624795l0.712574 -0.223011z"/>
  <path class="fil7" d="M32.6166 37.7158l1.69083 -0.987383c0,0 -0.180859,-0.859365 -0.985123,-0.404044 -0.804264,0.455321 -3.59094,1.58219 -3.59094,1.58219l1.4062 -0.134884 1.47903 -0.055883z"/>
  <path class="fil7" d="M37.7552 33.6643c0,0 0.0660515,-1.08942 -0.510161,-0.552747 -0.576212,0.536582 -2.65979,1.59601 -2.65979,1.59601 0,0 0.355027,0.550487 1.08637,0.0161652 0.731433,-0.534322 2.08358,-1.05943 2.08358,-1.05943z"/>
  <path class="fil7" d="M44.655 30.0283c1.06065,-0.84094 2.5774,-1.51936 1.86491,-1.29626 -0.712487,0.223011 -1.78947,0.0512768 -2.51143,0.429943 -0.72196,0.378753 -1.7003,1.14304 -1.7003,1.14304l2.34683 -0.276721z"/>
  <path class="fil7" d="M46.2651 27.4283l1.34415 -0.689021 0.537711 0.512942c0,0 -1.70265,0.884742 -2.15067,0.90534 -0.44802,0.0205976 -0.268812,-0.435679 -0.268812,-0.435679l0.537624 -0.293582z"/>
  <path class="fil7" d="M51.1937 24.0655l1.52336 -0.428379c0,0 0.358503,0.610803 -0.358416,0.82295 -0.716833,0.212147 -2.95711,1.21118 -2.95711,1.21118l0.896041 -0.758028 0.896128 -0.847719z"/>
  <path class="fil7" d="M56.391 23.3788c0,0 0.627315,0.598461 0,0.627229 -0.627229,0.0288541 -2.41948,0.648869 -2.41948,0.648869 0,0 -0.0896041,-0.53354 0.627315,-0.656083 0.71692,-0.122543 1.79217,-0.620015 1.79217,-0.620015z"/>
  <path class="fil7" d="M62.3949 21.4003c1.07534,-0.139056 2.32988,-0.644697 1.79226,-0.351203 -0.537711,0.293582 -1.07534,1.03518 -1.70265,1.24316 -0.627229,0.208062 -1.61296,0.342946 -1.61296,0.342946l1.52336 -1.2349z"/>
  <path class="fil8" d="M15.7291 49.0441c1.45487,-0.0902124 6.40639,0.0431073 6.66112,-8.08914 0.0981212,-3.13327 -1.56638,-5.08501 -3.83507,-6.17138 -0.370844,-0.000347639 -0.766284,-0.00121674 -1.1758,-0.00217275 2.53099,0.841635 5.32957,2.44808 4.65411,7.41315 -0.441937,3.24834 -0.563263,5.86068 -6.11489,6.53727 -3.38792,0.412909 -6.31452,-4.81967 -6.19702,-7.39316 0.120196,-2.63372 1.1612,-5.37312 2.92808,-6.57508l-0.72057 -0.00347639c-1.65529,1.32624 -2.51908,3.84142 -2.45633,6.43828 0.0990773,4.09771 2.92634,8.05211 6.25638,7.8457z"/>
  <path class="fil8" d="M15.752 48.2828c1.2907,-0.080044 5.6534,-0.0590987 5.90926,-7.27053 0.134623,-3.79492 -2.58748,-5.68903 -5.72223,-6.23526l-1.9141 -0.00738734c-2.53438,0.546837 -3.89678,3.40765 -3.82317,6.45853 0.087779,3.63518 2.59617,7.23785 5.55024,7.05465zm0.141142 -0.246737c-3.30249,0.278372 -5.36529,-4.27762 -5.42874,-6.44767 -0.104813,-3.57851 1.92106,-7.4082 5.47245,-6.52319 2.22472,0.554485 6.0106,1.26211 5.31219,6.70683 -0.370323,2.88662 -0.410562,5.84695 -5.35591,6.26403z"/>
  <path class="fil8" d="M15.7724 47.5165c1.14452,-0.0709185 5.01314,-0.0524936 5.23997,-6.44715 0.123325,-3.47405 -2.4532,-5.15436 -5.34522,-5.57257 -3.18516,-0.460448 -4.93778,2.53073 -4.81637,5.76395 0.121065,3.22383 2.30216,6.41821 4.92162,6.25577zm0.12515 -0.218839c-2.64319,0.372496 -4.52296,-3.51759 -4.76614,-5.57553 -0.374147,-3.16552 1.80225,-6.70162 4.8049,-5.9263 1.97025,0.50877 5.32992,1.11914 4.7106,5.94724 -0.328345,2.55967 -0.39292,4.94057 -4.74936,5.55458z"/>
  <path class="fil8" d="M15.7945 46.6885c1.09906,0.119414 4.59353,-0.222402 4.51688,-5.55745 -0.0431942,-3.00413 -2.11486,-4.44101 -4.60761,-4.80342 -2.7208,-0.395788 -4.09936,2.18856 -4.15168,4.96846 -0.0491041,2.6159 1.43262,5.08683 4.24242,5.39241zm0.107855 -0.188768c-2.63667,0.00304185 -4.01863,-3.11598 -4.10832,-4.80603 -0.142793,-2.69056 1.55247,-5.7517 4.14178,-5.10839 1.70074,0.422556 4.62847,0.972521 4.06052,5.12647 -0.283065,2.06967 -0.286455,4.78378 -4.09398,4.78795z"/>
  <path class="fil8" d="M15.4963 45.9202c-0.930023,-0.243695 -3.86419,-1.19823 -3.26242,-5.6952 0.338862,-2.53221 2.23628,-3.29232 4.38173,-3.05088 2.34187,0.263424 3.30709,2.76504 3.01264,5.11664 -0.29054,2.32075 -1.88725,4.21765 -4.13196,3.62944zm-0.0723959 -0.18338c2.23054,0.582383 3.71375,-1.75271 3.9597,-3.16282 0.391616,-2.24497 -0.734736,-5.20773 -2.99013,-5.23284 -1.48147,-0.016426 -4.01393,-0.194939 -3.95136,3.4445 0.0310268,1.81337 -0.239176,4.1104 2.98179,4.95117z"/>
  <path class="fil8" d="M15.5549 45.3129c-0.800179,-0.209627 -3.32474,-1.03084 -2.80693,-4.90024 0.291496,-2.17874 1.9241,-2.83283 3.77015,-2.62511 2.01492,0.226748 2.84552,2.37916 2.59209,4.40251 -0.25004,1.99684 -1.62382,3.62901 -3.55531,3.12285zm-0.0621406 -0.157655c1.91914,0.500948 3.19533,-1.50815 3.40695,-2.72141 0.33695,-1.93175 -0.632182,-4.48099 -2.57279,-4.50254 -1.27471,-0.0142532 -3.45371,-0.167736 -3.39991,2.96371 0.0268552,1.56021 -0.205716,3.53671 2.56575,4.26023z"/>
  <path class="fil8" d="M16.932 44.5615c-0.648435,0.212234 -2.7487,0.761417 -3.69454,-2.39793 -0.532497,-1.77896 0.421687,-3.02846 1.82346,-3.72643 1.53022,-0.761852 2.86281,0.477657 3.36993,2.12173 0.50034,1.62252 0.0662253,3.49013 -1.49885,4.00263zm-0.0987296 -0.0902994c1.55464,-0.510509 1.78982,-2.61738 1.52883,-3.63092 -0.415516,-1.61357 -1.98337,-3.08834 -3.39001,-2.20621 -0.923939,0.579515 -2.54742,1.47251 -1.44097,3.81056 0.551182,1.16485 1.05726,2.76382 3.30214,2.02656z"/>
  <path class="fil8" d="M14.6249 43.574c-0.420991,-0.431942 -1.70343,-1.88629 -0.282109,-3.90217 0.800353,-1.13504 1.96964,-0.873879 3.0202,-0.0355461 1.1466,0.914987 1.02858,2.47215 0.295754,3.53315 -0.723264,1.047 -2.01753,1.44705 -3.03385,0.404565zm0.0079088 -0.114721c1.01033,1.03492 2.35413,0.380752 2.82944,-0.232223 0.756724,-0.975824 0.905253,-2.8144 -0.255428,-3.58286 -0.76246,-0.504773 -2.02882,-1.44175 -2.89471,0.373886 -0.431508,0.904645 -1.13826,1.94678 0.320697,3.4412z"/>
  <path class="fil8" d="M14.4956 42.5187c-0.193983,-0.440198 -0.750206,-1.87664 0.766284,-2.79007 0.853889,-0.514246 1.62521,0.0601416 2.1684,0.993119 0.592899,1.01824 0.122195,2.05394 -0.665034,2.53977 -0.776887,0.479395 -1.80164,0.319655 -2.26965,-0.742819zm0.0340687 -0.0764807c0.465663,1.05517 1.58889,1.05595 2.0808,0.792879 0.783232,-0.418992 1.34554,-1.63877 0.70623,-2.56063 -0.419948,-0.605501 -1.09298,-1.67919 -2.16267,-0.717006 -0.532931,0.479395 -1.29687,0.960962 -0.624361,2.48475z"/>
  <path class="fil8" d="M16.7683 42.4957c-0.204499,0.222229 -0.888827,0.888914 -1.74176,-0.116894 -0.480351,-0.566305 -0.329302,-1.25255 0.0744818,-1.82467 0.44072,-0.624361 1.12887,-0.438547 1.57828,0.0815215 0.443414,0.513377 0.58247,1.32372 0.0889957,1.86005zm-0.0507554 -0.0131234c0.489911,-0.533366 0.239437,-1.39221 -0.0185118,-1.72403 -0.41091,-0.528325 -1.22317,-0.753335 -1.59923,-0.109506 -0.246911,0.422817 -0.701015,1.11766 0.0796094,1.77374 0.388922,0.326955 0.830685,0.829989 1.53813,0.059794z"/>
  <path class="fil8" d="M15.848 42.2765c-0.151136,-0.0396309 -0.628185,-0.194765 -0.530324,-0.925851 0.0550139,-0.411692 0.363544,-0.535278 0.7124,-0.496082 0.380665,0.0429335 0.537538,0.449585 0.489737,0.831901 -0.047279,0.377276 -0.306879,0.685632 -0.671813,0.590031zm-0.0117328 -0.0298101c0.362675,0.0946448 0.603763,-0.284977 0.643741,-0.514159 0.063618,-0.365021 -0.119414,-0.846676 -0.486087,-0.850761 -0.240827,-0.00269421 -0.652606,-0.0316352 -0.642351,0.55996 0.00495386,0.294885 -0.0389356,0.66825 0.484696,0.804959z"/>
  <polygon class="fil9 str0" points="39.3648,27.2151 42.1876,29.2951 40.5534,30.4836 37.8791,27.6608 34.9078,25.7294 36.6906,25.7294 "/>
  <polygon class="fil9 str0" points="20.9482,34.6168 24.811,38.1825 23.0163,37.5555 19.4625,35.0625 16.4911,33.1311 18.274,33.1311 "/>
  <polygon class="fil9 str0" points="48.8732,23.0552 51.6961,25.1351 50.0617,26.3237 47.3875,23.5009 44.4162,21.5695 46.199,21.5695 "/>
  <polygon class="fil9 str0" points="30.8964,31.2265 33.7192,33.3065 32.085,34.495 29.4107,31.6721 26.4393,29.7408 28.2222,29.7408 "/>
  <polygon class="fil9 str0" points="57.1931,20.2324 60.0159,22.3124 59.2731,24.6894 55.7074,20.678 52.736,18.7467 54.5188,18.7467 "/>
  <polygon class="fil9 str0" points="39.2163,28.4036 42.0391,30.4836 41.1477,33.0093 37.7305,28.8494 34.7592,26.918 36.542,26.918 "/>
  <path class="fil9 str0" d="M39.5134 25.2837c0.891435,0.148529 3.56565,1.48564 3.56565,1.48564l0 1.18858 -1.63425 0 -1.63425 -1.33711 -1.48572 -1.03996 1.18858 -0.297145z"/>
  <path class="fil9 str0" d="M20.7669 32.6854c0.891435,0.148529 3.56565,1.48572 3.56565,1.48572l0 1.18849 -1.63425 0 -1.63425 -1.33711 -1.48564 -1.03996 1.18849 -0.297145z"/>
  <path class="fil9 str0" d="M49.0218 21.1238c0.891435,0.148529 3.56565,1.48564 3.56565,1.48564l0 1.18858 -1.63425 0 -1.63425 -1.33711 -1.48564 -1.03996 1.18849 -0.297145z"/>
  <path class="fil9 str0" d="M31.045 29.2951c0.891348,0.148616 3.56565,1.48572 3.56565,1.48572l0 1.18849 -1.63425 0 -1.63425 -1.33711 -1.48572 -1.03996 1.18858 -0.297145z"/>
  <path class="fil9 str0" d="M58.5302 16.9639c0.891348,0.148529 3.56565,1.48572 3.56565,1.48572l0 1.18849 -1.63425 0 -1.63425 -1.33711 -1.48572 -1.03996 1.18858 -0.297145z"/>
  <path class="fil9 str0" d="M40.5534 25.1351c0.891435,0.148616 3.56565,1.48572 3.56565,1.48572l0 1.18858 -1.63425 0 -1.63425 -1.3372 -1.48572 -1.03996 1.18858 -0.297145z"/>
  <path class="fil10 str0" d="M42.6333 25.1351c0.742906,0.445761 2.97145,1.63425 2.97145,1.63425l-1.48572 1.18858 -1.9314 -0.891435 -0.148529 -0.891435 0.594203 -1.03996z"/>
  <path class="fil10 str0" d="M24.6565 33.3065c0.742819,0.445674 2.97136,1.63425 2.97136,1.63425l-1.48572 1.18849 -1.93131 -0.891348 -0.148616 -0.891435 0.59429 -1.03996z"/>
  <path class="fil9 str0" d="M52.1418 20.9752c0.742819,0.445761 2.97136,1.63425 2.97136,1.63425l-1.48572 1.18858 -1.93131 -0.891435 -0.148616 -0.891348 0.59429 -1.04005z"/>
  <path class="fil9 str0" d="M34.1649 29.1465c0.742906,0.445674 2.97136,1.63425 2.97136,1.63425l-1.48564 1.18849 -1.9314 -0.891348 -0.148616 -0.891435 0.59429 -1.03996z"/>
  <path class="fil9 str0" d="M61.6501 16.8153c0.742906,0.445674 2.97136,1.63425 2.97136,1.63425l-1.48564 1.18849 -1.9314 -0.891348 -0.148616 -0.891435 0.59429 -1.03996z"/>
  <path class="fil9 str0" d="M43.6733 24.9866c0.742819,0.445674 2.97136,1.63425 2.97136,1.63425l-1.48572 1.18858 -1.9314 -0.891435 -0.148529 -0.891435 0.59429 -1.03996z"/>
  <polygon class="fil10 str0" points="46.199,24.2438 47.9818,24.838 48.279,26.7694 46.6447,27.0665 44.8618,25.2837 42.1876,24.0952 42.7819,23.2037 "/>
  <polygon class="fil10 str0" points="28.2222,32.415 30.0049,33.0093 30.3021,34.9407 28.6678,35.2379 26.885,33.455 24.2108,32.2664 24.805,31.3751 "/>
  <polygon class="fil9 str0" points="55.7074,20.0838 57.4902,20.678 57.7873,22.6094 56.1531,22.9066 54.3703,21.1238 51.6961,19.9352 52.2903,19.0438 "/>
  <polygon class="fil9 str0" points="37.7305,28.2551 39.5134,28.8494 39.8105,30.7808 38.1763,31.0779 36.3934,29.2951 33.7192,28.1065 34.3135,27.2151 "/>
  <polygon class="fil10 str0" points="65.2158,15.9239 66.9986,16.5182 67.2958,18.4496 65.6615,18.7467 63.8787,16.9639 61.2045,15.7753 61.7987,14.8839 "/>
  <polygon class="fil10 str0" points="47.239,24.0952 49.0218,24.6894 49.3189,26.6208 47.6847,26.918 45.9019,25.1351 43.2276,23.9466 43.8219,23.0552 "/>
  <path class="fil9 str0" d="M52.1418 23.3523l-0.742819 1.63425 -2.52569 -1.78287c0,0 -4.60561,-2.52569 -3.71427,-2.52569 0.891435,0 4.45709,-0.891348 4.45709,-0.891348l0.59429 2.37707c0,0 1.63425,1.03996 1.9314,1.18858z"/>
  <path class="fil9 str0" d="M34.1649 31.5236l-0.742819 1.63425 -2.52569 -1.78278c0,0 -4.60561,-2.52569 -3.71418,-2.52569 0.891348,0 4.457,-0.891435 4.457,-0.891435l0.59429 2.37707c0,0 1.63425,1.04005 1.9314,1.18858z"/>
  <path class="fil9 str0" d="M61.6501 19.1924l-0.742819 1.63425 -2.52569 -1.78287c0,0 -4.60561,-2.5256 -3.71418,-2.5256 0.891348,0 4.457,-0.891435 4.457,-0.891435l0.59429 2.37707c0,0 1.63425,1.03996 1.9314,1.18858z"/>
  <path class="fil9 str0" d="M43.7237 25.6412l0.0831727 1.7933 -3.06053 -0.436548c0,0 -5.25057,-0.150354 -4.457,-0.556484 0.793574,-0.406043 3.56165,-2.82388 3.56165,-2.82388l1.61192 1.84536c0,0 1.92862,0.181381 2.26079,0.178252z"/>
  <path class="fil9 str0" d="M71.1586 15.0325l-0.742906 1.63425 -2.5256 -1.78278c0,0 -4.6057,-2.52569 -3.71427,-2.52569 0.891435,0 4.45709,-0.891435 4.45709,-0.891435l0.59429 2.37707c0,0 1.63425,1.04005 1.9314,1.18858z"/>
  <path class="fil9 str0" d="M53.048 20.873l0.39066 1.75219 -3.08999 0.0969045c0,0 -5.19799,0.755855 -4.4862,0.219187 0.711792,-0.536582 3.02229,-3.39496 3.02229,-3.39496l1.9055 1.54039c0,0 1.93105,-0.153396 2.25774,-0.213711z"/>
  <path class="fil9 str0" d="M50.3589 25.2837l0.742906 2.82275 -1.18858 2.22854c0,0 -0.445674,-0.148529 -0.297145,-1.03996 0.148616,-0.891435 -1.63425,-5.05129 -1.63425,-5.05129l-2.22854 -1.9314 1.9314 -0.891435c0,0 2.37707,4.01133 2.67422,3.8628z"/>
  <path class="fil9 str0" d="M32.3821 33.455l1.48564 3.8628 -1.9314 1.18858c0,0 -0.445587,-0.148703 -0.297145,-1.04005 0.148529,-0.891348 -1.63425,-5.05129 -1.63425,-5.05129l-2.22846 -1.9314 1.9314 -0.891435c0,0 2.37707,4.01133 2.67422,3.8628z"/>
  <path class="fil10 str0" d="M55.1131 22.0152l0.742819 2.82275 -1.18849 2.22854c0,0 -0.445761,-0.148529 -0.297145,-1.03996 0.148529,-0.891435 -1.63425,-5.05138 -1.63425,-5.05138l-2.22854 -1.9314 1.9314 -0.891348c0,0 2.37707,4.01133 2.67422,3.8628z"/>
  <path class="fil10 str0" d="M35.8584 28.8686l2.72089 1.05682 1.10541 2.27095c0,0 -0.382056,0.273418 -1.01615,-0.37041 -0.634181,-0.643828 -5.04807,-1.64442 -5.04807,-1.64442l-2.87211 0.669119 0.412996 -2.08671c0,0 4.64273,0.432377 4.69704,0.104639z"/>
  <path class="fil9 str0" d="M69.3757 16.9639l0.742819 2.82283 -1.63425 0.445674c0,0 8.69099e-005,1.63417 0.148616,0.742819 0.148529,-0.891348 -1.63425,-5.05129 -1.63425,-5.05129l-2.22854 -1.9314 1.9314 -0.891435c0,0 2.37707,4.01133 2.67422,3.8628z"/>
  <path class="fil9 str0" d="M51.6458 26.2211l-3.88609 1.99589 -2.49492 0.393267c0,0 -0.149833,-0.445326 0.651303,-0.863536 0.801135,-0.41821 3.04845,-4.34671 3.04845,-4.34671l0.199806 -2.94225 1.87473 1.00503c0,0 0.309225,4.61057 0.606718,4.75832z"/>
  <path class="fil11 str0" d="M13.1929 20.0422l52.9916 -18.1403c0,0 5.05729,0.219882 5.49705,3.18829 0.439764,2.96841 1.42923,6.37658 -1.31929,7.58593 -2.74852,1.20935 -51.2325,21.2186 -51.2325,21.2186l-5.49705 -2.08888 -1.75906 -4.61752c0,0 1.31929,-7.03622 1.31929,-7.14616z"/>
  <path class="fil4" d="M72.0684 7.50415c0.314614,2.21307 0.310964,4.28448 -1.70613,5.17201 -2.74852,1.20935 -51.2325,21.2186 -51.2325,21.2186l-2.04873 -0.778539 3.36802 -4.05886 4.94734 -2.19882 2.30876 0.109941 2.85847 -1.53917 4.72746 -0.439764c0,0 0.109941,-0.439764 0.879528,-0.989469 0.769587,-0.549705 3.95788,-2.30876 3.95788,-2.30876 0,0 -4.8374,0.329823 -3.07835,-0.109941 1.75906,-0.439764 1.53917,-1.97894 4.2877,-0.989469 2.74852,0.989469 4.17776,0.769587 4.17776,0.769587 0,0 -2.30876,-0.989469 -0.109941,-1.75906 2.19882,-0.769587 3.40817,-1.42923 3.40817,-1.42923l1.31929 -0.329823c0,0 -0.219882,0.879528 0.989469,0.219882 1.20935,-0.659646 2.63858,-0.329823 2.4187,-0.989469 -0.219882,-0.659646 -0.219882,-0.989469 -0.219882,-0.989469 0,0 3.73799,-1.75906 6.59646,-2.19882 2.85847,-0.439764 3.07835,-0.659646 3.07835,-0.659646l3.29823 -1.97894c0,0 3.62805,1.64911 3.95788,-0.219882 0.319481,-1.81059 1.25793,-3.51794 1.81607,-3.52289z"/>
  <path class="fil5" d="M72.2039 9.80691c-0.0889088,1.25724 -0.55631,2.30372 -1.84162,2.86924 -2.74852,1.20935 -51.2325,21.2186 -51.2325,21.2186l-2.03273 -0.772455c1.42993,-0.813216 2.69238,-1.42636 2.69238,-1.42636 2.85847,-0.769587 5.05729,-1.20935 5.82687,-1.64911 0.769587,-0.439764 1.42923,-1.869 3.51811,-2.19882 2.08888,-0.329823 1.42923,-1.53917 3.84793,-1.869 2.4187,-0.329823 2.63858,-0.219882 4.39764,-0.659646 1.75906,-0.439764 0,0.439764 2.96841,-1.20935 2.96841,-1.64911 10.7742,-4.94734 10.7742,-4.94734l4.2877 -2.96841c0,0 6.04675,-0.659646 7.03622,-1.20935 0.989469,-0.549705 2.96841,-1.42923 4.50758,-1.869 1.05057,-0.300187 1.58906,-0.805307 2.1047,-1.20066 0.508597,-0.024074 0.937236,-0.195373 1.12114,-0.636789 0.595333,-0.368237 1.33841,-1.06412 2.02396,-1.47156z"/>
  <path class="fil6 str0" d="M14.6511 19.6024c3.97317,0 7.19544,4.94587 7.19544,8.37655 0,3.43068 -1.1798,4.87634 -2.99135,6.28237l-8.40818 0c-1.81155,-1.40603 -2.99135,-2.85169 -2.99135,-6.28237 0,-3.43068 3.22227,-8.37655 7.19544,-8.37655z"/>
  <path class="fil7" d="M47.6044 14.875l1.64911 -0.769587 0.659646 0.659646c0,0 -2.08888,0.989469 -2.63858,0.989469 -0.549705,0 -0.329823,-0.549705 -0.329823,-0.549705l0.659646 -0.329823z"/>
  <path class="fil7" d="M53.6512 11.027l1.869 -0.439764c0,0 0.439764,0.769587 -0.439764,0.989469 -0.879528,0.219882 -3.62805,1.31929 -3.62805,1.31929l1.09941 -0.879528 1.09941 -0.989469z"/>
  <path class="fil7" d="M60.0278 10.4773c0,0 0.769587,0.769587 0,0.769587 -0.769587,0 -2.96841,0.659646 -2.96841,0.659646 0,0 -0.109941,-0.659646 0.769587,-0.769587 0.879528,-0.109941 2.19882,-0.659646 2.19882,-0.659646z"/>
  <path class="fil7" d="M67.3938 8.38845c1.31929,-0.109941 2.85847,-0.659646 2.19882,-0.329823 -0.659646,0.329823 -1.31929,1.20935 -2.08888,1.42923 -0.769587,0.219882 -1.97894,0.329823 -1.97894,0.329823l1.869 -1.42923z"/>
  <path class="fil7" d="M23.6696 25.0559l1.74489 -0.517027 0.0565783 -0.931152c0,0 -2.21985,0.643828 -2.63146,1.00824 -0.411605,0.364413 0.117415,0.63027 0.117415,0.63027l0.712574 -0.190333z"/>
  <path class="fil7" d="M30.7476 23.9285l1.69083 -0.909686c0,0 -0.180859,-0.867708 -0.985123,-0.449324 -0.804264,0.418384 -3.59094,1.41724 -3.59094,1.41724l1.4062 -0.0703101 1.47903 0.0120805z"/>
  <path class="fil7" d="M35.8862 20.113c0,0 0.0660515,-1.08637 -0.510161,-0.576212 -0.576212,0.510161 -2.65979,1.4739 -2.65979,1.4739 0,0 0.355027,0.566739 1.08637,0.0659646 0.731433,-0.500688 2.08358,-0.963657 2.08358,-0.963657z"/>
  <path class="fil7" d="M42.786 16.7941c1.06065,-0.79227 2.5774,-1.40099 1.86491,-1.21065 -0.712487,0.190333 -1.78947,-0.0309399 -2.51143,0.314614 -0.72196,0.345554 -1.7003,1.06491 -1.7003,1.06491l2.34683 -0.168866z"/>
  <path class="fil7" d="M44.3961 14.268l1.34415 -0.627229 0.537711 0.537624c0,0 -1.70265,0.806524 -2.15067,0.806524 -0.44802,0 -0.268812,-0.44802 -0.268812,-0.44802l0.537624 -0.268899z"/>
  <path class="fil7" d="M49.3247 11.1317l1.52336 -0.358416c0,0 0.358503,0.627229 -0.358416,0.806437 -0.716833,0.179208 -2.95711,1.07534 -2.95711,1.07534l0.896041 -0.71692 0.896128 -0.806437z"/>
  <path class="fil7" d="M54.522 10.6836c0,0 0.627315,0.627315 0,0.627315 -0.627229,0 -2.41948,0.537624 -2.41948,0.537624 0,0 -0.0896041,-0.537624 0.627315,-0.627229 0.71692,-0.0896041 1.79217,-0.537711 1.79217,-0.537711z"/>
  <path class="fil7" d="M60.5259 8.98101c1.07534,-0.0896041 2.32988,-0.537624 1.79226,-0.268812 -0.537711,0.268812 -1.07534,0.985732 -1.70265,1.16494 -0.627229,0.179208 -1.61296,0.268812 -1.61296,0.268812l1.52336 -1.16494z"/>
  <path class="fil8" d="M14.438 20.2856c1.53352,0.159306 6.75264,0.267769 7.0211,8.28746 0.103423,3.08991 -1.65103,4.93109 -4.04227,5.89092 -0.390921,-0.0175558 -0.80774,-0.0358938 -1.23942,-0.0547532 2.66779,-0.706143 5.61768,-2.15241 4.90571,-7.07394 -0.465837,-3.21992 -0.593768,-5.79802 -6.44541,-6.73299 -3.57104,-0.57065 -6.65573,4.43988 -6.53189,6.97956 0.126628,2.59913 1.22395,5.34687 3.08626,6.61593l-0.759505 -0.0314614c-1.74472,-1.38604 -2.65518,-3.90443 -2.58905,-6.45836 0.104379,-4.03001 3.08452,-7.78686 6.59446,-7.42236z"/>
  <path class="fil8" d="M14.4621 21.0364c1.36049,0.141229 5.95898,0.331909 6.22866,7.44496 0.141924,3.74321 -2.72732,5.47645 -6.03146,5.86251l-2.01753 -0.0854324c-2.67135,-0.661123 -4.10745,-3.54401 -4.02984,-6.54449 0.092559,-3.57512 2.73653,-7.00102 5.85016,-6.67755zm0.14879 0.249779c-3.48091,-0.434028 -5.65523,3.95214 -5.72215,6.08578 -0.110462,3.51846 2.02491,7.38743 5.76821,6.68798 2.345,-0.4382 6.33547,-0.951663 5.59934,-6.34659 -0.390312,-2.8602 -0.432724,-5.77707 -5.6454,-6.42716z"/>
  <path class="fil8" d="M14.4836 21.792c1.2064,0.125237 5.28412,0.294364 5.52321,6.60185 0.12993,3.42668 -2.58583,4.95647 -5.63411,5.22815 -3.35733,0.299144 -5.20468,-2.73097 -5.07667,-5.90865 0.127584,-3.16847 2.42652,-6.20815 5.18756,-5.92134zm0.131929 0.221533c-2.78607,-0.494778 -4.76744,3.24452 -5.02374,5.25909 -0.39431,3.09877 1.89968,6.68598 5.06459,6.06796 2.07671,-0.405521 5.61794,-0.843895 4.96516,-5.62785 -0.346075,-2.5362 -0.414126,-4.88373 -5.00601,-5.6992z"/>
  <path class="fil8" d="M14.5069 22.6083c1.15842,-0.0644002 4.84175,0.441328 4.76101,5.69077 -0.0455408,2.95589 -2.22915,4.2704 -4.85661,4.50662 -2.86785,0.257948 -4.32098,-2.35352 -4.37609,-5.09327 -0.0517983,-2.57809 1.51006,-4.93935 4.47169,-5.10413zm0.113678 0.191028c-2.7792,-0.130626 -4.23581,2.87359 -4.33037,4.53331 -0.150528,2.64232 1.63643,5.73857 4.36566,5.2305 1.7926,-0.333647 4.8786,-0.733432 4.27996,-4.85114 -0.298362,-2.05159 -0.301925,-4.72416 -4.31525,-4.91267z"/>
  <path class="fil8" d="M14.1926 23.3503c-0.980256,0.194852 -4.07294,0.992685 -3.43868,5.44977 0.3572,2.5097 2.35708,3.35003 4.61856,3.21619 2.46841,-0.146009 3.48578,-2.56245 3.17543,-4.89216 -0.30627,-2.2992 -1.98928,-4.24433 -4.35531,-3.7738zm-0.07622 0.177035c2.35109,-0.465402 3.91442,1.90559 4.17367,3.30596 0.412735,2.2295 -0.774454,5.09222 -3.15179,5.00775 -1.56151,-0.0555354 -4.23086,-0.00243348 -4.16489,-3.58295 0.032765,-1.784 -0.252039,-4.05886 3.14301,-4.73077z"/>
  <path class="fil8" d="M14.2543 23.9511c-0.84346,0.167649 -3.50447,0.854063 -2.95867,4.68905 0.307313,2.15945 2.02813,2.88254 3.97395,2.76738 2.12382,-0.125672 2.99926,-2.20482 2.73219,-4.20939 -0.263598,-1.97824 -1.7116,-3.65187 -3.74747,-3.24704zm-0.06553 0.152266c2.02291,-0.400394 3.36802,1.63964 3.59112,2.84456 0.355114,1.91836 -0.666338,4.38156 -2.71185,4.30882 -1.34363,-0.0477135 -3.64039,-0.00208584 -3.58364,-3.08287 0.0282457,-1.53492 -0.21684,-3.4923 2.70437,-4.07051z"/>
  <path class="fil8" d="M15.7059 24.7578c-0.683459,-0.240393 -2.89723,-0.88283 -3.89417,2.18222 -0.561264,1.72586 0.444457,3.0023 1.92201,3.75746 1.61287,0.824253 3.01751,-0.331735 3.55201,-1.92601 0.527456,-1.57333 0.0698755,-3.43329 -1.57985,-4.01367zm-0.104031 0.0841288c1.63869,0.577951 1.88655,2.66379 1.61148,3.64917 -0.438026,1.56864 -2.09062,2.94485 -3.57321,2.00814 -0.973912,-0.615322 -2.68508,-1.57324 -1.51892,-3.82177 0.580992,-1.12027 1.11445,-2.67022 3.48065,-1.83554z"/>
  <path class="fil8" d="M13.2742 25.6183c-0.443762,0.404913 -1.79556,1.77479 -0.297406,3.82855 0.843634,1.15642 2.0761,0.955835 3.18342,0.181294 1.20857,-0.845459 1.0842,-2.38446 0.311746,-3.46458 -0.762286,-1.06595 -2.12651,-1.52257 -3.19776,-0.545273zm0.00834335 0.11333c1.06491,-0.970088 2.48128,-0.260903 2.98231,0.36563 0.797659,0.997465 0.954183,2.81501 -0.269247,3.5155 -0.803656,0.460101 -2.13842,1.32138 -3.05114,-0.508336 -0.454799,-0.911598 -1.19979,-1.97198 0.338079,-3.3728z"/>
  <path class="fil8" d="M13.1378 26.6512c-0.204412,0.424033 -0.790706,1.81155 0.80774,2.78433 0.900039,0.547706 1.71299,0.0194678 2.28556,-0.872836 0.624969,-0.973912 0.1288,-2.01648 -0.700928,-2.53299 -0.818865,-0.509639 -1.89907,-0.401958 -2.39237,0.621492zm0.0358938 0.0770021c0.490867,-1.01641 1.67475,-0.962874 2.19326,-0.679983 0.825557,0.450454 1.41828,1.67875 0.744383,2.5555 -0.442632,0.575865 -1.15199,1.60053 -2.27947,0.601329 -0.561785,-0.497907 -1.36701,-1.00902 -0.658168,-2.47684z"/>
  <path class="fil8" d="M15.5333 26.7838c-0.215536,-0.22866 -0.936802,-0.91829 -1.83588,0.0307661 -0.50625,0.534409 -0.347031,1.21743 0.0785665,1.80025 0.464533,0.63618 1.18988,0.486521 1.66354,-0.00382403 0.467401,-0.484001 0.613931,-1.27514 0.0937758,-1.82719zm-0.0534496 0.0105161c0.516418,0.548923 0.252386,1.38239 -0.0195547,1.69665 -0.433072,0.50034 -1.28922,0.682503 -1.68562,0.0304185 -0.260295,-0.428292 -0.738908,-1.13452 0.083868,-1.74272 0.409954,-0.303055 0.875617,-0.776974 1.6213,0.0156438z"/>
  <path class="fil8" d="M14.5633 26.9551c-0.159306,0.0317221 -0.662079,0.161392 -0.559004,0.885959 0.0580558,0.408042 0.383186,0.544664 0.750901,0.522937 0.401263,-0.0238133 0.566652,-0.416646 0.516245,-0.795399 -0.0497994,-0.373799 -0.323479,-0.689977 -0.708142,-0.613497zm-0.0123412 0.0287672c0.38223,-0.0756116 0.636354,0.309834 0.678505,0.537451 0.0670944,0.362501 -0.125845,0.827903 -0.512334,0.814172 -0.253864,-0.00903863 -0.687892,-0.000434549 -0.677115,-0.58247 0.0053015,-0.290105 -0.0410215,-0.659907 0.510943,-0.769152z"/>
  <path class="fil1 str0" d="M24.8872 48.1317l0.898214 -30.1051 3.51855 -0.275244c-0.313049,10.2185 -0.626099,20.437 -0.939148,30.6555 -1.45244,0.641134 -2.61164,0.549444 -3.47761,-0.275244z"/>
  <ellipse class="fil2 str0" transform="matrix(0.636364 0 -0.0416228 0.560015 27.6416 18.0459)" rx="2.74852" ry="1.53917"/>
  <path class="fil1 str0" d="M65.5578 28.3716l0.0766545 -26.9024 3.51107 -0.245955 -0.432377 26.7347c-0.692672,1.09055 -1.83727,0.886481 -3.15535,0.413691z"/>
  <ellipse class="fil2 str0" transform="matrix(0.636364 0 -0.0263389 0.500439 67.4422 1.46302)" rx="2.74852" ry="1.53917"/>
  <path class="fil12" d="M41.5577 26.6381c0.772455,-0.289671 0.772455,-2.70359 1.44835,-3.28293 0.675898,-0.579341 1.3518,0.386227 2.12425,-1.25524 0.772455,-1.64147 1.06213,-2.12425 1.44835,-3.47605 0.386227,-1.3518 0.675898,-4.34506 0.675898,-4.34506 0,0 0.772455,2.22081 0.772455,2.99326 0,0.772455 2.02769,2.70359 0.869012,3.86227 -1.15868,1.15868 -0.193114,3.08982 -0.482784,4.15195 -0.289671,1.06213 0.579341,2.02769 -0.965569,2.31736 -1.54491,0.289671 -2.51048,0.482784 -3.37949,0.386227 -0.869012,-0.0965569 -2.02769,-1.25524 -2.51048,-1.3518z"/>
  <path class="fil13" d="M43.006 26.8313l2.02769 -1.93114 0.869012 -2.12425c0,0 0.386227,0.675898 0.482784,1.83458 0.0965569,1.15868 0.675898,0.869012 0.0965569,1.64147 -0.579341,0.772455 -0.482784,0.965569 -1.3518,1.15868 -0.869012,0.193114 -1.54491,0.193114 -1.54491,0.193114l-0.579341 -0.772455z"/>
  <path class="fil12" d="M52.112 22.241c0,0 0.879528,-1.09941 2.19882,-3.29823 1.31929,-2.19882 0.879528,-2.85847 1.31929,-4.61752 0.439764,-1.75906 0.659646,-4.8374 1.75906,-3.51811 1.09941,1.31929 1.75906,4.8374 1.75906,4.8374l1.97894 -1.75906c0,0 -0.219882,-1.75906 0.659646,-2.85847 0.879528,-1.09941 1.53917,-1.75906 1.53917,-1.75906l1.31929 -3.07835 -0.659646 5.27717 -1.53917 2.19882c0,0 1.75906,2.85847 0.219882,3.29823 -1.53917,0.439764 -3.51811,0 -3.95788,1.31929 -0.439764,1.31929 0,1.97894 -1.53917,2.85847 -1.53917,0.879528 -3.29823,1.31929 -3.29823,1.31929l-1.75906 -0.219882z"/>
  <path class="fil12" d="M32.3227 29.9369c0,-1.31929 -1.53917,-0.439764 -0.219882,-3.51811 1.31929,-3.07835 1.09941,-3.73799 1.09941,-3.73799l0.659646 -3.29823 1.53917 3.29823 -0.219882 3.95788 1.31929 0.219882 -1.75906 2.4187 -2.4187 0.659646z"/>
  <path class="fil13" d="M53.3214 21.4714c0.659646,-0.659646 2.19882,-1.64911 2.19882,-1.64911l0.769587 -2.08888c0,0 0.989469,-1.09941 0.989469,-0.329823 0,0.769587 0.219882,2.08888 0.219882,1.20935 0,-0.879528 0.329823,-1.42923 0.329823,-1.42923l1.75906 -0.989469 1.09941 -0.989469c0,0 -0.879528,1.64911 -1.42923,2.30876 -0.549705,0.659646 0.329823,1.53917 -0.549705,1.97894 -0.879528,0.439764 -0.879528,0.769587 -1.97894,1.20935 -1.09941,0.439764 -3.40817,0.769587 -3.40817,0.769587z"/>
  <path class="fil13" d="M31.5531 29.2772c1.20935,-0.439764 1.64911,-1.31929 1.64911,-1.31929l0.329823 -0.989469 0.659646 0.219882 0.329823 1.31929c0,0 0,0.659646 -0.989469,0.879528 -0.989469,0.219882 -1.869,-0.109941 -1.97894,-0.109941z"/>
 </g>
</svg>
