<svg xmlns="http://www.w3.org/2000/svg" viewBox="38 100 885 745" width="48" height="48">
  <g transform="translate(0,945) scale(1,-1)">
    <path d="M316.8480128955597 100.00268529358618V252.08002149259943H37.69736843791241L219.7733619901326 516.8480128955597H128.62003223889914L360 845.3799677611008L480 674.9953007362242L600 845.3799677611008L831.3799677611008 516.8480128955597H741.2266380098674L922.3026315620876 252.08002149259943H643.7673200795637V100.00268529358618H556.8480128955597V252.08002149259943H403.76732007956366V100.00268529358618ZM651.5346401591273 297.46267454728644H834.9986573532069L653.3073308258633 562.2306659502467H739.9993286766035L600 761.3066595024668L510.38332437808356 632.8433136317839L591.3799677611008 516.8480128955597H501.22663800986743ZM125.61667562191643 297.46267454728644H594.9986573532069L413.3073308258634 562.2306659502467H499.99932867660345L360 761.3066595024668L220.00067132339655 562.2306659502467H307.30800214925995ZM125.61667562191643 297.46267454728644H307.30800214925995H220.00067132339655H360H499.99932867660345H413.3073308258634H594.9986573532069ZM651.5346401591273 297.46267454728644H501.22663800986743H591.3799677611008H510.38332437808356H600H739.9993286766035H653.3073308258633H834.9986573532069ZM556.8480128955597 252.08002149259943H643.7673200795637H556.8480128955597ZM682.917964537211 252.08002149259943Z" fill="black"/>
  </g>
</svg>