<?xml version="1.0" encoding="UTF-8" standalone="no"?>
<!-- Created with Inkscape (http://www.inkscape.org/) -->
<svg
   xmlns:dc="http://purl.org/dc/elements/1.1/"
   xmlns:cc="http://web.resource.org/cc/"
   xmlns:rdf="http://www.w3.org/1999/02/22-rdf-syntax-ns#"
   xmlns:svg="http://www.w3.org/2000/svg"
   xmlns="http://www.w3.org/2000/svg"
   xmlns:sodipodi="http://sodipodi.sourceforge.net/DTD/sodipodi-0.dtd"
   xmlns:inkscape="http://www.inkscape.org/namespaces/inkscape"
   version="1.0"
   width="300"
   height="158"
   viewBox="0 0 438.221 230.506"
   id="Layer_1"
   xml:space="preserve"
   sodipodi:version="0.32"
   inkscape:version="0.45.1"
   sodipodi:docname="Hunters Fire.svg"
   inkscape:output_extension="org.inkscape.output.svg.inkscape"
   sodipodi:docbase="F:\SVG Uploaded to CC site\Misc\Fires and Cranes"><sodipodi:namedview
   inkscape:window-height="573"
   inkscape:window-width="744"
   inkscape:pageshadow="2"
   inkscape:pageopacity="0.0"
   guidetolerance="10.0"
   gridtolerance="10.0"
   objecttolerance="10.0"
   borderopacity="1.0"
   bordercolor="#666666"
   pagecolor="#ffffff"
   id="base"
   width="300px"
   height="158px"
   inkscape:zoom="1.5038074"
   inkscape:cx="219.1105"
   inkscape:cy="115.253"
   inkscape:window-x="1434"
   inkscape:window-y="283"
   inkscape:current-layer="Layer_1" /><defs
   id="defs108" />
<metadata
   id="metadata4">
    <rdf:RDF>
      <cc:Work
   rdf:about="">
        <dc:title>Hunters Fire</dc:title>
        <dc:description>Hunters Fire</dc:description>
        <dc:subject>
          <rdf:Bag>
            <rdf:li>camp</rdf:li>
            <rdf:li>cooking</rdf:li>
            <rdf:li>fire</rdf:li>
          </rdf:Bag>
        </dc:subject>
        <dc:publisher>
          <cc:Agent
   rdf:about="http://www.openclipart.org/">
            <dc:title>Open Clip Art Project</dc:title>
          </cc:Agent>
        </dc:publisher>
        <dc:creator>
          <cc:Agent
   rdf:about="http://web.resource.org/cc/PublicDomain">
            <dc:title>Gerald G.</dc:title>
          </cc:Agent>
        </dc:creator>
        <dc:rights>
          <cc:Agent
   rdf:about="http://web.resource.org/cc/PublicDomain">
            <dc:title>Public Domain</dc:title>
          </cc:Agent>
        </dc:rights>
        <dc:date>2005/05/13</dc:date>
        <dc:format>image/svg+xml</dc:format>
        <dc:type
   rdf:resource="http://purl.org/dc/dcmitype/StillImage" />
        <cc:license
   rdf:resource="http://web.resource.org/cc/PublicDomain" />
        <dc:language>en</dc:language>
      </cc:Work>
      <cc:License
   rdf:about="http://web.resource.org/cc/PublicDomain">
        <cc:permits
   rdf:resource="http://web.resource.org/cc/Reproduction" />
        <cc:permits
   rdf:resource="http://web.resource.org/cc/Distribution" />
        <cc:permits
   rdf:resource="http://web.resource.org/cc/DerivativeWorks" />
      </cc:License>
    </rdf:RDF>
  </metadata>

<g
   id="g3">
	<path
   d="M 131.062,56.807 L 127.498,42.623 L 127.498,42.623 C 126.922,38.591 123.214,35.315 116.086,32.399 C 108.778,29.411 100.822,26.531 85.018,25.307 C 69.034,24.047 36.382,28.259 22.054,25.307 C 7.834,22.247 -2.03,11.807 0.382,7.595 C 2.866,3.347 23.278,-0.757 36.202,0.143 C 49.054,0.935 63.634,9.395 76.738,12.347 C 89.734,15.155 102.082,16.775 113.35,17.063 C 124.474,17.279 134.086,16.271 142.87,13.895 L 142.87,13.895 C 162.526,10.223 179.338,7.559 194.422,6.047 C 209.434,4.355 214.942,3.635 232.186,4.463 C 249.43,5.363 270.491,7.451 296.733,11.159 L 296.733,11.159 L 337.667,0.935 L 337.667,0.935 C 349.942,6.695 358.546,11.627 364.019,15.875 C 369.419,20.015 369.023,22.031 369.923,26.099 C 370.714,30.167 370.282,34.847 368.771,40.283 L 368.771,40.283 C 375.863,46.475 380.615,52.019 383.314,57.599 C 385.908,62.999 386.302,68.111 384.503,72.935 L 384.503,72.935 L 375.431,97.739 L 417.947,83.951 L 417.947,83.951 C 421.908,85.751 425.58,89.027 428.963,93.779 C 432.276,98.531 437.244,104.327 438.035,112.283 C 438.756,120.203 437.172,129.636 433.283,141.012 L 433.283,141.012 C 390.767,156.528 354.336,170.64 322.332,183.924 C 290.256,197.172 261.996,212.256 242.807,220.14 C 223.657,227.915 212.568,231.192 208.572,230.364 L 208.572,230.364 C 200.58,225.648 192.156,222.12 183.012,219.636 C 173.832,217.044 158.064,217.296 153.888,215.676 C 149.712,214.092 153.24,214.667 157.812,210.167 C 162.204,205.451 175.236,195.659 180.24,188.136 C 185.136,180.612 187.548,173.052 187.332,165.312 L 187.332,165.312 L 205.44,157.86 L 205.44,157.86 C 199.932,156.78 196.26,155.592 194.028,153.9 C 191.868,152.172 191.292,150.336 192.444,147.996 L 192.444,147.996 C 189.816,148.429 187.368,148.465 184.956,148.392 C 182.472,148.247 180.168,147.852 177.9,147.204 L 177.9,147.204 C 168.396,152.892 160.224,156.564 152.7,158.616 C 145.176,160.633 136.896,161.137 133.404,159.012 C 129.912,156.743 129.444,152.207 131.856,145.26 L 131.856,145.26 L 100.752,153.108 L 100.752,153.108 C 94.704,146.772 86.928,142.236 77.136,139.356 C 67.236,136.404 47.652,137.016 42.108,135.792 C 36.6,134.532 41.244,134.244 44.088,131.868 C 46.86,129.385 52.404,127.188 58.632,121.248 C 64.752,115.164 71.952,106.956 80.664,96.048 L 80.664,96.048 L 134.196,74.016 L 134.196,74.016 C 133.149,68.291 132.105,62.567 131.062,56.807 L 131.062,56.807 z "
   style="fill-rule:evenodd;stroke:#000000;stroke-width:0.036;stroke-miterlimit:10"
   id="path5" />
	<path
   d="M 136.965,17.351 C 126.561,19.655 115.473,20.267 102.729,19.331 C 89.841,18.179 73.605,14.255 61.401,11.447 C 49.27,8.603 40.053,3.311 30.693,2.771 C 21.153,2.267 8.265,5.399 5.493,8.279 C 2.865,10.979 8.481,16.883 14.961,19.331 C 21.333,21.635 32.853,22.535 43.689,22.859 C 54.525,23.147 67.809,21.275 79.509,21.671 C 91.245,22.031 104.709,23.219 112.953,25.235 C 120.981,27.215 125.697,29.915 127.497,33.479 L 127.497,33.479 C 128.829,29.303 130.233,25.991 131.853,23.255 C 133.438,20.555 135.093,18.539 136.965,17.351 L 136.965,17.351 z "
   style="fill:#616161;fill-rule:evenodd;stroke:#000000;stroke-width:0.036;stroke-miterlimit:10"
   id="path7" />
	<path
   d="M 21.261,9.467 C 18.309,9.071 16.365,9.791 16.545,11.051 C 16.545,12.275 18.705,16.055 21.657,16.559 C 24.645,16.847 34.113,14.651 34.221,13.427 C 34.042,12.203 24.213,9.863 21.261,9.467 L 21.261,9.467 z "
   style="fill-rule:evenodd;stroke:#000000;stroke-width:0.036;stroke-miterlimit:10"
   id="path9" />
	<path
   d="M 157.414,55.907 C 146.938,49.967 139.774,44.639 135.778,39.779 C 131.674,34.847 129.73,31.031 133.402,26.783 C 137.038,22.463 144.85,17.387 157.81,14.183 C 170.806,10.907 191.254,7.847 210.946,7.523 C 230.565,7.199 256.774,9.791 274.702,12.239 C 292.415,14.615 302.962,17.063 317.182,21.671 C 331.438,26.243 348.754,32.327 359.698,39.383 C 370.534,46.331 377.698,54.071 381.729,62.999 L 381.729,62.999 C 379.354,64.691 376.762,66.131 373.557,67.463 C 370.354,68.795 366.827,69.839 362.83,70.883 L 362.83,70.883 C 357.717,64.655 348.717,58.535 335.289,51.983 C 321.682,45.359 302.06,36.251 282.549,31.895 C 262.858,27.539 238.125,25.847 219.189,25.991 C 200.253,26.135 181.21,29.304 170.409,32.291 C 159.609,35.171 157.233,38.807 155.073,42.911 C 152.877,46.835 153.706,51.119 157.414,55.907 L 157.414,55.907 z "
   style="fill:#616161;fill-rule:evenodd;stroke:#000000;stroke-width:0.036;stroke-miterlimit:10"
   id="path11" />
	<path
   d="M 211.341,66.923 C 208.137,65.519 206.697,63.863 207.021,61.811 C 207.309,59.651 209.325,56.087 212.925,54.719 C 216.381,53.279 222.789,53.171 228.261,53.567 C 233.804,53.891 239.349,54.935 245.577,56.699 L 245.577,56.699 C 242.337,51.911 241.94,48.455 244.388,46.475 C 246.8,44.459 253.712,44.315 260.12,44.495 C 266.456,44.567 275.6,46.475 282.153,46.871 C 288.632,47.087 294.573,45.071 298.712,46.079 C 302.564,47.087 302.312,51.227 306.165,52.379 C 310.052,53.315 317.577,50.867 321.933,51.983 C 326.216,53.099 328.845,57.779 331.761,59.075 C 334.605,60.263 337.341,57.527 338.853,59.471 C 340.22,61.343 339.392,67.427 340.4,70.487 C 341.373,73.403 342.742,75.635 344.648,77.183 L 344.648,77.183 L 353.937,74.807 L 360.093,72.035 L 360.093,72.035 C 356.708,67.175 350.409,62.423 340.796,57.491 C 331.077,52.559 314.372,46.655 302.636,42.551 C 290.9,38.375 283.88,35.135 270.741,32.687 C 257.348,30.167 239.024,27.899 223.544,27.971 C 207.884,28.079 189.128,30.563 178.256,33.083 C 167.492,35.423 161.768,38.447 158.996,42.155 C 156.08,45.791 156.692,51.227 160.976,54.719 C 165.296,58.067 176.024,60.551 184.556,62.603 C 193.017,64.619 201.801,66.059 211.341,66.923 L 211.341,66.923 z "
   style="fill:#616161;fill-rule:evenodd;stroke:#000000;stroke-width:0.036;stroke-miterlimit:10"
   id="path13" />
	<path
   d="M 298.533,81.503 C 292.304,77.651 286.941,74.195 282.154,71.135 C 277.22,67.895 274.377,64.655 269.877,62.963 C 265.232,61.235 259.006,62.747 255.225,61.235 C 251.301,59.651 248.457,55.835 247.233,53.675 C 245.973,51.335 243.922,48.635 247.881,47.663 C 251.805,46.691 264.406,47.447 270.526,47.843 C 276.465,48.059 279.274,49.463 283.667,49.571 C 287.95,49.571 293.026,47.627 296.374,48.311 C 299.614,49.031 299.507,52.883 303.286,53.891 C 307.03,54.683 315.022,53.063 318.802,53.891 C 322.402,54.791 322.474,57.635 325.247,59.075 C 328.054,60.299 333.382,60.191 335.397,61.667 C 337.126,62.999 335.542,65.051 336.477,67.679 C 337.377,70.343 338.889,73.439 341.014,77.399 L 341.014,77.399 C 334.93,79.631 328.522,80.927 321.393,81.683 C 314.229,82.367 306.742,82.259 298.533,81.503 L 298.533,81.503 z "
   style="fill:#ffffff;fill-rule:evenodd;stroke:#000000;stroke-width:0.036;stroke-miterlimit:10"
   id="path15" />
	<path
   d="M 291.406,66.167 C 292.449,68.255 293.133,69.875 298.316,71.999 C 303.464,74.123 316.533,78.839 322.257,78.911 C 327.837,78.767 333.884,75.095 331.941,71.783 C 329.746,68.399 317.181,61.199 310.377,59.075 C 303.465,56.879 294.897,57.851 291.621,59.075 C 288.381,60.227 290.254,63.935 291.406,66.167 L 291.406,66.167 z "
   style="fill-rule:evenodd;stroke:#000000;stroke-width:0.036;stroke-miterlimit:10"
   id="path17" />
	<path
   d="M 308.865,60.803 C 305.121,59.795 301.052,59.759 298.316,60.155 C 295.545,60.443 293.205,61.235 292.701,62.531 C 292.197,63.791 292.556,65.735 295.293,67.679 C 297.922,69.443 303.969,72.035 308.434,73.511 C 312.789,74.915 317.901,76.427 321.393,76.535 C 324.813,76.643 328.522,75.851 328.485,74.159 C 328.09,72.359 323.481,68.615 320.098,66.383 C 316.822,64.079 312.43,61.847 308.865,60.803 L 308.865,60.803 z "
   style="fill:#ffd746;fill-rule:evenodd;stroke:#000000;stroke-width:0.036;stroke-miterlimit:10"
   id="path19" />
	<path
   d="M 289.064,78.911 C 284.709,75.707 280.892,72.971 277.185,70.703 C 273.476,68.219 270.849,66.311 267.068,65.123 C 263.109,63.971 258.105,64.907 254.144,64.043 C 250.148,62.927 247.593,60.695 243.56,59.291 C 239.421,57.851 233.984,56.519 229.773,55.835 C 225.453,54.971 221.205,54.359 218.145,54.971 C 214.941,55.475 211.845,57.311 211.233,59.507 C 210.621,61.703 211.701,64.367 214.473,67.895 L 214.473,67.895 C 220.484,69.335 226.426,70.703 232.582,71.999 C 238.738,73.223 244.822,74.375 251.121,75.455 L 251.121,75.455 C 250.906,72.791 252.129,70.847 254.793,69.623 C 257.457,68.219 263.145,67.139 266.854,67.895 C 270.418,68.615 274.125,72.395 276.323,74.375 C 278.411,76.283 279.491,78.011 279.561,79.559 L 279.561,79.559 C 282.514,79.883 285.106,80.171 287.338,80.423 C 289.606,80.603 291.369,80.747 292.918,80.855 L 292.918,80.855 C 291.658,80.207 290.361,79.559 289.064,78.911 L 289.064,78.911 z "
   style="fill:#ffffff;fill-rule:evenodd;stroke:#000000;stroke-width:0.036;stroke-miterlimit:10"
   id="path21" />
	<path
   d="M 254.145,76.103 C 255.622,73.475 257.133,71.675 259.079,70.703 C 260.915,69.695 263.327,69.803 265.343,70.055 C 267.214,70.127 268.439,69.767 270.527,71.351 C 272.47,72.827 274.74,75.419 277.187,79.127 L 277.187,79.127 C 274.054,78.911 270.707,78.551 266.855,78.047 C 262.93,77.543 258.789,76.895 254.145,76.103 L 254.145,76.103 z "
   style="fill:#ffd746;fill-rule:evenodd;stroke:#000000;stroke-width:0.036;stroke-miterlimit:10"
   id="path23" />
	<path
   d="M 374.422,70.703 C 355.846,78.803 337.629,83.591 318.801,85.355 C 299.758,86.903 277.797,82.763 262.102,80.855 C 246.442,78.875 237.981,76.463 225.885,74.159 C 213.79,71.819 200.29,69.371 190.101,67.247 C 179.985,65.015 172.677,63.935 165.117,61.235 C 157.305,58.535 150.285,55.151 144.201,51.083 C 138.117,46.871 133.113,42.119 128.901,36.431 L 128.901,36.431 C 130.305,44.459 131.889,52.199 133.653,59.939 C 135.345,67.751 136.245,76.967 139.269,82.583 C 142.257,87.983 146.145,91.331 151.329,92.483 L 151.329,92.483 C 149.745,87.875 149.313,83.375 150.033,78.695 C 150.681,73.943 152.481,69.299 155.433,64.475 L 155.433,64.475 C 159.609,74.483 163.605,82.007 167.709,87.731 C 171.741,93.311 175.593,96.767 179.553,98.099 L 179.553,98.099 C 185.385,94.499 190.065,90.827 193.989,87.083 C 197.805,83.231 200.685,79.487 202.629,75.455 L 202.629,75.455 C 204.717,81.179 205.581,85.967 205.221,90.107 C 204.789,94.139 203.133,97.415 200.253,99.791 L 200.253,99.791 C 205.545,98.819 209.361,96.623 212.097,93.347 C 214.725,89.963 216.093,85.607 216.201,79.991 L 216.201,79.991 C 219.153,83.555 220.881,87.371 221.385,91.835 C 221.817,96.263 221.026,100.943 219.01,106.271 L 219.01,106.271 C 225.094,103.679 229.702,100.331 233.229,95.939 C 236.649,91.475 238.809,86.255 239.709,79.991 L 239.709,79.991 C 241.438,85.967 242.338,91.655 242.697,97.451 C 242.914,103.211 242.59,108.683 241.437,114.263 L 241.437,114.263 C 249.392,109.979 255.585,105.731 260.158,101.519 C 264.658,97.199 267.465,93.095 268.582,88.811 L 268.582,88.811 C 271.064,93.635 272.434,98.387 272.686,103.463 C 272.938,108.503 272.075,113.471 270.094,118.764 L 270.094,118.764 C 277.655,120.816 288.022,121.535 301.774,120.924 C 315.491,120.203 331.835,118.296 351.778,114.911 L 351.778,114.911 C 361.714,105.767 369.202,97.163 374.637,88.811 C 380.037,80.387 382.991,72.503 383.889,64.871 L 383.889,64.871 L 374.422,70.703 L 374.422,70.703 z "
   style="fill:#a1a1a1;fill-rule:evenodd;stroke:#000000;stroke-width:0.036;stroke-miterlimit:10"
   id="path25" />
	<path
   d="M 301.629,12.455 L 337.197,3.239 L 337.197,3.239 C 346.666,7.811 353.541,12.023 358.654,15.875 C 363.513,19.655 365.781,22.391 367.006,26.171 C 368.194,29.879 367.906,33.947 366.141,38.375 L 366.141,38.375 C 352.354,30.923 340.33,25.199 329.495,20.807 C 318.621,16.451 309.477,13.715 301.629,12.455 L 301.629,12.455 z "
   style="fill:#a06227;fill-rule:evenodd;stroke:#000000;stroke-width:0.036;stroke-miterlimit:10"
   id="path27" />
	<path
   d="M 329.277,15.011 C 332.517,14.219 344.865,11.879 346.197,12.023 C 347.349,12.023 340.006,14.903 336.801,15.659 C 333.418,16.415 328.018,16.523 326.721,16.523 C 325.389,16.379 325.965,15.695 329.277,15.011 L 329.277,15.011 z "
   style="fill-rule:evenodd;stroke:#000000;stroke-width:0.036;stroke-miterlimit:10"
   id="path29" />
	<path
   d="M 342.346,16.955 C 344.83,16.415 353.649,15.119 354.369,15.443 C 354.98,15.623 348.644,18.179 346.197,18.683 C 343.64,19.115 340.185,18.467 339.574,18.251 C 338.961,17.963 339.789,17.351 342.346,16.955 L 342.346,16.955 z "
   style="fill-rule:evenodd;stroke:#000000;stroke-width:0.036;stroke-miterlimit:10"
   id="path31" />
	<path
   d="M 431.48,138.888 C 430.22,139.032 424.353,141.048 413.3,145.079 C 402.105,149.147 380.864,156.672 365.708,162.647 C 350.589,168.443 340.112,172.403 323.3,179.819 C 306.308,187.199 283.665,198.575 265.232,206.603 C 246.91,214.523 230.025,221.327 214.005,227.159 L 214.005,227.159 C 218.397,225.251 221.636,222.588 223.869,219.023 C 226.064,215.351 227.83,208.871 227.074,205.955 C 226.246,203.039 223.582,201.491 218.937,201.455 L 218.937,201.455 C 223.22,196.344 224.984,191.88 224.085,187.523 C 223.112,183.131 219.152,179.243 213.572,175.715 C 207.956,172.078 200.36,169.091 190.64,166.319 L 190.64,166.319 C 204.896,161.459 220.124,155.591 237.153,148.715 C 254.143,141.803 272.036,133.883 291.799,124.954 L 291.799,124.954 C 300.115,124.81 309.115,124.162 319.195,123.011 C 329.24,121.75 339.966,120.166 351.775,117.863 L 351.775,117.863 C 354.511,116.063 357.103,113.867 359.695,111.671 C 362.287,109.439 364.591,106.811 367.004,104.183 L 367.004,104.183 L 418.195,86.795 L 418.195,86.795 C 427.088,94.283 432.631,101.087 435.367,108.035 C 437.924,114.839 434.504,122.256 433.855,127.512 C 433.209,132.731 432.418,136.331 431.48,138.888 L 431.48,138.888 z "
   style="fill:#a06227;fill-rule:evenodd;stroke:#000000;stroke-width:0.036;stroke-miterlimit:10"
   id="path33" />
	<path
   d="M 325.209,147.888 C 337.918,143.568 371.145,133.2 387.561,129.024 C 403.834,124.92 422.698,121.464 422.481,123.228 C 421.942,124.92 384.645,137.592 385.438,138.888 C 386.446,139.968 424.678,130.68 428.061,130.32 C 431.086,130.068 412.725,134.82 404.518,136.944 C 396.346,138.852 379.209,143.388 379.209,142.092 C 379.174,140.688 399.01,131.615 404.301,129.024 C 409.594,126.468 411.754,126.396 410.494,126.432 C 408.98,126.287 404.373,126.144 395.697,128.375 C 386.732,130.535 372.045,134.964 358.006,139.319 C 343.858,143.567 317.434,152.603 311.926,154.079 C 306.453,155.411 312.502,152.1 325.209,147.888 L 325.209,147.888 z "
   style="fill-rule:evenodd;stroke:#000000;stroke-width:0.036;stroke-miterlimit:10"
   id="path35" />
	<path
   d="M 392.061,119.159 C 398.469,117.827 418.702,112.967 422.086,111.671 C 425.217,110.411 418.27,110.411 411.789,111.671 C 405.201,112.931 386.842,117.323 383.494,118.728 C 380.182,119.915 385.582,120.239 392.061,119.159 L 392.061,119.159 z "
   style="fill-rule:evenodd;stroke:#000000;stroke-width:0.036;stroke-miterlimit:10"
   id="path37" />
	<path
   d="M 347.061,128.159 C 340.438,129.851 329.026,133.092 314.915,138.023 C 300.587,142.919 266.495,155.303 262.642,157.103 C 259.042,158.615 276.97,153.071 292.415,148.103 C 307.714,143.027 344.397,131.147 353.722,127.727 C 362.758,124.344 353.541,126.432 347.061,128.159 L 347.061,128.159 z "
   style="fill-rule:evenodd;stroke:#000000;stroke-width:0.036;stroke-miterlimit:10"
   id="path39" />
	<path
   d="M 247.414,154.943 C 256.738,151.847 280.605,143.279 292.629,139.103 C 304.438,134.747 317.217,130.355 317.938,129.671 C 318.477,129.095 305.411,132.406 296.086,135.431 C 286.51,138.419 271.641,143.458 261.777,147.239 C 251.914,150.947 239.961,155.88 237.586,157.319 C 235.174,158.544 238.125,157.932 247.414,154.943 L 247.414,154.943 z "
   style="fill-rule:evenodd;stroke:#000000;stroke-width:0.036;stroke-miterlimit:10"
   id="path41" />
	<path
   d="M 235.426,200.808 C 239.457,199.476 267.213,188.028 282.586,182.16 C 297.885,176.184 324.777,166.536 326.721,165.456 C 328.342,164.412 304.69,171.576 293.278,175.717 C 281.758,179.748 268.294,185.364 258.575,189.649 C 248.854,193.896 231.465,201.924 235.426,200.808 L 235.426,200.808 z "
   style="fill-rule:evenodd;stroke:#000000;stroke-width:0.036;stroke-miterlimit:10"
   id="path43" />
	<path
   d="M 252.129,201.672 C 260.338,197.676 282.838,187.703 296.697,182.592 C 310.449,177.48 335.937,170.64 334.426,171.648 C 332.59,172.656 301.414,183.06 286.869,188.82 C 272.217,194.436 253.75,203.292 247.846,205.524 C 242.086,207.611 243.885,205.487 252.129,201.672 L 252.129,201.672 z "
   style="fill-rule:evenodd;stroke:#000000;stroke-width:0.036;stroke-miterlimit:10"
   id="path45" />
	<path
   d="M 189.993,167.796 C 190.173,172.224 189.201,176.651 187.221,181.512 C 185.205,186.3 182.253,191.088 177.789,196.308 C 173.109,201.455 162.381,208.8 159.789,211.932 C 157.233,214.776 158.925,213.552 162.345,214.092 C 165.621,214.596 173.109,214.056 179.517,215.388 C 185.817,216.648 194.889,219.96 200.073,222.012 C 205.185,224.064 208.425,225.72 209.937,227.375 L 209.937,227.375 C 215.049,225.071 218.541,222.191 220.845,218.592 C 223.077,214.776 224.517,207.9 223.22,205.739 C 221.781,203.651 218.253,203.867 212.492,206.387 L 212.492,206.387 C 217.676,199.763 220.231,194.326 220.016,189.647 C 219.656,184.895 216.308,182.159 211.232,178.523 C 206.085,174.815 199.281,171.287 189.993,167.796 L 189.993,167.796 z "
   style="fill:#a06227;fill-rule:evenodd;stroke:#000000;stroke-width:0.036;stroke-miterlimit:10"
   id="path47" />
	<path
   d="M 197.949,176.796 C 203.529,180.863 207.093,185.508 208.641,190.728 C 210.153,195.948 209.541,201.528 206.949,207.864 L 206.949,207.864 L 200.721,208.728 L 205.437,205.308 L 205.437,205.308 C 206.337,199.656 206.193,194.652 205.005,189.864 C 203.709,185.004 201.405,180.791 197.949,176.796 L 197.949,176.796 z "
   style="fill-rule:evenodd;stroke:#000000;stroke-width:0.036;stroke-miterlimit:10"
   id="path49" />
	<path
   d="M 195.141,213.228 C 197.265,209.448 198.129,205.164 197.733,200.375 C 197.229,195.479 195.645,190.26 192.585,184.319 L 192.585,184.319 C 191.721,186.479 190.389,188.567 188.733,190.727 C 187.077,192.779 184.953,194.903 182.505,196.955 L 182.505,196.955 C 184.629,196.559 186.357,195.767 188.085,194.579 C 189.777,193.283 191.073,191.771 192.369,189.647 L 192.369,189.647 C 193.701,193.427 194.673,197.243 195.141,201.239 C 195.609,205.163 195.609,209.159 195.141,213.228 L 195.141,213.228 z "
   style="fill-rule:evenodd;stroke:#000000;stroke-width:0.036;stroke-miterlimit:10"
   id="path51" />
	<path
   d="M 188.301,215.819 C 190.173,211.427 191.289,207.935 191.505,204.659 C 191.721,201.527 191.145,198.756 189.777,196.739 L 189.777,196.739 C 189.705,200.231 189.561,203.291 189.345,206.603 C 189.021,209.808 188.805,212.831 188.301,215.819 L 188.301,215.819 z "
   style="fill-rule:evenodd;stroke:#000000;stroke-width:0.036;stroke-miterlimit:10"
   id="path53" />
	<path
   d="M 203.277,213.012 L 214.869,211.104 L 214.869,211.104 C 214.833,214.344 214.329,216.864 213.357,218.808 C 212.277,220.644 210.873,221.904 208.857,222.444 L 208.857,222.444 C 210.765,219.996 211.845,218.196 212.493,216.648 C 213.033,215.064 212.961,214.128 212.277,213.444 L 212.277,213.444 C 209.29,213.3 206.301,213.155 203.277,213.012 L 203.277,213.012 z "
   style="fill-rule:evenodd;stroke:#000000;stroke-width:0.036;stroke-miterlimit:10"
   id="path55" />
	<path
   d="M 186.79,113.435 C 180.49,113.723 174.946,112.715 169.87,110.015 C 164.722,107.315 159.646,101.411 156.586,97.559 C 153.526,93.671 152.086,90.935 151.87,86.435 C 151.69,81.719 152.734,76.247 155.29,69.731 L 155.29,69.731 C 157.27,76.787 160.15,82.799 164.074,88.163 C 167.926,93.419 172.714,97.847 178.438,101.447 L 178.438,101.447 C 183.73,99.215 188.302,96.371 192.154,93.059 C 195.97,89.603 198.994,85.823 201.37,81.287 L 201.37,81.287 C 202.666,83.879 203.026,86.615 202.45,89.639 C 201.73,92.591 200.11,96.011 197.734,99.071 C 195.322,102.059 192.226,104.795 188.302,107.423 L 188.302,107.423 C 193.342,106.019 197.77,104.723 201.586,103.139 C 205.366,101.519 208.138,100.799 211.018,98.207 C 213.79,95.471 216.166,91.979 218.29,87.299 L 218.29,87.299 C 218.398,94.679 217.894,100.691 216.778,105.731 C 215.518,110.627 214.042,113.903 211.234,117.071 C 208.426,120.132 203.278,123.803 200.074,124.343 C 196.798,124.811 193.882,122.111 191.722,120.275 C 189.525,118.403 187.833,116.172 186.79,113.435 L 186.79,113.435 z "
   style="fill:#f6eb13;fill-rule:evenodd;stroke:#000000;stroke-width:0.036;stroke-miterlimit:10"
   id="path57" />
	<path
   d="M 219.153,108.503 C 217.857,111.239 216.993,113.255 216.129,114.947 C 215.301,116.604 214.617,117.539 214.221,118.152 L 214.221,118.152 C 214.833,122.508 216.525,125.316 219.153,126.72 C 221.853,128.052 226.605,128.232 230.06,126.287 C 233.3,124.163 237.154,121.067 238.845,114.515 C 240.464,107.855 240.825,98.819 239.925,86.867 L 239.925,86.867 C 238.952,92.519 236.792,97.163 233.3,100.799 C 229.738,104.435 225.201,106.955 219.153,108.503 L 219.153,108.503 z "
   style="fill:#f6eb13;fill-rule:evenodd;stroke:#000000;stroke-width:0.036;stroke-miterlimit:10"
   id="path59" />
	<path
   d="M 241.438,117.287 C 245.327,115.271 248.889,113.075 252.561,110.843 C 256.09,108.575 260.122,106.199 262.858,103.571 C 265.594,100.799 267.503,97.775 268.87,94.355 L 268.87,94.355 C 270.419,96.659 270.886,100.187 270.13,105.083 C 269.374,110.015 267.503,118.979 264.37,123.516 C 261.022,127.835 255.298,130.86 250.655,131.22 C 245.938,131.544 241.149,129.564 236.29,125.424 L 236.29,125.424 C 237.622,124.236 238.558,122.903 239.495,121.571 C 240.322,120.239 240.969,118.764 241.438,117.287 L 241.438,117.287 z "
   style="fill:#f6eb13;fill-rule:evenodd;stroke:#000000;stroke-width:0.036;stroke-miterlimit:10"
   id="path61" />
	<path
   d="M 146.505,122.436 L 167.277,112.14 L 167.277,112.14 C 171.093,114.228 174.405,115.633 177.357,116.208 C 180.237,116.784 182.613,116.568 184.629,115.561 L 184.629,115.561 C 185.817,118.261 187.509,120.601 189.561,122.437 C 191.613,124.165 194.421,126.037 196.869,126.505 C 199.173,126.901 201.261,126.145 203.709,125.208 C 206.157,124.164 208.533,122.797 211.233,120.708 L 211.233,120.708 L 213.789,124.164 L 213.789,124.164 C 201.405,129.312 192.585,132.948 186.789,135.505 C 180.921,137.916 180.921,137.16 179.301,138.925 C 177.681,140.653 176.961,142.74 177.141,145.584 L 177.141,145.584 L 167.709,150.948 L 167.709,150.948 C 172.353,145.045 173.361,141.084 170.733,138.925 C 167.961,136.765 161.733,136.477 151.653,138.061 L 151.653,138.061 C 167.601,131.185 176.745,126.973 179.517,125.425 C 182.145,123.769 172.425,126.792 167.709,128.664 C 162.849,130.5 157.341,133.02 150.789,136.368 L 150.789,136.368 C 154.605,131.797 156.225,128.412 155.505,126.072 C 154.75,123.768 151.797,122.508 146.505,122.436 L 146.505,122.436 z "
   style="fill:#a06227;fill-rule:evenodd;stroke:#000000;stroke-width:0.036;stroke-miterlimit:10"
   id="path63" />
	<path
   d="M 205.005,130.571 L 214.869,126.071 L 214.869,126.071 C 215.265,127.439 216.525,128.555 218.505,129.275 C 220.449,129.995 224.013,130.679 226.857,130.355 C 229.556,129.887 232.472,128.879 235.209,126.935 L 235.209,126.935 C 236.145,127.763 237.225,128.411 238.449,129.275 C 239.674,130.031 240.826,130.823 242.301,131.651 L 242.301,131.651 C 236.074,133.38 230.602,134.999 225.346,136.367 C 220.09,137.735 215.482,138.995 211.234,140.004 L 211.234,140.004 C 211.378,136.512 210.946,134.064 209.938,132.516 C 208.821,130.932 207.273,130.283 205.005,130.571 L 205.005,130.571 z "
   style="fill:#a06227;fill-rule:evenodd;stroke:#000000;stroke-width:0.036;stroke-miterlimit:10"
   id="path65" />
	<path
   d="M 196.869,132.947 C 193.197,133.523 188.913,135.395 186.357,137.447 C 183.729,139.355 180.813,143.207 181.641,144.719 C 182.397,146.122 186.933,146.879 191.073,146.447 C 195.141,145.907 203.205,144.287 206.085,142.163 C 208.893,139.968 209.181,135.575 207.777,133.991 C 206.157,132.335 200.433,132.407 196.869,132.947 L 196.869,132.947 z "
   style="fill:#a06227;fill-rule:evenodd;stroke:#000000;stroke-width:0.036;stroke-miterlimit:10"
   id="path67" />
	<path
   d="M 204.141,145.8 C 199.245,146.772 196.365,147.959 195.357,149.22 C 194.385,150.408 195.645,152.388 198.165,153.504 C 200.541,154.619 204.393,155.52 209.721,156.06 L 209.721,156.06 L 227.074,148.356 L 227.074,148.356 C 223.078,145.584 219.406,144.108 215.517,143.64 C 211.666,143.207 207.921,143.928 204.141,145.8 L 204.141,145.8 z "
   style="fill:#a06227;fill-rule:evenodd;stroke:#000000;stroke-width:0.036;stroke-miterlimit:10"
   id="path69" />
	<path
   d="M 218.721,141.3 L 245.289,133.163 L 245.289,133.163 C 247.305,135.575 250.258,135.899 254.289,133.991 C 258.357,132.048 263.182,127.979 269.301,121.787 L 269.301,121.787 C 272.901,122.615 276.25,123.264 279.346,123.731 C 282.442,124.198 285.141,124.271 287.733,124.343 L 287.733,124.343 L 230.278,146.843 L 230.278,146.843 C 228.155,144.899 226.21,143.423 224.301,142.559 C 222.322,141.623 220.557,141.155 218.721,141.3 L 218.721,141.3 z "
   style="fill:#a06227;fill-rule:evenodd;stroke:#000000;stroke-width:0.036;stroke-miterlimit:10"
   id="path71" />
	<path
   d="M 153.345,139.14 C 148.809,139.968 143.625,141.696 140.277,143.64 C 136.893,145.44 133.689,147.636 133.437,150.083 C 133.077,152.424 134.517,157.283 138.585,158.004 C 142.653,158.579 152.661,156.132 157.629,154.151 C 162.489,152.135 166.125,148.499 167.709,146.015 C 169.149,143.423 168.969,140.038 166.629,138.923 C 164.109,137.735 157.737,138.275 153.345,139.14 L 153.345,139.14 z "
   style="fill:#a06227;fill-rule:evenodd;stroke:#000000;stroke-width:0.036;stroke-miterlimit:10"
   id="path73" />
	<path
   d="M 148.629,143.424 C 143.445,146.915 140.709,149.508 140.277,151.344 C 139.809,153.18 142.041,154.764 145.857,154.152 C 149.565,153.324 160.545,148.572 162.561,146.844 C 164.469,145.115 162.921,144.072 157.629,143.856 L 157.629,143.856 C 158.565,144.54 158.169,145.476 156.585,146.664 C 154.965,147.78 150.213,150.336 148.017,150.732 C 145.677,151.092 143.229,149.94 143.301,148.788 C 143.337,147.563 145.209,145.728 148.629,143.424 L 148.629,143.424 z "
   style="fill-rule:evenodd;stroke:#000000;stroke-width:0.036;stroke-miterlimit:10"
   id="path75" />
	<path
   d="M 152.517,127.151 C 152.841,128.591 150.969,130.715 148.845,132.947 C 146.685,135.071 142.761,138.672 139.845,140.004 C 136.857,141.335 132.033,142.128 131.061,140.867 C 130.017,139.391 131.025,134.424 133.653,131.651 C 136.209,128.771 143.013,125.135 146.289,124.343 C 149.421,123.588 152.049,125.64 152.517,127.151 L 152.517,127.151 z "
   style="fill:#a06227;fill-rule:evenodd;stroke:#000000;stroke-width:0.036;stroke-miterlimit:10"
   id="path77" />
	<path
   d="M 134.085,76.787 L 85.449,97.343 L 85.449,97.343 C 91.353,96.083 95.493,95.975 97.869,97.163 C 100.209,98.315 100.785,100.619 99.597,104.219 L 99.597,104.219 C 104.421,101.123 108.489,100.331 112.233,101.843 C 115.941,103.319 120.585,109.259 121.449,113.003 C 122.169,116.676 120.477,120.203 116.517,123.732 L 116.517,123.732 C 119.361,127.368 119.649,131.112 117.381,135.504 C 114.969,139.859 110.181,144.323 102.585,149.436 L 102.585,149.436 C 106.185,149.076 110.253,148.356 114.789,147.276 C 119.253,146.196 124.185,144.72 129.585,142.992 L 129.585,142.992 C 128.181,139.068 127.893,135.721 128.721,132.948 C 129.477,130.032 128.001,129.816 134.301,126.072 C 140.673,122.22 151.041,117.072 166.233,110.232 L 166.233,110.232 C 160.905,106.236 157.089,103.068 154.641,100.584 C 152.229,98.028 151.185,96.336 151.653,95.22 L 151.653,95.22 C 146.109,93.492 141.897,90.936 139.017,87.948 C 135.993,84.743 134.481,81.251 134.085,76.787 L 134.085,76.787 z "
   style="fill:#a06227;fill-rule:evenodd;stroke:#000000;stroke-width:0.036;stroke-miterlimit:10"
   id="path79" />
	<path
   d="M 131.062,117.504 C 131.602,117.432 138.91,115.524 142.438,113.435 C 145.894,111.167 152.626,104.939 152.086,104.867 C 151.402,104.939 142.294,111.167 138.802,113.435 C 135.129,115.523 130.557,117.432 131.062,117.504 L 131.062,117.504 z "
   style="fill-rule:evenodd;stroke:#000000;stroke-width:0.036;stroke-miterlimit:10"
   id="path81" />
	<path
   d="M 130.666,111.059 C 132.07,110.339 145.93,99.683 147.37,97.991 C 148.702,96.407 141.538,98.927 138.802,101.231 C 135.849,103.391 129.297,111.527 130.666,111.059 L 130.666,111.059 z "
   style="fill-rule:evenodd;stroke:#000000;stroke-width:0.036;stroke-miterlimit:10"
   id="path83" />
	<path
   d="M 80.733,101.015 C 84.909,98.279 88.401,97.415 91.209,98.423 C 94.017,99.395 95.997,102.131 97.437,106.775 L 97.437,106.775 C 104.025,103.571 108.957,102.455 112.233,103.571 C 115.509,104.651 116.805,109.943 116.949,113.219 C 116.877,116.388 115.401,119.484 112.233,122.652 L 112.233,122.652 C 115.725,125.82 116.409,129.384 114.141,133.344 C 111.909,137.304 106.725,141.552 98.733,146.232 L 98.733,146.232 C 90.165,140.508 81.741,136.692 72.777,134.64 C 63.849,132.552 54.921,132.264 45.597,133.776 L 45.597,133.776 C 52.581,129.456 58.953,124.704 64.857,119.232 C 70.761,113.687 75.909,107.711 80.733,101.015 L 80.733,101.015 z "
   style="fill:#a06227;fill-rule:evenodd;stroke:#000000;stroke-width:0.036;stroke-miterlimit:10"
   id="path85" />
	<path
   d="M 79.221,132.516 C 80.193,130.247 80.481,128.123 80.085,126.287 C 79.689,124.38 78.573,122.615 76.881,121.14 L 76.881,121.14 L 67.449,125.424 L 77.061,118.8 L 77.061,118.8 C 78.789,120.636 80.013,122.291 80.733,124.163 C 81.273,125.964 81.417,128.016 81.165,129.491 C 80.877,130.859 80.229,131.867 79.221,132.516 L 79.221,132.516 z "
   style="fill-rule:evenodd;stroke:#000000;stroke-width:0.036;stroke-miterlimit:10"
   id="path87" />
	<path
   d="M 82.857,134.64 C 84.261,132.48 84.837,129.924 84.585,127.368 C 84.225,124.776 83.217,121.788 81.165,118.801 L 81.165,118.801 C 83.253,120.565 84.801,122.58 85.665,124.992 C 86.457,127.297 86.961,131.292 86.493,132.948 C 85.953,134.531 84.874,135.144 82.857,134.64 L 82.857,134.64 z "
   style="fill-rule:evenodd;stroke:#000000;stroke-width:0.036;stroke-miterlimit:10"
   id="path89" />
	<path
   d="M 88.005,138.06 C 90.201,135.936 91.029,133.272 90.777,129.924 C 90.381,126.539 88.905,122.544 86.061,117.936 L 86.061,117.936 C 89.265,120.6 91.461,123.588 92.505,126.504 C 93.549,129.491 92.973,133.667 92.289,135.72 C 91.533,137.628 90.057,138.455 88.005,138.06 L 88.005,138.06 z "
   style="fill-rule:evenodd;stroke:#000000;stroke-width:0.036;stroke-miterlimit:10"
   id="path91" />
	<path
   d="M 100.857,117.504 C 102.945,121.823 103.881,125.604 103.665,129.275 C 103.341,132.839 102.045,136.007 99.381,138.923 L 99.381,138.923 L 92.937,137.843 L 99.993,141.515 L 99.993,141.515 C 102.441,138.706 104.061,136.115 105.141,133.343 C 106.149,130.498 106.617,127.834 106.005,125.206 C 105.285,122.508 103.521,119.987 100.857,117.504 L 100.857,117.504 z "
   style="fill-rule:evenodd;stroke:#000000;stroke-width:0.036;stroke-miterlimit:10"
   id="path93" />
	<path
   d="M 106.005,107.207 C 108.453,107.243 109.857,108.107 110.505,109.799 C 111.045,111.455 110.685,113.903 109.425,117.287 L 109.425,117.287 C 109.569,113.903 109.353,111.455 108.777,109.799 C 108.201,108.107 107.229,107.243 106.005,107.207 L 106.005,107.207 z "
   style="fill-rule:evenodd;stroke:#000000;stroke-width:0.036;stroke-miterlimit:10"
   id="path95" />
	<path
   d="M 83.29,104.003 C 85.306,102.995 87.286,102.923 89.086,103.787 C 90.814,104.687 92.506,106.379 94.018,109.151 L 94.018,109.151 C 91.534,106.811 89.338,105.335 87.574,104.435 C 85.809,103.571 84.333,103.427 83.29,104.003 L 83.29,104.003 z "
   style="fill-rule:evenodd;stroke:#000000;stroke-width:0.036;stroke-miterlimit:10"
   id="path97" />
	<path
   d="M 194.421,112.679 C 197.913,113.723 201.009,113.687 203.853,112.283 C 206.589,110.843 209.217,108.323 211.341,104.435 L 211.341,104.435 C 208.065,113.831 205.041,119.159 202.269,120.563 C 199.354,121.896 196.869,119.268 194.421,112.679 L 194.421,112.679 z "
   style="fill:#f58020;fill-rule:evenodd"
   id="path99" />
	<path
   d="M 220.377,115.848 C 222.068,115.848 223.906,115.056 226.281,113.472 C 228.549,111.888 231.177,109.476 234.166,106.38 L 234.166,106.38 C 234.381,114.264 233.228,118.944 230.998,120.565 C 228.586,122.147 225.238,120.527 220.377,115.848 L 220.377,115.848 z "
   style="fill:#f58020;fill-rule:evenodd"
   id="path101" />
	<path
   d="M 247.162,121.355 C 249.826,119.519 252.308,117.503 255.01,115.451 C 257.602,113.255 260.229,111.167 262.893,108.755 L 262.893,108.755 C 260.733,116.856 258.465,121.968 255.801,124.092 C 253.174,126.144 250.293,125.279 247.162,121.355 L 247.162,121.355 z "
   style="fill:#f58020;fill-rule:evenodd"
   id="path103" />
	<path
   d="M 173.542,104.831 C 170.482,102.095 164.146,96.947 161.338,93.419 C 158.458,89.891 156.982,84.095 156.622,84.347 C 156.298,84.635 157.27,91.511 159.394,94.967 C 161.482,98.315 165.406,102.023 168.826,104.435 C 172.102,106.775 178.15,108.539 179.05,108.755 C 179.77,108.791 176.493,107.351 173.542,104.831 L 173.542,104.831 z "
   style="fill:#f58020;fill-rule:evenodd"
   id="path105" />
</g>
</svg>